  0
SECTION
  2
HEADER
  9
$ACADVER
  1
AC1021
  9
$ACADMAINTVER
 70
    25
  9
$DWGCODEPAGE
  3
ANSI_1252
  9
$INSBASE
 10
0.0
 20
0.0
 30
0.0
  9
$EXTMIN
 10
-3.13442
 20
-0.14144
 30
0.0
  9
$EXTMAX
 10
3.10388
 20
6.82843
 30
0.0
  9
$LIMMIN
 10
0.0
 20
0.0
  9
$LIMMAX
 10
12.0
 20
9.0
  9
$ORTHOMODE
 70
     0
  9
$REGENMODE
 70
     1
  9
$FILLMODE
 70
     1
  9
$QTEXTMODE
 70
     0
  9
$MIRRTEXT
 70
     1
  9
$LTSCALE
 40
1.0
  9
$ATTMODE
 70
     1
  9
$TEXTSIZE
 40
0.2
  9
$TRACEWID
 40
0.05
  9
$TEXTSTYLE
  7
Standard
  9
$CLAYER
  8
0
  9
$CELTYPE
  6
ByLayer
  9
$CECOLOR
 62
   256
  9
$CELTSCALE
 40
1.0
  9
$DISPSILH
 70
     0
  9
$DIMSCALE
 40
1.0
  9
$DIMASZ
 40
0.18
  9
$DIMEXO
 40
0.0625
  9
$DIMDLI
 40
0.38
  9
$DIMRND
 40
0.0
  9
$DIMDLE
 40
0.0
  9
$DIMEXE
 40
0.18
  9
$DIMTP
 40
0.0
  9
$DIMTM
 40
0.0
  9
$DIMTXT
 40
0.18
  9
$DIMCEN
 40
0.09
  9
$DIMTSZ
 40
0.0
  9
$DIMTOL
 70
     0
  9
$DIMLIM
 70
     0
  9
$DIMTIH
 70
     1
  9
$DIMTOH
 70
     1
  9
$DIMSE1
 70
     0
  9
$DIMSE2
 70
     0
  9
$DIMTAD
 70
     0
  9
$DIMZIN
 70
     0
  9
$DIMBLK
  1

  9
$DIMASO
 70
     1
  9
$DIMSHO
 70
     1
  9
$DIMPOST
  1

  9
$DIMAPOST
  1

  9
$DIMALT
 70
     0
  9
$DIMALTD
 70
     2
  9
$DIMALTF
 40
25.4
  9
$DIMLFAC
 40
1.0
  9
$DIMTOFL
 70
     0
  9
$DIMTVP
 40
0.0
  9
$DIMTIX
 70
     0
  9
$DIMSOXD
 70
     0
  9
$DIMSAH
 70
     0
  9
$DIMBLK1
  1

  9
$DIMBLK2
  1

  9
$DIMSTYLE
  2
Standard
  9
$DIMCLRD
 70
     0
  9
$DIMCLRE
 70
     0
  9
$DIMCLRT
 70
     0
  9
$DIMTFAC
 40
1.0
  9
$DIMGAP
 40
0.09
  9
$DIMJUST
 70
     0
  9
$DIMSD1
 70
     0
  9
$DIMSD2
 70
     0
  9
$DIMTOLJ
 70
     1
  9
$DIMTZIN
 70
     0
  9
$DIMALTZ
 70
     0
  9
$DIMALTTZ
 70
     0
  9
$DIMUPT
 70
     0
  9
$DIMDEC
 70
     4
  9
$DIMTDEC
 70
     4
  9
$DIMALTU
 70
     2
  9
$DIMALTTD
 70
     2
  9
$DIMTXSTY
  7
Standard
  9
$DIMAUNIT
 70
     0
  9
$DIMADEC
 70
     0
  9
$DIMALTRND
 40
0.0
  9
$DIMAZIN
 70
     0
  9
$DIMDSEP
 70
    46
  9
$DIMATFIT
 70
     3
  9
$DIMFRAC
 70
     0
  9
$DIMLDRBLK
  1

  9
$DIMLUNIT
 70
     2
  9
$DIMLWD
 70
    -2
  9
$DIMLWE
 70
    -2
  9
$DIMTMOVE
 70
     0
  9
$DIMFXL
 40
1.0
  9
$DIMFXLON
 70
     0
  9
$DIMJOGANG
 40
0.7853981633974483
  9
$DIMTFILL
 70
     0
  9
$DIMTFILLCLR
 70
     0
  9
$DIMARCSYM
 70
     0
  9
$DIMLTYPE
  6

  9
$DIMLTEX1
  6

  9
$DIMLTEX2
  6

  9
$LUNITS
 70
     2
  9
$LUPREC
 70
     4
  9
$SKETCHINC
 40
0.1
  9
$FILLETRAD
 40
0.5
  9
$AUNITS
 70
     0
  9
$AUPREC
 70
     0
  9
$MENU
  1
.
  9
$ELEVATION
 40
0.0
  9
$PELEVATION
 40
0.0
  9
$THICKNESS
 40
0.0
  9
$LIMCHECK
 70
     0
  9
$CHAMFERA
 40
0.5
  9
$CHAMFERB
 40
0.5
  9
$CHAMFERC
 40
1.0
  9
$CHAMFERD
 40
0.0
  9
$SKPOLY
 70
     0
  9
$TDCREATE
 40
2460679.436405393
  9
$TDUCREATE
 40
2460679.436405393
  9
$TDUPDATE
 40
2460679.436405625
  9
$TDUUPDATE
 40
2460679.436405625
  9
$TDINDWG
 40
0.0000000116
  9
$TDUSRTIMER
 40
0.0000000116
  9
$USRTIMER
 70
     1
  9
$ANGBASE
 50
0.0
  9
$ANGDIR
 70
     0
  9
$PDMODE
 70
     0
  9
$PDSIZE
 40
0.0
  9
$PLINEWID
 40
0.0
  9
$SPLFRAME
 70
     0
  9
$SPLINETYPE
 70
     6
  9
$SPLINESEGS
 70
     8
  9
$HANDSEED
  5
99
  9
$SURFTAB1
 70
     6
  9
$SURFTAB2
 70
     6
  9
$SURFTYPE
 70
     6
  9
$SURFU
 70
     6
  9
$SURFV
 70
     6
  9
$UCSBASE
  2

  9
$UCSNAME
  2

  9
$UCSORG
 10
0.0
 20
0.0
 30
0.0
  9
$UCSXDIR
 10
1.0
 20
0.0
 30
0.0
  9
$UCSYDIR
 10
0.0
 20
1.0
 30
0.0
  9
$UCSORTHOREF
  2

  9
$UCSORTHOVIEW
 70
     0
  9
$UCSORGTOP
 10
0.0
 20
0.0
 30
0.0
  9
$UCSORGBOTTOM
 10
0.0
 20
0.0
 30
0.0
  9
$UCSORGLEFT
 10
0.0
 20
0.0
 30
0.0
  9
$UCSORGRIGHT
 10
0.0
 20
0.0
 30
0.0
  9
$UCSORGFRONT
 10
0.0
 20
0.0
 30
0.0
  9
$UCSORGBACK
 10
0.0
 20
0.0
 30
0.0
  9
$PUCSBASE
  2

  9
$PUCSNAME
  2

  9
$PUCSORG
 10
0.0
 20
0.0
 30
0.0
  9
$PUCSXDIR
 10
1.0
 20
0.0
 30
0.0
  9
$PUCSYDIR
 10
0.0
 20
1.0
 30
0.0
  9
$PUCSORTHOREF
  2

  9
$PUCSORTHOVIEW
 70
     0
  9
$PUCSORGTOP
 10
0.0
 20
0.0
 30
0.0
  9
$PUCSORGBOTTOM
 10
0.0
 20
0.0
 30
0.0
  9
$PUCSORGLEFT
 10
0.0
 20
0.0
 30
0.0
  9
$PUCSORGRIGHT
 10
0.0
 20
0.0
 30
0.0
  9
$PUCSORGFRONT
 10
0.0
 20
0.0
 30
0.0
  9
$PUCSORGBACK
 10
0.0
 20
0.0
 30
0.0
  9
$USERI1
 70
     0
  9
$USERI2
 70
     0
  9
$USERI3
 70
     0
  9
$USERI4
 70
     0
  9
$USERI5
 70
     0
  9
$USERR1
 40
0.0
  9
$USERR2
 40
0.0
  9
$USERR3
 40
0.0
  9
$USERR4
 40
0.0
  9
$USERR5
 40
0.0
  9
$WORLDVIEW
 70
     1
  9
$SHADEDGE
 70
     3
  9
$SHADEDIF
 70
    70
  9
$TILEMODE
 70
     1
  9
$MAXACTVP
 70
    64
  9
$PINSBASE
 10
0.0
 20
0.0
 30
0.0
  9
$PLIMCHECK
 70
     0
  9
$PEXTMIN
 10
1.000000000000000E+20
 20
1.000000000000000E+20
 30
1.000000000000000E+20
  9
$PEXTMAX
 10
-1.000000000000000E+20
 20
-1.000000000000000E+20
 30
-1.000000000000000E+20
  9
$PLIMMIN
 10
0.0
 20
0.0
  9
$PLIMMAX
 10
12.0
 20
9.0
  9
$UNITMODE
 70
     0
  9
$VISRETAIN
 70
     1
  9
$PLINEGEN
 70
     0
  9
$PSLTSCALE
 70
     1
  9
$TREEDEPTH
 70
  3020
  9
$CMLSTYLE
  2
Standard
  9
$CMLJUST
 70
     0
  9
$CMLSCALE
 40
1.0
  9
$PROXYGRAPHICS
 70
     1
  9
$MEASUREMENT
 70
     0
  9
$CELWEIGHT
370
    -1
  9
$ENDCAPS
280
     0
  9
$JOINSTYLE
280
     0
  9
$LWDISPLAY
290
     0
  9
$INSUNITS
 70
     5
  9
$HYPERLINKBASE
  1

  9
$STYLESHEET
  1

  9
$XEDIT
290
     1
  9
$CEPSNTYPE
380
     0
  9
$PSTYLEMODE
290
     1
  9
$FINGERPRINTGUID
  2
{50FEF833-AC9D-4EF2-BE77-5BDFCA35963C}
  9
$VERSIONGUID
  2
{FAEB1C32-E019-11D5-929B-00C0DF256EC4}
  9
$EXTNAMES
290
     1
  9
$PSVPSCALE
 40
0.0
  9
$OLESTARTUP
290
     0
  9
$SORTENTS
280
   127
  9
$INDEXCTL
280
     0
  9
$HIDETEXT
280
     1
  9
$XCLIPFRAME
290
     0
  9
$HALOGAP
280
     0
  9
$OBSCOLOR
 70
   257
  9
$OBSLTYPE
280
     0
  9
$INTERSECTIONDISPLAY
280
     0
  9
$INTERSECTIONCOLOR
 70
   257
  9
$DIMASSOC
280
     2
  9
$PROJECTNAME
  1

  9
$CAMERADISPLAY
290
     0
  9
$LENSLENGTH
 40
50.0
  9
$CAMERAHEIGHT
 40
0.0
  9
$STEPSPERSEC
 40
2.0
  9
$STEPSIZE
 40
6.0
  9
$3DDWFPREC
 40
2.0
  9
$PSOLWIDTH
 40
0.25
  9
$PSOLHEIGHT
 40
4.0
  9
$LOFTANG1
 40
1.570796326794897
  9
$LOFTANG2
 40
1.570796326794897
  9
$LOFTMAG1
 40
0.0
  9
$LOFTMAG2
 40
0.0
  9
$LOFTPARAM
 70
     7
  9
$LOFTNORMALS
280
     1
  9
$LATITUDE
 40
37.795
  9
$LONGITUDE
 40
-122.394
  9
$NORTHDIRECTION
 40
0.0
  9
$TIMEZONE
 70
 -8000
  9
$LIGHTGLYPHDISPLAY
280
     1
  9
$TILEMODELIGHTSYNCH
280
     1
  9
$SOLIDHIST
280
     1
  9
$SHOWHIST
280
     1
  9
$DWFFRAME
280
     2
  9
$DGNFRAME
280
     2
  9
$REALWORLDSCALE
290
     1
  9
$INTERFERECOLOR
 62
   256
  9
$CSHADOW
280
     0
  9
$SHADOWPLANELOCATION
 40
0.0
  0
ENDSEC
  0
SECTION
  2
CLASSES
  0
CLASS
  1
ACDBDICTIONARYWDFLT
  2
AcDbDictionaryWithDefault
  3
ObjectDBX Classes
 90
        0
 91
        4
280
     0
281
     0
  0
CLASS
  1
VISUALSTYLE
  2
AcDbVisualStyle
  3
ObjectDBX Classes
 90
     4095
 91
        4
280
     0
281
     0
  0
CLASS
  1
MATERIAL
  2
AcDbMaterial
  3
ObjectDBX Classes
 90
     1153
 91
        4
280
     0
281
     0
  0
ENDSEC
  0
SECTION
  2
TABLES
  0
TABLE
  2
VPORT
  5
8
330
0
100
AcDbSymbolTable
 70
     1
  0
VPORT
  5
29
330
8
100
AcDbSymbolTableRecord
100
AcDbViewportTableRecord
  2
*Active
 70
     0
 10
0.0
 20
0.0
 11
1.0
 21
1.0
 12
10.42990654205607
 22
4.5
 13
0.0
 23
0.0
 14
0.5
 24
0.5
 15
0.5
 25
0.5
 16
0.0
 26
0.0
 36
1.0
 17
0.0
 27
0.0
 37
0.0
 40
9.0
 41
1.972972972850329
 42
50.0
 43
0.0
 44
0.0
 50
0.0
 51
0.0
 71
     0
 72
   100
 73
     1
 74
     3
 75
     0
 76
     0
 77
     0
 78
     0
281
     0
 65
     1
110
0.0
120
0.0
130
0.0
111
1.0
121
0.0
131
0.0
112
0.0
122
1.0
132
0.0
 79
     0
146
0.0
 60
     3
 61
     5
292
     1
282
     1
141
0.0
142
0.0
 63
   250
  0
ENDTAB
  0
TABLE
  2
LTYPE
  5
5
330
0
100
AcDbSymbolTable
 70
     1
  0
LTYPE
  5
14
330
5
100
AcDbSymbolTableRecord
100
AcDbLinetypeTableRecord
  2
ByBlock
 70
     0
  3

 72
    65
 73
     0
 40
0.0
  0
LTYPE
  5
15
330
5
100
AcDbSymbolTableRecord
100
AcDbLinetypeTableRecord
  2
ByLayer
 70
     0
  3

 72
    65
 73
     0
 40
0.0
  0
LTYPE
  5
16
330
5
100
AcDbSymbolTableRecord
100
AcDbLinetypeTableRecord
  2
Continuous
 70
     0
  3
Solid line
 72
    65
 73
     0
 40
0.0
  0
ENDTAB
  0
TABLE
  2
LAYER
  5
2
330
0
100
AcDbSymbolTable
 70
     2
  0
LAYER
  5
10
330
2
100
AcDbSymbolTableRecord
100
AcDbLayerTableRecord
  2
0
 70
     0
 62
     7
  6
Continuous
370
    -3
390
F
347
3E
  0
LAYER
  5
40
330
2
100
AcDbSymbolTableRecord
100
AcDbLayerTableRecord
  2
Layer 1
 70
     0
 62
     7
  6
Continuous
370
    -3
390
F
347
3E
  0
ENDTAB
  0
TABLE
  2
STYLE
  5
3
330
0
100
AcDbSymbolTable
 70
     1
  0
STYLE
  5
11
330
3
100
AcDbSymbolTableRecord
100
AcDbTextStyleTableRecord
  2
Standard
 70
     0
 40
0.0
 41
1.0
 50
0.0
 71
     0
 42
0.2
  3
txt
  4

  0
ENDTAB
  0
TABLE
  2
VIEW
  5
6
330
0
100
AcDbSymbolTable
 70
     0
  0
ENDTAB
  0
TABLE
  2
UCS
  5
7
330
0
100
AcDbSymbolTable
 70
     0
  0
ENDTAB
  0
TABLE
  2
APPID
  5
9
330
0
100
AcDbSymbolTable
 70
     2
  0
APPID
  5
12
330
9
100
AcDbSymbolTableRecord
100
AcDbRegAppTableRecord
  2
ACAD
 70
     0
  0
APPID
  5
3F
330
9
100
AcDbSymbolTableRecord
100
AcDbRegAppTableRecord
  2
ODA
 70
     0
  0
ENDTAB
  0
TABLE
  2
DIMSTYLE
  5
A
330
0
100
AcDbSymbolTable
 70
     1
100
AcDbDimStyleTable
  0
DIMSTYLE
105
27
330
A
100
AcDbSymbolTableRecord
100
AcDbDimStyleTableRecord
  2
Standard
 70
     0
178
     0
340
11
  0
ENDTAB
  0
TABLE
  2
BLOCK_RECORD
  5
1
330
0
100
AcDbSymbolTable
 70
     1
  0
BLOCK_RECORD
  5
1F
330
1
100
AcDbSymbolTableRecord
100
AcDbBlockTableRecord
  2
*Model_Space
340
22
 70
     0
280
     1
281
     0
  0
BLOCK_RECORD
  5
1B
330
1
100
AcDbSymbolTableRecord
100
AcDbBlockTableRecord
  2
*Paper_Space
340
1E
 70
     0
280
     1
281
     0
  0
BLOCK_RECORD
  5
23
330
1
100
AcDbSymbolTableRecord
100
AcDbBlockTableRecord
  2
*Paper_Space0
340
26
 70
     0
280
     1
281
     0
  0
ENDTAB
  0
ENDSEC
  0
SECTION
  2
BLOCKS
  0
BLOCK
  5
20
330
1F
100
AcDbEntity
  8
0
100
AcDbBlockBegin
  2
*Model_Space
 70
     0
 10
0.0
 20
0.0
 30
0.0
  3
*Model_Space
  1

  0
ENDBLK
  5
21
330
1F
100
AcDbEntity
  8
0
100
AcDbBlockEnd
  0
BLOCK
  5
1C
330
1B
100
AcDbEntity
 67
     1
  8
0
100
AcDbBlockBegin
  2
*Paper_Space
 70
     0
 10
0.0
 20
0.0
 30
0.0
  3
*Paper_Space
  1

  0
ENDBLK
  5
1D
330
1B
100
AcDbEntity
 67
     1
  8
0
100
AcDbBlockEnd
  0
BLOCK
  5
24
330
23
100
AcDbEntity
  8
0
100
AcDbBlockBegin
  2
*Paper_Space0
 70
     0
 10
0.0
 20
0.0
 30
0.0
  3
*Paper_Space0
  1

  0
ENDBLK
  5
25
330
23
100
AcDbEntity
  8
0
100
AcDbBlockEnd
  0
ENDSEC
  0
SECTION
  2
ENTITIES
  0
SPLINE
  5
41
330
1F
100
AcDbEntity
  8
Layer 1
100
AcDbSpline
210
0.0
220
0.0
230
1.0
 70
    11
 71
     3
 72
    60
 73
    56
 74
     0
 42
0.0000000001
 43
0.0000000001
 12
1.0
 22
0.0
 32
0.0
 13
1.0
 23
0.0
 33
0.0
 40
0.0
 40
0.0
 40
0.0
 40
0.0
 40
0.0666666666666667
 40
0.0666666666666667
 40
0.0666666666666667
 40
0.0666666666666667
 40
0.1333333333333333
 40
0.1333333333333333
 40
0.1333333333333333
 40
0.1333333333333333
 40
0.2
 40
0.2
 40
0.2
 40
0.2
 40
0.2666666666666667
 40
0.2666666666666667
 40
0.2666666666666667
 40
0.2666666666666667
 40
0.3333333333333333
 40
0.3333333333333333
 40
0.3333333333333333
 40
0.3333333333333333
 40
0.4
 40
0.4
 40
0.4
 40
0.4
 40
0.4666666666666667
 40
0.4666666666666667
 40
0.4666666666666667
 40
0.4666666666666667
 40
0.5333333333333333
 40
0.5333333333333333
 40
0.5333333333333333
 40
0.5333333333333333
 40
0.6
 40
0.6
 40
0.6
 40
0.6
 40
0.6666666666666666
 40
0.6666666666666666
 40
0.6666666666666666
 40
0.6666666666666666
 40
0.7333333333333333
 40
0.7333333333333333
 40
0.7333333333333333
 40
0.7333333333333333
 40
0.8
 40
0.8
 40
0.8
 40
0.8
 40
0.8666666666666667
 40
0.8666666666666667
 40
0.8666666666666667
 40
0.8666666666666667
 40
1.0
 40
1.0
 40
1.0
 40
1.0
 10
-2.26297
 20
6.42044
 30
0.0
 10
-2.26297
 20
6.42044
 30
0.0
 10
-2.26297
 20
6.82843
 30
0.0
 10
-2.26297
 20
6.82843
 30
0.0
 10
-2.26297
 20
6.82843
 30
0.0
 10
-2.26297
 20
6.82843
 30
0.0
 10
-2.21217
 20
6.82843
 30
0.0
 10
-2.21217
 20
6.82843
 30
0.0
 10
-2.21217
 20
6.82843
 30
0.0
 10
-2.21217
 20
6.82843
 30
0.0
 10
-2.21217
 20
6.64789
 30
0.0
 10
-2.21217
 20
6.64789
 30
0.0
 10
-2.21217
 20
6.64789
 30
0.0
 10
-2.18527
 20
6.68714
 30
0.0
 10
-2.15228
 20
6.70672
 30
0.0
 10
-2.1133
 20
6.70672
 30
0.0
 10
-2.1133
 20
6.70672
 30
0.0
 10
-2.08878
 20
6.70672
 30
0.0
 10
-2.06929
 20
6.69905
 30
0.0
 10
-2.05492
 20
6.68361
 30
0.0
 10
-2.05492
 20
6.68361
 30
0.0
 10
-2.04054
 20
6.66827
 30
0.0
 10
-2.03331
 20
6.64754
 30
0.0
 10
-2.03331
 20
6.62161
 30
0.0
 10
-2.03331
 20
6.62161
 30
0.0
 10
-2.03331
 20
6.62161
 30
0.0
 10
-2.03331
 20
6.42044
 30
0.0
 10
-2.03331
 20
6.42044
 30
0.0
 10
-2.03331
 20
6.42044
 30
0.0
 10
-2.03331
 20
6.42044
 30
0.0
 10
-2.08411
 20
6.42044
 30
0.0
 10
-2.08411
 20
6.42044
 30
0.0
 10
-2.08411
 20
6.42044
 30
0.0
 10
-2.08411
 20
6.42044
 30
0.0
 10
-2.08411
 20
6.60503
 30
0.0
 10
-2.08411
 20
6.60503
 30
0.0
 10
-2.08411
 20
6.60503
 30
0.0
 10
-2.08411
 20
6.62585
 30
0.0
 10
-2.0872
 20
6.64066
 30
0.0
 10
-2.09328
 20
6.64948
 30
0.0
 10
-2.09328
 20
6.64948
 30
0.0
 10
-2.09946
 20
6.65839
 30
0.0
 10
-2.1096
 20
6.6628
 30
0.0
 10
-2.1238
 20
6.6628
 30
0.0
 10
-2.1238
 20
6.6628
 30
0.0
 10
-2.15502
 20
6.6628
 30
0.0
 10
-2.18448
 20
6.64243
 30
0.0
 10
-2.21217
 20
6.60168
 30
0.0
 10
-2.21217
 20
6.60168
 30
0.0
 10
-2.21217
 20
6.60168
 30
0.0
 10
-2.21217
 20
6.42044
 30
0.0
 10
-2.21217
 20
6.42044
 30
0.0
 10
-2.21217
 20
6.42044
 30
0.0
 10
-2.21217
 20
6.42044
 30
0.0
 10
-2.26297
 20
6.42044
 30
0.0
 10
-2.26297
 20
6.42044
 30
0.0
  0
SPLINE
  5
42
330
1F
100
AcDbEntity
  8
Layer 1
100
AcDbSpline
210
0.0
220
0.0
230
1.0
 70
    11
 71
     3
 72
    80
 73
    76
 74
     0
 42
0.0000000001
 43
0.0000000001
 12
1.0
 22
0.0
 32
0.0
 13
1.0
 23
0.0
 33
0.0
 40
0.0
 40
0.0
 40
0.0
 40
0.0
 40
0.05
 40
0.05
 40
0.05
 40
0.05
 40
0.1
 40
0.1
 40
0.1
 40
0.1
 40
0.15
 40
0.15
 40
0.15
 40
0.15
 40
0.2
 40
0.2
 40
0.2
 40
0.2
 40
0.25
 40
0.25
 40
0.25
 40
0.25
 40
0.3
 40
0.3
 40
0.3
 40
0.3
 40
0.35
 40
0.35
 40
0.35
 40
0.35
 40
0.4
 40
0.4
 40
0.4
 40
0.4
 40
0.45
 40
0.45
 40
0.45
 40
0.45
 40
0.5
 40
0.5
 40
0.5
 40
0.5
 40
0.55
 40
0.55
 40
0.55
 40
0.55
 40
0.6
 40
0.6
 40
0.6
 40
0.6
 40
0.65
 40
0.65
 40
0.65
 40
0.65
 40
0.7
 40
0.7
 40
0.7
 40
0.7
 40
0.75
 40
0.75
 40
0.75
 40
0.75
 40
0.8
 40
0.8
 40
0.8
 40
0.8
 40
0.85
 40
0.85
 40
0.85
 40
0.85
 40
0.9
 40
0.9
 40
0.9
 40
0.9
 40
1.0
 40
1.0
 40
1.0
 40
1.0
 10
-1.78998
 20
6.45616
 30
0.0
 10
-1.82049
 20
6.42811
 30
0.0
 10
-1.84986
 20
6.41409
 30
0.0
 10
-1.87808
 20
6.41409
 30
0.0
 10
-1.87808
 20
6.41409
 30
0.0
 10
-1.90128
 20
6.41409
 30
0.0
 10
-1.92059
 20
6.42132
 30
0.0
 10
-1.93585
 20
6.43587
 30
0.0
 10
-1.93585
 20
6.43587
 30
0.0
 10
-1.9512
 20
6.45043
 30
0.0
 10
-1.95887
 20
6.46877
 30
0.0
 10
-1.95887
 20
6.49091
 30
0.0
 10
-1.95887
 20
6.49091
 30
0.0
 10
-1.95887
 20
6.52151
 30
0.0
 10
-1.946
 20
6.54506
 30
0.0
 10
-1.92024
 20
6.56146
 30
0.0
 10
-1.92024
 20
6.56146
 30
0.0
 10
-1.89449
 20
6.57787
 30
0.0
 10
-1.85754
 20
6.58607
 30
0.0
 10
-1.80938
 20
6.58607
 30
0.0
 10
-1.80938
 20
6.58607
 30
0.0
 10
-1.80938
 20
6.58607
 30
0.0
 10
-1.79747
 20
6.58607
 30
0.0
 10
-1.79747
 20
6.58607
 30
0.0
 10
-1.79747
 20
6.58607
 30
0.0
 10
-1.79747
 20
6.58607
 30
0.0
 10
-1.79747
 20
6.61985
 30
0.0
 10
-1.79747
 20
6.61985
 30
0.0
 10
-1.79747
 20
6.61985
 30
0.0
 10
-1.79747
 20
6.65239
 30
0.0
 10
-1.81441
 20
6.66862
 30
0.0
 10
-1.84836
 20
6.66862
 30
0.0
 10
-1.84836
 20
6.66862
 30
0.0
 10
-1.87465
 20
6.66862
 30
0.0
 10
-1.9034
 20
6.66033
 30
0.0
 10
-1.93453
 20
6.64375
 30
0.0
 10
-1.93453
 20
6.64375
 30
0.0
 10
-1.93453
 20
6.64375
 30
0.0
 10
-1.93453
 20
6.68555
 30
0.0
 10
-1.93453
 20
6.68555
 30
0.0
 10
-1.93453
 20
6.68555
 30
0.0
 10
-1.90031
 20
6.69967
 30
0.0
 10
-1.86803
 20
6.70672
 30
0.0
 10
-1.83778
 20
6.70672
 30
0.0
 10
-1.83778
 20
6.70672
 30
0.0
 10
-1.80665
 20
6.70672
 30
0.0
 10
-1.78363
 20
6.69967
 30
0.0
 10
-1.7689
 20
6.68547
 30
0.0
 10
-1.7689
 20
6.68547
 30
0.0
 10
-1.75408
 20
6.67127
 30
0.0
 10
-1.74667
 20
6.64939
 30
0.0
 10
-1.74667
 20
6.61985
 30
0.0
 10
-1.74667
 20
6.61985
 30
0.0
 10
-1.74667
 20
6.61985
 30
0.0
 10
-1.74667
 20
6.49311
 30
0.0
 10
-1.74667
 20
6.49311
 30
0.0
 10
-1.74667
 20
6.49311
 30
0.0
 10
-1.74667
 20
6.4641
 30
0.0
 10
-1.73777
 20
6.44954
 30
0.0
 10
-1.71986
 20
6.44954
 30
0.0
 10
-1.71986
 20
6.44954
 30
0.0
 10
-1.71766
 20
6.44954
 30
0.0
 10
-1.71439
 20
6.4499
 30
0.0
 10
-1.71007
 20
6.4506
 30
0.0
 10
-1.71007
 20
6.4506
 30
0.0
 10
-1.71007
 20
6.4506
 30
0.0
 10
-1.70646
 20
6.42238
 30
0.0
 10
-1.70646
 20
6.42238
 30
0.0
 10
-1.70646
 20
6.42238
 30
0.0
 10
-1.71801
 20
6.41682
 30
0.0
 10
-1.73071
 20
6.41409
 30
0.0
 10
-1.74465
 20
6.41409
 30
0.0
 10
-1.74465
 20
6.41409
 30
0.0
 10
-1.76837
 20
6.41409
 30
0.0
 10
-1.78345
 20
6.42811
 30
0.0
 10
-1.78998
 20
6.45616
 30
0.0
  0
SPLINE
  5
43
330
1F
100
AcDbEntity
  8
Layer 1
100
AcDbSpline
210
0.0
220
0.0
230
1.0
 70
    11
 71
     3
 72
    32
 73
    28
 74
     0
 42
0.0000000001
 43
0.0000000001
 12
1.0
 22
0.0
 32
0.0
 13
1.0
 23
0.0
 33
0.0
 40
0.0
 40
0.0
 40
0.0
 40
0.0
 40
0.125
 40
0.125
 40
0.125
 40
0.125
 40
0.25
 40
0.25
 40
0.25
 40
0.25
 40
0.375
 40
0.375
 40
0.375
 40
0.375
 40
0.5
 40
0.5
 40
0.5
 40
0.5
 40
0.625
 40
0.625
 40
0.625
 40
0.625
 40
0.75
 40
0.75
 40
0.75
 40
0.75
 40
1.0
 40
1.0
 40
1.0
 40
1.0
 10
-1.79747
 20
6.48385
 30
0.0
 10
-1.79747
 20
6.48385
 30
0.0
 10
-1.79747
 20
6.55591
 30
0.0
 10
-1.79747
 20
6.55591
 30
0.0
 10
-1.79747
 20
6.55591
 30
0.0
 10
-1.79747
 20
6.55591
 30
0.0
 10
-1.81379
 20
6.55644
 30
0.0
 10
-1.81379
 20
6.55644
 30
0.0
 10
-1.81379
 20
6.55644
 30
0.0
 10
-1.84201
 20
6.55644
 30
0.0
 10
-1.86477
 20
6.55123
 30
0.0
 10
-1.88214
 20
6.54083
 30
0.0
 10
-1.88214
 20
6.54083
 30
0.0
 10
-1.89943
 20
6.53033
 30
0.0
 10
-1.90807
 20
6.51648
 30
0.0
 10
-1.90807
 20
6.4992
 30
0.0
 10
-1.90807
 20
6.4992
 30
0.0
 10
-1.90807
 20
6.48712
 30
0.0
 10
-1.90375
 20
6.47688
 30
0.0
 10
-1.89519
 20
6.46851
 30
0.0
 10
-1.89519
 20
6.46851
 30
0.0
 10
-1.88655
 20
6.46013
 30
0.0
 10
-1.87606
 20
6.45589
 30
0.0
 10
-1.86362
 20
6.45589
 30
0.0
 10
-1.86362
 20
6.45589
 30
0.0
 10
-1.84245
 20
6.45589
 30
0.0
 10
-1.82041
 20
6.46524
 30
0.0
 10
-1.79747
 20
6.48385
 30
0.0
  0
SPLINE
  5
44
330
1F
100
AcDbEntity
  8
Layer 1
100
AcDbSpline
210
0.0
220
0.0
230
1.0
 70
    11
 71
     3
 72
    44
 73
    40
 74
     0
 42
0.0000000001
 43
0.0000000001
 12
1.0
 22
0.0
 32
0.0
 13
1.0
 23
0.0
 33
0.0
 40
0.0
 40
0.0
 40
0.0
 40
0.0
 40
0.0909090909090909
 40
0.0909090909090909
 40
0.0909090909090909
 40
0.0909090909090909
 40
0.1818181818181818
 40
0.1818181818181818
 40
0.1818181818181818
 40
0.1818181818181818
 40
0.2727272727272727
 40
0.2727272727272727
 40
0.2727272727272727
 40
0.2727272727272727
 40
0.3636363636363636
 40
0.3636363636363636
 40
0.3636363636363636
 40
0.3636363636363636
 40
0.4545454545454545
 40
0.4545454545454545
 40
0.4545454545454545
 40
0.4545454545454545
 40
0.5454545454545454
 40
0.5454545454545454
 40
0.5454545454545454
 40
0.5454545454545454
 40
0.6363636363636364
 40
0.6363636363636364
 40
0.6363636363636364
 40
0.6363636363636364
 40
0.7272727272727273
 40
0.7272727272727273
 40
0.7272727272727273
 40
0.7272727272727273
 40
0.8181818181818182
 40
0.8181818181818182
 40
0.8181818181818182
 40
0.8181818181818182
 40
1.0
 40
1.0
 40
1.0
 40
1.0
 10
-1.64234
 20
6.42044
 30
0.0
 10
-1.64234
 20
6.42044
 30
0.0
 10
-1.64234
 20
6.7009
 30
0.0
 10
-1.64234
 20
6.7009
 30
0.0
 10
-1.64234
 20
6.7009
 30
0.0
 10
-1.64234
 20
6.7009
 30
0.0
 10
-1.59154
 20
6.7009
 30
0.0
 10
-1.59154
 20
6.7009
 30
0.0
 10
-1.59154
 20
6.7009
 30
0.0
 10
-1.59154
 20
6.7009
 30
0.0
 10
-1.59154
 20
6.64789
 30
0.0
 10
-1.59154
 20
6.64789
 30
0.0
 10
-1.59154
 20
6.64789
 30
0.0
 10
-1.57134
 20
6.68714
 30
0.0
 10
-1.54206
 20
6.70672
 30
0.0
 10
-1.50361
 20
6.70672
 30
0.0
 10
-1.50361
 20
6.70672
 30
0.0
 10
-1.49841
 20
6.70672
 30
0.0
 10
-1.49294
 20
6.70628
 30
0.0
 10
-1.48729
 20
6.7054
 30
0.0
 10
-1.48729
 20
6.7054
 30
0.0
 10
-1.48729
 20
6.7054
 30
0.0
 10
-1.48729
 20
6.65786
 30
0.0
 10
-1.48729
 20
6.65786
 30
0.0
 10
-1.48729
 20
6.65786
 30
0.0
 10
-1.49611
 20
6.66077
 30
0.0
 10
-1.50387
 20
6.66227
 30
0.0
 10
-1.51058
 20
6.66227
 30
0.0
 10
-1.51058
 20
6.66227
 30
0.0
 10
-1.54286
 20
6.66227
 30
0.0
 10
-1.56984
 20
6.64322
 30
0.0
 10
-1.59154
 20
6.60503
 30
0.0
 10
-1.59154
 20
6.60503
 30
0.0
 10
-1.59154
 20
6.60503
 30
0.0
 10
-1.59154
 20
6.42044
 30
0.0
 10
-1.59154
 20
6.42044
 30
0.0
 10
-1.59154
 20
6.42044
 30
0.0
 10
-1.59154
 20
6.42044
 30
0.0
 10
-1.64234
 20
6.42044
 30
0.0
 10
-1.64234
 20
6.42044
 30
0.0
  0
SPLINE
  5
45
330
1F
100
AcDbEntity
  8
Layer 1
100
AcDbSpline
210
0.0
220
0.0
230
1.0
 70
    11
 71
     3
 72
    48
 73
    44
 74
     0
 42
0.0000000001
 43
0.0000000001
 12
1.0
 22
0.0
 32
0.0
 13
1.0
 23
0.0
 33
0.0
 40
0.0
 40
0.0
 40
0.0
 40
0.0
 40
0.0833333333333333
 40
0.0833333333333333
 40
0.0833333333333333
 40
0.0833333333333333
 40
0.1666666666666667
 40
0.1666666666666667
 40
0.1666666666666667
 40
0.1666666666666667
 40
0.25
 40
0.25
 40
0.25
 40
0.25
 40
0.3333333333333333
 40
0.3333333333333333
 40
0.3333333333333333
 40
0.3333333333333333
 40
0.4166666666666667
 40
0.4166666666666667
 40
0.4166666666666667
 40
0.4166666666666667
 40
0.5
 40
0.5
 40
0.5
 40
0.5
 40
0.5833333333333334
 40
0.5833333333333334
 40
0.5833333333333334
 40
0.5833333333333334
 40
0.6666666666666666
 40
0.6666666666666666
 40
0.6666666666666666
 40
0.6666666666666666
 40
0.75
 40
0.75
 40
0.75
 40
0.75
 40
0.8333333333333334
 40
0.8333333333333334
 40
0.8333333333333334
 40
0.8333333333333334
 40
1.0
 40
1.0
 40
1.0
 40
1.0
 10
-1.24537
 20
6.42044
 30
0.0
 10
-1.24537
 20
6.42044
 30
0.0
 10
-1.24537
 20
6.47309
 30
0.0
 10
-1.24537
 20
6.47309
 30
0.0
 10
-1.24537
 20
6.47309
 30
0.0
 10
-1.2661
 20
6.43376
 30
0.0
 10
-1.29732
 20
6.41409
 30
0.0
 10
-1.33904
 20
6.41409
 30
0.0
 10
-1.33904
 20
6.41409
 30
0.0
 10
-1.3729
 20
6.41409
 30
0.0
 10
-1.39954
 20
6.42635
 30
0.0
 10
-1.41894
 20
6.45096
 30
0.0
 10
-1.41894
 20
6.45096
 30
0.0
 10
-1.43834
 20
6.47556
 30
0.0
 10
-1.44804
 20
6.50916
 30
0.0
 10
-1.44804
 20
6.55176
 30
0.0
 10
-1.44804
 20
6.55176
 30
0.0
 10
-1.44804
 20
6.59833
 30
0.0
 10
-1.43702
 20
6.63581
 30
0.0
 10
-1.41506
 20
6.66421
 30
0.0
 10
-1.41506
 20
6.66421
 30
0.0
 10
-1.39301
 20
6.69252
 30
0.0
 10
-1.36408
 20
6.70672
 30
0.0
 10
-1.32819
 20
6.70672
 30
0.0
 10
-1.32819
 20
6.70672
 30
0.0
 10
-1.29494
 20
6.70672
 30
0.0
 10
-1.26725
 20
6.69402
 30
0.0
 10
-1.24537
 20
6.66853
 30
0.0
 10
-1.24537
 20
6.66853
 30
0.0
 10
-1.24537
 20
6.66853
 30
0.0
 10
-1.24537
 20
6.82843
 30
0.0
 10
-1.24537
 20
6.82843
 30
0.0
 10
-1.24537
 20
6.82843
 30
0.0
 10
-1.24537
 20
6.82843
 30
0.0
 10
-1.19457
 20
6.82843
 30
0.0
 10
-1.19457
 20
6.82843
 30
0.0
 10
-1.19457
 20
6.82843
 30
0.0
 10
-1.19457
 20
6.82843
 30
0.0
 10
-1.19457
 20
6.42044
 30
0.0
 10
-1.19457
 20
6.42044
 30
0.0
 10
-1.19457
 20
6.42044
 30
0.0
 10
-1.19457
 20
6.42044
 30
0.0
 10
-1.24537
 20
6.42044
 30
0.0
 10
-1.24537
 20
6.42044
 30
0.0
  0
SPLINE
  5
46
330
1F
100
AcDbEntity
  8
Layer 1
100
AcDbSpline
210
0.0
220
0.0
230
1.0
 70
    11
 71
     3
 72
    28
 73
    24
 74
     0
 42
0.0000000001
 43
0.0000000001
 12
1.0
 22
0.0
 32
0.0
 13
1.0
 23
0.0
 33
0.0
 40
0.0
 40
0.0
 40
0.0
 40
0.0
 40
0.1428571428571428
 40
0.1428571428571428
 40
0.1428571428571428
 40
0.1428571428571428
 40
0.2857142857142857
 40
0.2857142857142857
 40
0.2857142857142857
 40
0.2857142857142857
 40
0.4285714285714285
 40
0.4285714285714285
 40
0.4285714285714285
 40
0.4285714285714285
 40
0.5714285714285714
 40
0.5714285714285714
 40
0.5714285714285714
 40
0.5714285714285714
 40
0.7142857142857143
 40
0.7142857142857143
 40
0.7142857142857143
 40
0.7142857142857143
 40
1.0
 40
1.0
 40
1.0
 40
1.0
 10
-1.24537
 20
6.63378
 30
0.0
 10
-1.27174
 20
6.65698
 30
0.0
 10
-1.2967
 20
6.66862
 30
0.0
 10
-1.32034
 20
6.66862
 30
0.0
 10
-1.32034
 20
6.66862
 30
0.0
 10
-1.34362
 20
6.66862
 30
0.0
 10
-1.36161
 20
6.65892
 30
0.0
 10
-1.3744
 20
6.63943
 30
0.0
 10
-1.3744
 20
6.63943
 30
0.0
 10
-1.38719
 20
6.62003
 30
0.0
 10
-1.39354
 20
6.59251
 30
0.0
 10
-1.39354
 20
6.55688
 30
0.0
 10
-1.39354
 20
6.55688
 30
0.0
 10
-1.39354
 20
6.49135
 30
0.0
 10
-1.37184
 20
6.45854
 30
0.0
 10
-1.32836
 20
6.45854
 30
0.0
 10
-1.32836
 20
6.45854
 30
0.0
 10
-1.30014
 20
6.45854
 30
0.0
 10
-1.27245
 20
6.47397
 30
0.0
 10
-1.24537
 20
6.50475
 30
0.0
 10
-1.24537
 20
6.50475
 30
0.0
 10
-1.24537
 20
6.50475
 30
0.0
 10
-1.24537
 20
6.63378
 30
0.0
 10
-1.24537
 20
6.63378
 30
0.0
  0
SPLINE
  5
47
330
1F
100
AcDbEntity
  8
Layer 1
100
AcDbSpline
210
0.0
220
0.0
230
1.0
 70
    11
 71
     3
 72
    56
 73
    52
 74
     0
 42
0.0000000001
 43
0.0000000001
 12
1.0
 22
0.0
 32
0.0
 13
1.0
 23
0.0
 33
0.0
 40
0.0
 40
0.0
 40
0.0
 40
0.0
 40
0.0714285714285714
 40
0.0714285714285714
 40
0.0714285714285714
 40
0.0714285714285714
 40
0.1428571428571428
 40
0.1428571428571428
 40
0.1428571428571428
 40
0.1428571428571428
 40
0.2142857142857143
 40
0.2142857142857143
 40
0.2142857142857143
 40
0.2142857142857143
 40
0.2857142857142857
 40
0.2857142857142857
 40
0.2857142857142857
 40
0.2857142857142857
 40
0.3571428571428572
 40
0.3571428571428572
 40
0.3571428571428572
 40
0.3571428571428572
 40
0.4285714285714285
 40
0.4285714285714285
 40
0.4285714285714285
 40
0.4285714285714285
 40
0.5
 40
0.5
 40
0.5
 40
0.5
 40
0.5714285714285714
 40
0.5714285714285714
 40
0.5714285714285714
 40
0.5714285714285714
 40
0.6428571428571429
 40
0.6428571428571429
 40
0.6428571428571429
 40
0.6428571428571429
 40
0.7142857142857143
 40
0.7142857142857143
 40
0.7142857142857143
 40
0.7142857142857143
 40
0.7857142857142857
 40
0.7857142857142857
 40
0.7857142857142857
 40
0.7857142857142857
 40
0.8571428571428571
 40
0.8571428571428571
 40
0.8571428571428571
 40
0.8571428571428571
 40
1.0
 40
1.0
 40
1.0
 40
1.0
 10
-1.05999
 20
6.42044
 30
0.0
 10
-1.05999
 20
6.42044
 30
0.0
 10
-1.14042
 20
6.7009
 30
0.0
 10
-1.14042
 20
6.7009
 30
0.0
 10
-1.14042
 20
6.7009
 30
0.0
 10
-1.14042
 20
6.7009
 30
0.0
 10
-1.09086
 20
6.7009
 30
0.0
 10
-1.09086
 20
6.7009
 30
0.0
 10
-1.09086
 20
6.7009
 30
0.0
 10
-1.09086
 20
6.7009
 30
0.0
 10
-1.02921
 20
6.48315
 30
0.0
 10
-1.02921
 20
6.48315
 30
0.0
 10
-1.02921
 20
6.48315
 30
0.0
 10
-1.02921
 20
6.48315
 30
0.0
 10
-0.96271
 20
6.7009
 30
0.0
 10
-0.96271
 20
6.7009
 30
0.0
 10
-0.96271
 20
6.7009
 30
0.0
 10
-0.96271
 20
6.7009
 30
0.0
 10
-0.91191
 20
6.7009
 30
0.0
 10
-0.91191
 20
6.7009
 30
0.0
 10
-0.91191
 20
6.7009
 30
0.0
 10
-0.91191
 20
6.7009
 30
0.0
 10
-0.85344
 20
6.4835
 30
0.0
 10
-0.85344
 20
6.4835
 30
0.0
 10
-0.85344
 20
6.4835
 30
0.0
 10
-0.85344
 20
6.4835
 30
0.0
 10
-0.78271
 20
6.7009
 30
0.0
 10
-0.78271
 20
6.7009
 30
0.0
 10
-0.78271
 20
6.7009
 30
0.0
 10
-0.78271
 20
6.7009
 30
0.0
 10
-0.73931
 20
6.7009
 30
0.0
 10
-0.73931
 20
6.7009
 30
0.0
 10
-0.73931
 20
6.7009
 30
0.0
 10
-0.73931
 20
6.7009
 30
0.0
 10
-0.83086
 20
6.42044
 30
0.0
 10
-0.83086
 20
6.42044
 30
0.0
 10
-0.83086
 20
6.42044
 30
0.0
 10
-0.83086
 20
6.42044
 30
0.0
 10
-0.88166
 20
6.42044
 30
0.0
 10
-0.88166
 20
6.42044
 30
0.0
 10
-0.88166
 20
6.42044
 30
0.0
 10
-0.88166
 20
6.42044
 30
0.0
 10
-0.94181
 20
6.63916
 30
0.0
 10
-0.94181
 20
6.63916
 30
0.0
 10
-0.94181
 20
6.63916
 30
0.0
 10
-0.94181
 20
6.63916
 30
0.0
 10
-1.00919
 20
6.42044
 30
0.0
 10
-1.00919
 20
6.42044
 30
0.0
 10
-1.00919
 20
6.42044
 30
0.0
 10
-1.00919
 20
6.42044
 30
0.0
 10
-1.05999
 20
6.42044
 30
0.0
 10
-1.05999
 20
6.42044
 30
0.0
  0
SPLINE
  5
48
330
1F
100
AcDbEntity
  8
Layer 1
100
AcDbSpline
210
0.0
220
0.0
230
1.0
 70
    11
 71
     3
 72
    80
 73
    76
 74
     0
 42
0.0000000001
 43
0.0000000001
 12
1.0
 22
0.0
 32
0.0
 13
1.0
 23
0.0
 33
0.0
 40
0.0
 40
0.0
 40
0.0
 40
0.0
 40
0.05
 40
0.05
 40
0.05
 40
0.05
 40
0.1
 40
0.1
 40
0.1
 40
0.1
 40
0.15
 40
0.15
 40
0.15
 40
0.15
 40
0.2
 40
0.2
 40
0.2
 40
0.2
 40
0.25
 40
0.25
 40
0.25
 40
0.25
 40
0.3
 40
0.3
 40
0.3
 40
0.3
 40
0.35
 40
0.35
 40
0.35
 40
0.35
 40
0.4
 40
0.4
 40
0.4
 40
0.4
 40
0.45
 40
0.45
 40
0.45
 40
0.45
 40
0.5
 40
0.5
 40
0.5
 40
0.5
 40
0.55
 40
0.55
 40
0.55
 40
0.55
 40
0.6
 40
0.6
 40
0.6
 40
0.6
 40
0.65
 40
0.65
 40
0.65
 40
0.65
 40
0.7
 40
0.7
 40
0.7
 40
0.7
 40
0.75
 40
0.75
 40
0.75
 40
0.75
 40
0.8
 40
0.8
 40
0.8
 40
0.8
 40
0.85
 40
0.85
 40
0.85
 40
0.85
 40
0.9
 40
0.9
 40
0.9
 40
0.9
 40
1.0
 40
1.0
 40
1.0
 40
1.0
 10
-0.54052
 20
6.45616
 30
0.0
 10
-0.57103
 20
6.42811
 30
0.0
 10
-0.6004
 20
6.41409
 30
0.0
 10
-0.62862
 20
6.41409
 30
0.0
 10
-0.62862
 20
6.41409
 30
0.0
 10
-0.65182
 20
6.41409
 30
0.0
 10
-0.67113
 20
6.42132
 30
0.0
 10
-0.68639
 20
6.43587
 30
0.0
 10
-0.68639
 20
6.43587
 30
0.0
 10
-0.70174
 20
6.45043
 30
0.0
 10
-0.70941
 20
6.46877
 30
0.0
 10
-0.70941
 20
6.49091
 30
0.0
 10
-0.70941
 20
6.49091
 30
0.0
 10
-0.70941
 20
6.52151
 30
0.0
 10
-0.69654
 20
6.54506
 30
0.0
 10
-0.67078
 20
6.56146
 30
0.0
 10
-0.67078
 20
6.56146
 30
0.0
 10
-0.64503
 20
6.57787
 30
0.0
 10
-0.60808
 20
6.58607
 30
0.0
 10
-0.55992
 20
6.58607
 30
0.0
 10
-0.55992
 20
6.58607
 30
0.0
 10
-0.55992
 20
6.58607
 30
0.0
 10
-0.54801
 20
6.58607
 30
0.0
 10
-0.54801
 20
6.58607
 30
0.0
 10
-0.54801
 20
6.58607
 30
0.0
 10
-0.54801
 20
6.58607
 30
0.0
 10
-0.54801
 20
6.61985
 30
0.0
 10
-0.54801
 20
6.61985
 30
0.0
 10
-0.54801
 20
6.61985
 30
0.0
 10
-0.54801
 20
6.65239
 30
0.0
 10
-0.56495
 20
6.66862
 30
0.0
 10
-0.5989
 20
6.66862
 30
0.0
 10
-0.5989
 20
6.66862
 30
0.0
 10
-0.62519
 20
6.66862
 30
0.0
 10
-0.65394
 20
6.66033
 30
0.0
 10
-0.68507
 20
6.64375
 30
0.0
 10
-0.68507
 20
6.64375
 30
0.0
 10
-0.68507
 20
6.64375
 30
0.0
 10
-0.68507
 20
6.68555
 30
0.0
 10
-0.68507
 20
6.68555
 30
0.0
 10
-0.68507
 20
6.68555
 30
0.0
 10
-0.65085
 20
6.69967
 30
0.0
 10
-0.61857
 20
6.70672
 30
0.0
 10
-0.58832
 20
6.70672
 30
0.0
 10
-0.58832
 20
6.70672
 30
0.0
 10
-0.55719
 20
6.70672
 30
0.0
 10
-0.53417
 20
6.69967
 30
0.0
 10
-0.51944
 20
6.68547
 30
0.0
 10
-0.51944
 20
6.68547
 30
0.0
 10
-0.50462
 20
6.67127
 30
0.0
 10
-0.49721
 20
6.64939
 30
0.0
 10
-0.49721
 20
6.61985
 30
0.0
 10
-0.49721
 20
6.61985
 30
0.0
 10
-0.49721
 20
6.61985
 30
0.0
 10
-0.49721
 20
6.49311
 30
0.0
 10
-0.49721
 20
6.49311
 30
0.0
 10
-0.49721
 20
6.49311
 30
0.0
 10
-0.49721
 20
6.4641
 30
0.0
 10
-0.48831
 20
6.44954
 30
0.0
 10
-0.4704
 20
6.44954
 30
0.0
 10
-0.4704
 20
6.44954
 30
0.0
 10
-0.4682
 20
6.44954
 30
0.0
 10
-0.46493
 20
6.4499
 30
0.0
 10
-0.46061
 20
6.4506
 30
0.0
 10
-0.46061
 20
6.4506
 30
0.0
 10
-0.46061
 20
6.4506
 30
0.0
 10
-0.457
 20
6.42238
 30
0.0
 10
-0.457
 20
6.42238
 30
0.0
 10
-0.457
 20
6.42238
 30
0.0
 10
-0.46855
 20
6.41682
 30
0.0
 10
-0.48125
 20
6.41409
 30
0.0
 10
-0.49519
 20
6.41409
 30
0.0
 10
-0.49519
 20
6.41409
 30
0.0
 10
-0.51891
 20
6.41409
 30
0.0
 10
-0.53399
 20
6.42811
 30
0.0
 10
-0.54052
 20
6.45616
 30
0.0
  0
SPLINE
  5
49
330
1F
100
AcDbEntity
  8
Layer 1
100
AcDbSpline
210
0.0
220
0.0
230
1.0
 70
    11
 71
     3
 72
    32
 73
    28
 74
     0
 42
0.0000000001
 43
0.0000000001
 12
1.0
 22
0.0
 32
0.0
 13
1.0
 23
0.0
 33
0.0
 40
0.0
 40
0.0
 40
0.0
 40
0.0
 40
0.125
 40
0.125
 40
0.125
 40
0.125
 40
0.25
 40
0.25
 40
0.25
 40
0.25
 40
0.375
 40
0.375
 40
0.375
 40
0.375
 40
0.5
 40
0.5
 40
0.5
 40
0.5
 40
0.625
 40
0.625
 40
0.625
 40
0.625
 40
0.75
 40
0.75
 40
0.75
 40
0.75
 40
1.0
 40
1.0
 40
1.0
 40
1.0
 10
-0.54801
 20
6.48385
 30
0.0
 10
-0.54801
 20
6.48385
 30
0.0
 10
-0.54801
 20
6.55591
 30
0.0
 10
-0.54801
 20
6.55591
 30
0.0
 10
-0.54801
 20
6.55591
 30
0.0
 10
-0.54801
 20
6.55591
 30
0.0
 10
-0.56433
 20
6.55644
 30
0.0
 10
-0.56433
 20
6.55644
 30
0.0
 10
-0.56433
 20
6.55644
 30
0.0
 10
-0.59255
 20
6.55644
 30
0.0
 10
-0.61531
 20
6.55123
 30
0.0
 10
-0.63268
 20
6.54083
 30
0.0
 10
-0.63268
 20
6.54083
 30
0.0
 10
-0.64997
 20
6.53033
 30
0.0
 10
-0.65861
 20
6.51648
 30
0.0
 10
-0.65861
 20
6.4992
 30
0.0
 10
-0.65861
 20
6.4992
 30
0.0
 10
-0.65861
 20
6.48712
 30
0.0
 10
-0.65429
 20
6.47688
 30
0.0
 10
-0.64573
 20
6.46851
 30
0.0
 10
-0.64573
 20
6.46851
 30
0.0
 10
-0.63709
 20
6.46013
 30
0.0
 10
-0.6266
 20
6.45589
 30
0.0
 10
-0.61416
 20
6.45589
 30
0.0
 10
-0.61416
 20
6.45589
 30
0.0
 10
-0.59299
 20
6.45589
 30
0.0
 10
-0.57095
 20
6.46524
 30
0.0
 10
-0.54801
 20
6.48385
 30
0.0
  0
SPLINE
  5
4A
330
1F
100
AcDbEntity
  8
Layer 1
100
AcDbSpline
210
0.0
220
0.0
230
1.0
 70
    11
 71
     3
 72
    44
 73
    40
 74
     0
 42
0.0000000001
 43
0.0000000001
 12
1.0
 22
0.0
 32
0.0
 13
1.0
 23
0.0
 33
0.0
 40
0.0
 40
0.0
 40
0.0
 40
0.0
 40
0.0909090909090909
 40
0.0909090909090909
 40
0.0909090909090909
 40
0.0909090909090909
 40
0.1818181818181818
 40
0.1818181818181818
 40
0.1818181818181818
 40
0.1818181818181818
 40
0.2727272727272727
 40
0.2727272727272727
 40
0.2727272727272727
 40
0.2727272727272727
 40
0.3636363636363636
 40
0.3636363636363636
 40
0.3636363636363636
 40
0.3636363636363636
 40
0.4545454545454545
 40
0.4545454545454545
 40
0.4545454545454545
 40
0.4545454545454545
 40
0.5454545454545454
 40
0.5454545454545454
 40
0.5454545454545454
 40
0.5454545454545454
 40
0.6363636363636364
 40
0.6363636363636364
 40
0.6363636363636364
 40
0.6363636363636364
 40
0.7272727272727273
 40
0.7272727272727273
 40
0.7272727272727273
 40
0.7272727272727273
 40
0.8181818181818182
 40
0.8181818181818182
 40
0.8181818181818182
 40
0.8181818181818182
 40
1.0
 40
1.0
 40
1.0
 40
1.0
 10
-0.39288
 20
6.42044
 30
0.0
 10
-0.39288
 20
6.42044
 30
0.0
 10
-0.39288
 20
6.7009
 30
0.0
 10
-0.39288
 20
6.7009
 30
0.0
 10
-0.39288
 20
6.7009
 30
0.0
 10
-0.39288
 20
6.7009
 30
0.0
 10
-0.34208
 20
6.7009
 30
0.0
 10
-0.34208
 20
6.7009
 30
0.0
 10
-0.34208
 20
6.7009
 30
0.0
 10
-0.34208
 20
6.7009
 30
0.0
 10
-0.34208
 20
6.64789
 30
0.0
 10
-0.34208
 20
6.64789
 30
0.0
 10
-0.34208
 20
6.64789
 30
0.0
 10
-0.32188
 20
6.68714
 30
0.0
 10
-0.2926
 20
6.70672
 30
0.0
 10
-0.25415
 20
6.70672
 30
0.0
 10
-0.25415
 20
6.70672
 30
0.0
 10
-0.24895
 20
6.70672
 30
0.0
 10
-0.24348
 20
6.70628
 30
0.0
 10
-0.23783
 20
6.7054
 30
0.0
 10
-0.23783
 20
6.7054
 30
0.0
 10
-0.23783
 20
6.7054
 30
0.0
 10
-0.23783
 20
6.65786
 30
0.0
 10
-0.23783
 20
6.65786
 30
0.0
 10
-0.23783
 20
6.65786
 30
0.0
 10
-0.24665
 20
6.66077
 30
0.0
 10
-0.25441
 20
6.66227
 30
0.0
 10
-0.26112
 20
6.66227
 30
0.0
 10
-0.26112
 20
6.66227
 30
0.0
 10
-0.2934
 20
6.66227
 30
0.0
 10
-0.32038
 20
6.64322
 30
0.0
 10
-0.34208
 20
6.60503
 30
0.0
 10
-0.34208
 20
6.60503
 30
0.0
 10
-0.34208
 20
6.60503
 30
0.0
 10
-0.34208
 20
6.42044
 30
0.0
 10
-0.34208
 20
6.42044
 30
0.0
 10
-0.34208
 20
6.42044
 30
0.0
 10
-0.34208
 20
6.42044
 30
0.0
 10
-0.39288
 20
6.42044
 30
0.0
 10
-0.39288
 20
6.42044
 30
0.0
  0
SPLINE
  5
4B
330
1F
100
AcDbEntity
  8
Layer 1
100
AcDbSpline
210
0.0
220
0.0
230
1.0
 70
    11
 71
     3
 72
    52
 73
    48
 74
     0
 42
0.0000000001
 43
0.0000000001
 12
1.0
 22
0.0
 32
0.0
 13
1.0
 23
0.0
 33
0.0
 40
0.0
 40
0.0
 40
0.0
 40
0.0
 40
0.0769230769230769
 40
0.0769230769230769
 40
0.0769230769230769
 40
0.0769230769230769
 40
0.1538461538461539
 40
0.1538461538461539
 40
0.1538461538461539
 40
0.1538461538461539
 40
0.2307692307692308
 40
0.2307692307692308
 40
0.2307692307692308
 40
0.2307692307692308
 40
0.3076923076923077
 40
0.3076923076923077
 40
0.3076923076923077
 40
0.3076923076923077
 40
0.3846153846153846
 40
0.3846153846153846
 40
0.3846153846153846
 40
0.3846153846153846
 40
0.4615384615384616
 40
0.4615384615384616
 40
0.4615384615384616
 40
0.4615384615384616
 40
0.5384615384615384
 40
0.5384615384615384
 40
0.5384615384615384
 40
0.5384615384615384
 40
0.6153846153846154
 40
0.6153846153846154
 40
0.6153846153846154
 40
0.6153846153846154
 40
0.6923076923076923
 40
0.6923076923076923
 40
0.6923076923076923
 40
0.6923076923076923
 40
0.7692307692307693
 40
0.7692307692307693
 40
0.7692307692307693
 40
0.7692307692307693
 40
0.8461538461538461
 40
0.8461538461538461
 40
0.8461538461538461
 40
0.8461538461538461
 40
1.0
 40
1.0
 40
1.0
 40
1.0
 10
0.02949
 20
6.42944
 30
0.0
 10
-0.00464
 20
6.41921
 30
0.0
 10
-0.03384
 20
6.41409
 30
0.0
 10
-0.05818
 20
6.41409
 30
0.0
 10
-0.05818
 20
6.41409
 30
0.0
 10
-0.09972
 20
6.41409
 30
0.0
 10
-0.1335
 20
6.42785
 30
0.0
 10
-0.15951
 20
6.45528
 30
0.0
 10
-0.15951
 20
6.45528
 30
0.0
 10
-0.18553
 20
6.48271
 30
0.0
 10
-0.19858
 20
6.51825
 30
0.0
 10
-0.19858
 20
6.56199
 30
0.0
 10
-0.19858
 20
6.56199
 30
0.0
 10
-0.19858
 20
6.60441
 30
0.0
 10
-0.18712
 20
6.63925
 30
0.0
 10
-0.1641
 20
6.6665
 30
0.0
 10
-0.1641
 20
6.6665
 30
0.0
 10
-0.14108
 20
6.69367
 30
0.0
 10
-0.11162
 20
6.70725
 30
0.0
 10
-0.07573
 20
6.70725
 30
0.0
 10
-0.07573
 20
6.70725
 30
0.0
 10
-0.04177
 20
6.70725
 30
0.0
 10
-0.01549
 20
6.69517
 30
0.0
 10
0.00303
 20
6.671
 30
0.0
 10
0.00303
 20
6.671
 30
0.0
 10
0.02155
 20
6.64684
 30
0.0
 10
0.03081
 20
6.61262
 30
0.0
 10
0.03081
 20
6.56825
 30
0.0
 10
0.03081
 20
6.56825
 30
0.0
 10
0.03081
 20
6.56825
 30
0.0
 10
0.03055
 20
6.55273
 30
0.0
 10
0.03055
 20
6.55273
 30
0.0
 10
0.03055
 20
6.55273
 30
0.0
 10
0.03055
 20
6.55273
 30
0.0
 10
-0.14673
 20
6.55273
 30
0.0
 10
-0.14673
 20
6.55273
 30
0.0
 10
-0.14673
 20
6.55273
 30
0.0
 10
-0.13932
 20
6.4857
 30
0.0
 10
-0.1066
 20
6.45219
 30
0.0
 10
-0.04865
 20
6.45219
 30
0.0
 10
-0.04865
 20
6.45219
 30
0.0
 10
-0.0274
 20
6.45219
 30
0.0
 10
-0.00138
 20
6.45819
 30
0.0
 10
0.02949
 20
6.47018
 30
0.0
 10
0.02949
 20
6.47018
 30
0.0
 10
0.02949
 20
6.47018
 30
0.0
 10
0.02949
 20
6.42944
 30
0.0
 10
0.02949
 20
6.42944
 30
0.0
  0
SPLINE
  5
4C
330
1F
100
AcDbEntity
  8
Layer 1
100
AcDbSpline
210
0.0
220
0.0
230
1.0
 70
    11
 71
     3
 72
    16
 73
    12
 74
     0
 42
0.0000000001
 43
0.0000000001
 12
1.0
 22
0.0
 32
0.0
 13
1.0
 23
0.0
 33
0.0
 40
0.0
 40
0.0
 40
0.0
 40
0.0
 40
0.25
 40
0.25
 40
0.25
 40
0.25
 40
0.5
 40
0.5
 40
0.5
 40
0.5
 40
1.0
 40
1.0
 40
1.0
 40
1.0
 10
-0.14408
 20
6.59083
 30
0.0
 10
-0.14408
 20
6.59083
 30
0.0
 10
-0.02025
 20
6.59083
 30
0.0
 10
-0.02025
 20
6.59083
 30
0.0
 10
-0.02025
 20
6.59083
 30
0.0
 10
-0.02025
 20
6.64304
 30
0.0
 10
-0.03975
 20
6.66915
 30
0.0
 10
-0.07864
 20
6.66915
 30
0.0
 10
-0.07864
 20
6.66915
 30
0.0
 10
-0.1178
 20
6.66915
 30
0.0
 10
-0.13958
 20
6.64304
 30
0.0
 10
-0.14408
 20
6.59083
 30
0.0
  0
SPLINE
  5
4D
330
1F
100
AcDbEntity
  8
Layer 1
100
AcDbSpline
210
0.0
220
0.0
230
1.0
 70
    11
 71
     3
 72
    20
 73
    16
 74
     0
 42
0.0000000001
 43
0.0000000001
 12
1.0
 22
0.0
 32
0.0
 13
1.0
 23
0.0
 33
0.0
 40
0.0
 40
0.0
 40
0.0
 40
0.0
 40
0.2
 40
0.2
 40
0.2
 40
0.2
 40
0.4
 40
0.4
 40
0.4
 40
0.4
 40
0.6
 40
0.6
 40
0.6
 40
0.6
 40
1.0
 40
1.0
 40
1.0
 40
1.0
 10
0.08991
 20
6.38234
 30
0.0
 10
0.08991
 20
6.38234
 30
0.0
 10
0.08991
 20
6.42044
 30
0.0
 10
0.08991
 20
6.42044
 30
0.0
 10
0.08991
 20
6.42044
 30
0.0
 10
0.08991
 20
6.42044
 30
0.0
 10
0.31004
 20
6.42044
 30
0.0
 10
0.31004
 20
6.42044
 30
0.0
 10
0.31004
 20
6.42044
 30
0.0
 10
0.31004
 20
6.42044
 30
0.0
 10
0.31004
 20
6.38234
 30
0.0
 10
0.31004
 20
6.38234
 30
0.0
 10
0.31004
 20
6.38234
 30
0.0
 10
0.31004
 20
6.38234
 30
0.0
 10
0.08991
 20
6.38234
 30
0.0
 10
0.08991
 20
6.38234
 30
0.0
  0
SPLINE
  5
4E
330
1F
100
AcDbEntity
  8
Layer 1
100
AcDbSpline
210
0.0
220
0.0
230
1.0
 70
    11
 71
     3
 72
    60
 73
    56
 74
     0
 42
0.0000000001
 43
0.0000000001
 12
1.0
 22
0.0
 32
0.0
 13
1.0
 23
0.0
 33
0.0
 40
0.0
 40
0.0
 40
0.0
 40
0.0
 40
0.0666666666666667
 40
0.0666666666666667
 40
0.0666666666666667
 40
0.0666666666666667
 40
0.1333333333333333
 40
0.1333333333333333
 40
0.1333333333333333
 40
0.1333333333333333
 40
0.2
 40
0.2
 40
0.2
 40
0.2
 40
0.2666666666666667
 40
0.2666666666666667
 40
0.2666666666666667
 40
0.2666666666666667
 40
0.3333333333333333
 40
0.3333333333333333
 40
0.3333333333333333
 40
0.3333333333333333
 40
0.4
 40
0.4
 40
0.4
 40
0.4
 40
0.4666666666666667
 40
0.4666666666666667
 40
0.4666666666666667
 40
0.4666666666666667
 40
0.5333333333333333
 40
0.5333333333333333
 40
0.5333333333333333
 40
0.5333333333333333
 40
0.6
 40
0.6
 40
0.6
 40
0.6
 40
0.6666666666666666
 40
0.6666666666666666
 40
0.6666666666666666
 40
0.6666666666666666
 40
0.7333333333333333
 40
0.7333333333333333
 40
0.7333333333333333
 40
0.7333333333333333
 40
0.8
 40
0.8
 40
0.8
 40
0.8
 40
0.8666666666666667
 40
0.8666666666666667
 40
0.8666666666666667
 40
0.8666666666666667
 40
1.0
 40
1.0
 40
1.0
 40
1.0
 10
0.38307
 20
6.42044
 30
0.0
 10
0.38307
 20
6.42044
 30
0.0
 10
0.38307
 20
6.7009
 30
0.0
 10
0.38307
 20
6.7009
 30
0.0
 10
0.38307
 20
6.7009
 30
0.0
 10
0.38307
 20
6.7009
 30
0.0
 10
0.43387
 20
6.7009
 30
0.0
 10
0.43387
 20
6.7009
 30
0.0
 10
0.43387
 20
6.7009
 30
0.0
 10
0.43387
 20
6.7009
 30
0.0
 10
0.43387
 20
6.64789
 30
0.0
 10
0.43387
 20
6.64789
 30
0.0
 10
0.43387
 20
6.64789
 30
0.0
 10
0.46077
 20
6.68714
 30
0.0
 10
0.49376
 20
6.70672
 30
0.0
 10
0.53274
 20
6.70672
 30
0.0
 10
0.53274
 20
6.70672
 30
0.0
 10
0.55726
 20
6.70672
 30
0.0
 10
0.57675
 20
6.69905
 30
0.0
 10
0.59112
 20
6.68361
 30
0.0
 10
0.59112
 20
6.68361
 30
0.0
 10
0.6055
 20
6.66827
 30
0.0
 10
0.61273
 20
6.64754
 30
0.0
 10
0.61273
 20
6.62161
 30
0.0
 10
0.61273
 20
6.62161
 30
0.0
 10
0.61273
 20
6.62161
 30
0.0
 10
0.61273
 20
6.42044
 30
0.0
 10
0.61273
 20
6.42044
 30
0.0
 10
0.61273
 20
6.42044
 30
0.0
 10
0.61273
 20
6.42044
 30
0.0
 10
0.56193
 20
6.42044
 30
0.0
 10
0.56193
 20
6.42044
 30
0.0
 10
0.56193
 20
6.42044
 30
0.0
 10
0.56193
 20
6.42044
 30
0.0
 10
0.56193
 20
6.60503
 30
0.0
 10
0.56193
 20
6.60503
 30
0.0
 10
0.56193
 20
6.60503
 30
0.0
 10
0.56193
 20
6.62585
 30
0.0
 10
0.55884
 20
6.64066
 30
0.0
 10
0.55276
 20
6.64948
 30
0.0
 10
0.55276
 20
6.64948
 30
0.0
 10
0.54658
 20
6.65839
 30
0.0
 10
0.53644
 20
6.6628
 30
0.0
 10
0.52224
 20
6.6628
 30
0.0
 10
0.52224
 20
6.6628
 30
0.0
 10
0.49102
 20
6.6628
 30
0.0
 10
0.46156
 20
6.64243
 30
0.0
 10
0.43387
 20
6.60168
 30
0.0
 10
0.43387
 20
6.60168
 30
0.0
 10
0.43387
 20
6.60168
 30
0.0
 10
0.43387
 20
6.42044
 30
0.0
 10
0.43387
 20
6.42044
 30
0.0
 10
0.43387
 20
6.42044
 30
0.0
 10
0.43387
 20
6.42044
 30
0.0
 10
0.38307
 20
6.42044
 30
0.0
 10
0.38307
 20
6.42044
 30
0.0
  0
SPLINE
  5
4F
330
1F
100
AcDbEntity
  8
Layer 1
100
AcDbSpline
210
0.0
220
0.0
230
1.0
 70
    11
 71
     3
 72
    60
 73
    56
 74
     0
 42
0.0000000001
 43
0.0000000001
 12
1.0
 22
0.0
 32
0.0
 13
1.0
 23
0.0
 33
0.0
 40
0.0
 40
0.0
 40
0.0
 40
0.0
 40
0.0666666666666667
 40
0.0666666666666667
 40
0.0666666666666667
 40
0.0666666666666667
 40
0.1333333333333333
 40
0.1333333333333333
 40
0.1333333333333333
 40
0.1333333333333333
 40
0.2
 40
0.2
 40
0.2
 40
0.2
 40
0.2666666666666667
 40
0.2666666666666667
 40
0.2666666666666667
 40
0.2666666666666667
 40
0.3333333333333333
 40
0.3333333333333333
 40
0.3333333333333333
 40
0.3333333333333333
 40
0.4
 40
0.4
 40
0.4
 40
0.4
 40
0.4666666666666667
 40
0.4666666666666667
 40
0.4666666666666667
 40
0.4666666666666667
 40
0.5333333333333333
 40
0.5333333333333333
 40
0.5333333333333333
 40
0.5333333333333333
 40
0.6
 40
0.6
 40
0.6
 40
0.6
 40
0.6666666666666666
 40
0.6666666666666666
 40
0.6666666666666666
 40
0.6666666666666666
 40
0.7333333333333333
 40
0.7333333333333333
 40
0.7333333333333333
 40
0.7333333333333333
 40
0.8
 40
0.8
 40
0.8
 40
0.8
 40
0.8666666666666667
 40
0.8666666666666667
 40
0.8666666666666667
 40
0.8666666666666667
 40
1.0
 40
1.0
 40
1.0
 40
1.0
 10
0.88719
 20
6.42044
 30
0.0
 10
0.88719
 20
6.42044
 30
0.0
 10
0.88719
 20
6.47318
 30
0.0
 10
0.88719
 20
6.47318
 30
0.0
 10
0.88719
 20
6.47318
 30
0.0
 10
0.86012
 20
6.43376
 30
0.0
 10
0.82722
 20
6.41409
 30
0.0
 10
0.78859
 20
6.41409
 30
0.0
 10
0.78859
 20
6.41409
 30
0.0
 10
0.76407
 20
6.41409
 30
0.0
 10
0.74458
 20
6.42176
 30
0.0
 10
0.73012
 20
6.4372
 30
0.0
 10
0.73012
 20
6.4372
 30
0.0
 10
0.71557
 20
6.45263
 30
0.0
 10
0.70834
 20
6.47336
 30
0.0
 10
0.70834
 20
6.49955
 30
0.0
 10
0.70834
 20
6.49955
 30
0.0
 10
0.70834
 20
6.49955
 30
0.0
 10
0.70834
 20
6.7009
 30
0.0
 10
0.70834
 20
6.7009
 30
0.0
 10
0.70834
 20
6.7009
 30
0.0
 10
0.70834
 20
6.7009
 30
0.0
 10
0.75914
 20
6.7009
 30
0.0
 10
0.75914
 20
6.7009
 30
0.0
 10
0.75914
 20
6.7009
 30
0.0
 10
0.75914
 20
6.7009
 30
0.0
 10
0.75914
 20
6.51613
 30
0.0
 10
0.75914
 20
6.51613
 30
0.0
 10
0.75914
 20
6.51613
 30
0.0
 10
0.75914
 20
6.49505
 30
0.0
 10
0.76222
 20
6.48015
 30
0.0
 10
0.76831
 20
6.47133
 30
0.0
 10
0.76831
 20
6.47133
 30
0.0
 10
0.77448
 20
6.46242
 30
0.0
 10
0.78471
 20
6.45801
 30
0.0
 10
0.79909
 20
6.45801
 30
0.0
 10
0.79909
 20
6.45801
 30
0.0
 10
0.83013
 20
6.45801
 30
0.0
 10
0.85959
 20
6.47838
 30
0.0
 10
0.88719
 20
6.51922
 30
0.0
 10
0.88719
 20
6.51922
 30
0.0
 10
0.88719
 20
6.51922
 30
0.0
 10
0.88719
 20
6.7009
 30
0.0
 10
0.88719
 20
6.7009
 30
0.0
 10
0.88719
 20
6.7009
 30
0.0
 10
0.88719
 20
6.7009
 30
0.0
 10
0.938
 20
6.7009
 30
0.0
 10
0.938
 20
6.7009
 30
0.0
 10
0.938
 20
6.7009
 30
0.0
 10
0.938
 20
6.7009
 30
0.0
 10
0.938
 20
6.42044
 30
0.0
 10
0.938
 20
6.42044
 30
0.0
 10
0.938
 20
6.42044
 30
0.0
 10
0.938
 20
6.42044
 30
0.0
 10
0.88719
 20
6.42044
 30
0.0
 10
0.88719
 20
6.42044
 30
0.0
  0
SPLINE
  5
50
330
1F
100
AcDbEntity
  8
Layer 1
100
AcDbSpline
210
0.0
220
0.0
230
1.0
 70
    11
 71
     3
 72
    72
 73
    68
 74
     0
 42
0.0000000001
 43
0.0000000001
 12
1.0
 22
0.0
 32
0.0
 13
1.0
 23
0.0
 33
0.0
 40
0.0
 40
0.0
 40
0.0
 40
0.0
 40
0.0555555555555556
 40
0.0555555555555556
 40
0.0555555555555556
 40
0.0555555555555556
 40
0.1111111111111111
 40
0.1111111111111111
 40
0.1111111111111111
 40
0.1111111111111111
 40
0.1666666666666667
 40
0.1666666666666667
 40
0.1666666666666667
 40
0.1666666666666667
 40
0.2222222222222222
 40
0.2222222222222222
 40
0.2222222222222222
 40
0.2222222222222222
 40
0.2777777777777778
 40
0.2777777777777778
 40
0.2777777777777778
 40
0.2777777777777778
 40
0.3333333333333333
 40
0.3333333333333333
 40
0.3333333333333333
 40
0.3333333333333333
 40
0.3888888888888889
 40
0.3888888888888889
 40
0.3888888888888889
 40
0.3888888888888889
 40
0.4444444444444444
 40
0.4444444444444444
 40
0.4444444444444444
 40
0.4444444444444444
 40
0.5
 40
0.5
 40
0.5
 40
0.5
 40
0.5555555555555556
 40
0.5555555555555556
 40
0.5555555555555556
 40
0.5555555555555556
 40
0.6111111111111112
 40
0.6111111111111112
 40
0.6111111111111112
 40
0.6111111111111112
 40
0.6666666666666666
 40
0.6666666666666666
 40
0.6666666666666666
 40
0.6666666666666666
 40
0.7222222222222222
 40
0.7222222222222222
 40
0.7222222222222222
 40
0.7222222222222222
 40
0.7777777777777778
 40
0.7777777777777778
 40
0.7777777777777778
 40
0.7777777777777778
 40
0.8333333333333334
 40
0.8333333333333334
 40
0.8333333333333334
 40
0.8333333333333334
 40
0.8888888888888888
 40
0.8888888888888888
 40
0.8888888888888888
 40
0.8888888888888888
 40
1.0
 40
1.0
 40
1.0
 40
1.0
 10
1.16536
 20
6.42053
 30
0.0
 10
1.14966
 20
6.41621
 30
0.0
 10
1.13599
 20
6.41409
 30
0.0
 10
1.12444
 20
6.41409
 30
0.0
 10
1.12444
 20
6.41409
 30
0.0
 10
1.09851
 20
6.41409
 30
0.0
 10
1.07832
 20
6.4215
 30
0.0
 10
1.06385
 20
6.43632
 30
0.0
 10
1.06385
 20
6.43632
 30
0.0
 10
1.0493
 20
6.45113
 30
0.0
 10
1.04207
 20
6.47168
 30
0.0
 10
1.04207
 20
6.49805
 30
0.0
 10
1.04207
 20
6.49805
 30
0.0
 10
1.04207
 20
6.49805
 30
0.0
 10
1.04207
 20
6.6628
 30
0.0
 10
1.04207
 20
6.6628
 30
0.0
 10
1.04207
 20
6.6628
 30
0.0
 10
1.04207
 20
6.6628
 30
0.0
 10
1.00697
 20
6.6628
 30
0.0
 10
1.00697
 20
6.6628
 30
0.0
 10
1.00697
 20
6.6628
 30
0.0
 10
1.00697
 20
6.6628
 30
0.0
 10
1.00697
 20
6.7009
 30
0.0
 10
1.00697
 20
6.7009
 30
0.0
 10
1.00697
 20
6.7009
 30
0.0
 10
1.00697
 20
6.7009
 30
0.0
 10
1.04207
 20
6.7009
 30
0.0
 10
1.04207
 20
6.7009
 30
0.0
 10
1.04207
 20
6.7009
 30
0.0
 10
1.04207
 20
6.7009
 30
0.0
 10
1.04207
 20
6.75161
 30
0.0
 10
1.04207
 20
6.75161
 30
0.0
 10
1.04207
 20
6.75161
 30
0.0
 10
1.04207
 20
6.75161
 30
0.0
 10
1.09287
 20
6.75646
 30
0.0
 10
1.09287
 20
6.75646
 30
0.0
 10
1.09287
 20
6.75646
 30
0.0
 10
1.09287
 20
6.75646
 30
0.0
 10
1.09287
 20
6.7009
 30
0.0
 10
1.09287
 20
6.7009
 30
0.0
 10
1.09287
 20
6.7009
 30
0.0
 10
1.09287
 20
6.7009
 30
0.0
 10
1.16642
 20
6.7009
 30
0.0
 10
1.16642
 20
6.7009
 30
0.0
 10
1.16642
 20
6.7009
 30
0.0
 10
1.16642
 20
6.7009
 30
0.0
 10
1.16642
 20
6.6628
 30
0.0
 10
1.16642
 20
6.6628
 30
0.0
 10
1.16642
 20
6.6628
 30
0.0
 10
1.16642
 20
6.6628
 30
0.0
 10
1.09287
 20
6.6628
 30
0.0
 10
1.09287
 20
6.6628
 30
0.0
 10
1.09287
 20
6.6628
 30
0.0
 10
1.09287
 20
6.6628
 30
0.0
 10
1.09287
 20
6.50722
 30
0.0
 10
1.09287
 20
6.50722
 30
0.0
 10
1.09287
 20
6.50722
 30
0.0
 10
1.09287
 20
6.47053
 30
0.0
 10
1.10883
 20
6.45219
 30
0.0
 10
1.14067
 20
6.45219
 30
0.0
 10
1.14067
 20
6.45219
 30
0.0
 10
1.14746
 20
6.45219
 30
0.0
 10
1.15566
 20
6.45334
 30
0.0
 10
1.16536
 20
6.45554
 30
0.0
 10
1.16536
 20
6.45554
 30
0.0
 10
1.16536
 20
6.45554
 30
0.0
 10
1.16536
 20
6.42053
 30
0.0
 10
1.16536
 20
6.42053
 30
0.0
  0
SPLINE
  5
51
330
1F
100
AcDbEntity
  8
Layer 1
100
AcDbSpline
210
0.0
220
0.0
230
1.0
 70
    11
 71
     3
 72
    20
 73
    16
 74
     0
 42
0.0000000001
 43
0.0000000001
 12
1.0
 22
0.0
 32
0.0
 13
1.0
 23
0.0
 33
0.0
 40
0.0
 40
0.0
 40
0.0
 40
0.0
 40
0.2
 40
0.2
 40
0.2
 40
0.2
 40
0.4
 40
0.4
 40
0.4
 40
0.4
 40
0.6
 40
0.6
 40
0.6
 40
0.6
 40
1.0
 40
1.0
 40
1.0
 40
1.0
 10
1.20929
 20
6.38234
 30
0.0
 10
1.20929
 20
6.38234
 30
0.0
 10
1.20929
 20
6.42044
 30
0.0
 10
1.20929
 20
6.42044
 30
0.0
 10
1.20929
 20
6.42044
 30
0.0
 10
1.20929
 20
6.42044
 30
0.0
 10
1.42942
 20
6.42044
 30
0.0
 10
1.42942
 20
6.42044
 30
0.0
 10
1.42942
 20
6.42044
 30
0.0
 10
1.42942
 20
6.42044
 30
0.0
 10
1.42942
 20
6.38234
 30
0.0
 10
1.42942
 20
6.38234
 30
0.0
 10
1.42942
 20
6.38234
 30
0.0
 10
1.42942
 20
6.38234
 30
0.0
 10
1.20929
 20
6.38234
 30
0.0
 10
1.20929
 20
6.38234
 30
0.0
  0
SPLINE
  5
52
330
1F
100
AcDbEntity
  8
Layer 1
100
AcDbSpline
210
0.0
220
0.0
230
1.0
 70
    11
 71
     3
 72
    84
 73
    80
 74
     0
 42
0.0000000001
 43
0.0000000001
 12
1.0
 22
0.0
 32
0.0
 13
1.0
 23
0.0
 33
0.0
 40
0.0
 40
0.0
 40
0.0
 40
0.0
 40
0.0476190476190476
 40
0.0476190476190476
 40
0.0476190476190476
 40
0.0476190476190476
 40
0.0952380952380952
 40
0.0952380952380952
 40
0.0952380952380952
 40
0.0952380952380952
 40
0.1428571428571428
 40
0.1428571428571428
 40
0.1428571428571428
 40
0.1428571428571428
 40
0.1904761904761905
 40
0.1904761904761905
 40
0.1904761904761905
 40
0.1904761904761905
 40
0.2380952380952381
 40
0.2380952380952381
 40
0.2380952380952381
 40
0.2380952380952381
 40
0.2857142857142857
 40
0.2857142857142857
 40
0.2857142857142857
 40
0.2857142857142857
 40
0.3333333333333333
 40
0.3333333333333333
 40
0.3333333333333333
 40
0.3333333333333333
 40
0.3809523809523809
 40
0.3809523809523809
 40
0.3809523809523809
 40
0.3809523809523809
 40
0.4285714285714285
 40
0.4285714285714285
 40
0.4285714285714285
 40
0.4285714285714285
 40
0.4761904761904762
 40
0.4761904761904762
 40
0.4761904761904762
 40
0.4761904761904762
 40
0.5238095238095238
 40
0.5238095238095238
 40
0.5238095238095238
 40
0.5238095238095238
 40
0.5714285714285714
 40
0.5714285714285714
 40
0.5714285714285714
 40
0.5714285714285714
 40
0.6190476190476191
 40
0.6190476190476191
 40
0.6190476190476191
 40
0.6190476190476191
 40
0.6666666666666666
 40
0.6666666666666666
 40
0.6666666666666666
 40
0.6666666666666666
 40
0.7142857142857143
 40
0.7142857142857143
 40
0.7142857142857143
 40
0.7142857142857143
 40
0.7619047619047619
 40
0.7619047619047619
 40
0.7619047619047619
 40
0.7619047619047619
 40
0.8095238095238095
 40
0.8095238095238095
 40
0.8095238095238095
 40
0.8095238095238095
 40
0.8571428571428571
 40
0.8571428571428571
 40
0.8571428571428571
 40
0.8571428571428571
 40
0.9047619047619048
 40
0.9047619047619048
 40
0.9047619047619048
 40
0.9047619047619048
 40
1.0
 40
1.0
 40
1.0
 40
1.0
 10
1.50245
 20
6.42044
 30
0.0
 10
1.50245
 20
6.42044
 30
0.0
 10
1.50245
 20
6.7009
 30
0.0
 10
1.50245
 20
6.7009
 30
0.0
 10
1.50245
 20
6.7009
 30
0.0
 10
1.50245
 20
6.7009
 30
0.0
 10
1.55325
 20
6.7009
 30
0.0
 10
1.55325
 20
6.7009
 30
0.0
 10
1.55325
 20
6.7009
 30
0.0
 10
1.55325
 20
6.7009
 30
0.0
 10
1.55325
 20
6.64789
 30
0.0
 10
1.55325
 20
6.64789
 30
0.0
 10
1.55325
 20
6.64789
 30
0.0
 10
1.57803
 20
6.68714
 30
0.0
 10
1.60978
 20
6.70672
 30
0.0
 10
1.64868
 20
6.70672
 30
0.0
 10
1.64868
 20
6.70672
 30
0.0
 10
1.68616
 20
6.70672
 30
0.0
 10
1.71165
 20
6.68714
 30
0.0
 10
1.72523
 20
6.64789
 30
0.0
 10
1.72523
 20
6.64789
 30
0.0
 10
1.74931
 20
6.68749
 30
0.0
 10
1.78071
 20
6.70725
 30
0.0
 10
1.81925
 20
6.70725
 30
0.0
 10
1.81925
 20
6.70725
 30
0.0
 10
1.84385
 20
6.70725
 30
0.0
 10
1.86299
 20
6.70002
 30
0.0
 10
1.87666
 20
6.68547
 30
0.0
 10
1.87666
 20
6.68547
 30
0.0
 10
1.89033
 20
6.67091
 30
0.0
 10
1.89721
 20
6.65054
 30
0.0
 10
1.89721
 20
6.62435
 30
0.0
 10
1.89721
 20
6.62435
 30
0.0
 10
1.89721
 20
6.62435
 30
0.0
 10
1.89721
 20
6.42044
 30
0.0
 10
1.89721
 20
6.42044
 30
0.0
 10
1.89721
 20
6.42044
 30
0.0
 10
1.89721
 20
6.42044
 30
0.0
 10
1.84641
 20
6.42044
 30
0.0
 10
1.84641
 20
6.42044
 30
0.0
 10
1.84641
 20
6.42044
 30
0.0
 10
1.84641
 20
6.42044
 30
0.0
 10
1.84641
 20
6.61597
 30
0.0
 10
1.84641
 20
6.61597
 30
0.0
 10
1.84641
 20
6.61597
 30
0.0
 10
1.84641
 20
6.64789
 30
0.0
 10
1.83371
 20
6.66386
 30
0.0
 10
1.80831
 20
6.66386
 30
0.0
 10
1.80831
 20
6.66386
 30
0.0
 10
1.78194
 20
6.66386
 30
0.0
 10
1.75425
 20
6.64525
 30
0.0
 10
1.72523
 20
6.60794
 30
0.0
 10
1.72523
 20
6.60794
 30
0.0
 10
1.72523
 20
6.60794
 30
0.0
 10
1.72523
 20
6.42044
 30
0.0
 10
1.72523
 20
6.42044
 30
0.0
 10
1.72523
 20
6.42044
 30
0.0
 10
1.72523
 20
6.42044
 30
0.0
 10
1.67443
 20
6.42044
 30
0.0
 10
1.67443
 20
6.42044
 30
0.0
 10
1.67443
 20
6.42044
 30
0.0
 10
1.67443
 20
6.42044
 30
0.0
 10
1.67443
 20
6.61614
 30
0.0
 10
1.67443
 20
6.61614
 30
0.0
 10
1.67443
 20
6.61614
 30
0.0
 10
1.67443
 20
6.64834
 30
0.0
 10
1.66155
 20
6.66439
 30
0.0
 10
1.63571
 20
6.66439
 30
0.0
 10
1.63571
 20
6.66439
 30
0.0
 10
1.61005
 20
6.66439
 30
0.0
 10
1.58253
 20
6.64569
 30
0.0
 10
1.55325
 20
6.60821
 30
0.0
 10
1.55325
 20
6.60821
 30
0.0
 10
1.55325
 20
6.60821
 30
0.0
 10
1.55325
 20
6.42044
 30
0.0
 10
1.55325
 20
6.42044
 30
0.0
 10
1.55325
 20
6.42044
 30
0.0
 10
1.55325
 20
6.42044
 30
0.0
 10
1.50245
 20
6.42044
 30
0.0
 10
1.50245
 20
6.42044
 30
0.0
  0
SPLINE
  5
53
330
1F
100
AcDbEntity
  8
Layer 1
100
AcDbSpline
210
0.0
220
0.0
230
1.0
 70
    11
 71
     3
 72
    84
 73
    80
 74
     0
 42
0.0000000001
 43
0.0000000001
 12
1.0
 22
0.0
 32
0.0
 13
1.0
 23
0.0
 33
0.0
 40
0.0
 40
0.0
 40
0.0
 40
0.0
 40
0.0476190476190476
 40
0.0476190476190476
 40
0.0476190476190476
 40
0.0476190476190476
 40
0.0952380952380952
 40
0.0952380952380952
 40
0.0952380952380952
 40
0.0952380952380952
 40
0.1428571428571428
 40
0.1428571428571428
 40
0.1428571428571428
 40
0.1428571428571428
 40
0.1904761904761905
 40
0.1904761904761905
 40
0.1904761904761905
 40
0.1904761904761905
 40
0.2380952380952381
 40
0.2380952380952381
 40
0.2380952380952381
 40
0.2380952380952381
 40
0.2857142857142857
 40
0.2857142857142857
 40
0.2857142857142857
 40
0.2857142857142857
 40
0.3333333333333333
 40
0.3333333333333333
 40
0.3333333333333333
 40
0.3333333333333333
 40
0.3809523809523809
 40
0.3809523809523809
 40
0.3809523809523809
 40
0.3809523809523809
 40
0.4285714285714285
 40
0.4285714285714285
 40
0.4285714285714285
 40
0.4285714285714285
 40
0.4761904761904762
 40
0.4761904761904762
 40
0.4761904761904762
 40
0.4761904761904762
 40
0.5238095238095238
 40
0.5238095238095238
 40
0.5238095238095238
 40
0.5238095238095238
 40
0.5714285714285714
 40
0.5714285714285714
 40
0.5714285714285714
 40
0.5714285714285714
 40
0.6190476190476191
 40
0.6190476190476191
 40
0.6190476190476191
 40
0.6190476190476191
 40
0.6666666666666666
 40
0.6666666666666666
 40
0.6666666666666666
 40
0.6666666666666666
 40
0.7142857142857143
 40
0.7142857142857143
 40
0.7142857142857143
 40
0.7142857142857143
 40
0.7619047619047619
 40
0.7619047619047619
 40
0.7619047619047619
 40
0.7619047619047619
 40
0.8095238095238095
 40
0.8095238095238095
 40
0.8095238095238095
 40
0.8095238095238095
 40
0.8571428571428571
 40
0.8571428571428571
 40
0.8571428571428571
 40
0.8571428571428571
 40
0.9047619047619048
 40
0.9047619047619048
 40
0.9047619047619048
 40
0.9047619047619048
 40
1.0
 40
1.0
 40
1.0
 40
1.0
 10
1.9997
 20
6.42309
 30
0.0
 10
1.9997
 20
6.42309
 30
0.0
 10
1.9997
 20
6.47071
 30
0.0
 10
1.9997
 20
6.47071
 30
0.0
 10
1.9997
 20
6.47071
 30
0.0
 10
2.03603
 20
6.45625
 30
0.0
 10
2.06452
 20
6.44902
 30
0.0
 10
2.08542
 20
6.44902
 30
0.0
 10
2.08542
 20
6.44902
 30
0.0
 10
2.11003
 20
6.44902
 30
0.0
 10
2.12987
 20
6.45607
 30
0.0
 10
2.14513
 20
6.47027
 30
0.0
 10
2.14513
 20
6.47027
 30
0.0
 10
2.16039
 20
6.48447
 30
0.0
 10
2.16797
 20
6.50299
 30
0.0
 10
2.16797
 20
6.52574
 30
0.0
 10
2.16797
 20
6.52574
 30
0.0
 10
2.16797
 20
6.57972
 30
0.0
 10
2.1304
 20
6.60671
 30
0.0
 10
2.05526
 20
6.60671
 30
0.0
 10
2.05526
 20
6.60671
 30
0.0
 10
2.05526
 20
6.60671
 30
0.0
 10
2.03515
 20
6.60671
 30
0.0
 10
2.03515
 20
6.60671
 30
0.0
 10
2.03515
 20
6.60671
 30
0.0
 10
2.03515
 20
6.60671
 30
0.0
 10
2.03515
 20
6.64084
 30
0.0
 10
2.03515
 20
6.64084
 30
0.0
 10
2.03515
 20
6.64084
 30
0.0
 10
2.03515
 20
6.64084
 30
0.0
 10
2.05297
 20
6.6411
 30
0.0
 10
2.05297
 20
6.6411
 30
0.0
 10
2.05297
 20
6.6411
 30
0.0
 10
2.12361
 20
6.6411
 30
0.0
 10
2.15898
 20
6.66597
 30
0.0
 10
2.15898
 20
6.71581
 30
0.0
 10
2.15898
 20
6.71581
 30
0.0
 10
2.15898
 20
6.75488
 30
0.0
 10
2.13552
 20
6.77445
 30
0.0
 10
2.08868
 20
6.77445
 30
0.0
 10
2.08868
 20
6.77445
 30
0.0
 10
2.06355
 20
6.77445
 30
0.0
 10
2.03568
 20
6.76722
 30
0.0
 10
2.00499
 20
6.75276
 30
0.0
 10
2.00499
 20
6.75276
 30
0.0
 10
2.00499
 20
6.75276
 30
0.0
 10
2.00499
 20
6.79721
 30
0.0
 10
2.00499
 20
6.79721
 30
0.0
 10
2.00499
 20
6.79721
 30
0.0
 10
2.03506
 20
6.80744
 30
0.0
 10
2.06408
 20
6.81255
 30
0.0
 10
2.09195
 20
6.81255
 30
0.0
 10
2.09195
 20
6.81255
 30
0.0
 10
2.12987
 20
6.81255
 30
0.0
 10
2.15906
 20
6.80497
 30
0.0
 10
2.17935
 20
6.7898
 30
0.0
 10
2.17935
 20
6.7898
 30
0.0
 10
2.19963
 20
6.77472
 30
0.0
 10
2.20978
 20
6.75276
 30
0.0
 10
2.20978
 20
6.72401
 30
0.0
 10
2.20978
 20
6.72401
 30
0.0
 10
2.20978
 20
6.67912
 30
0.0
 10
2.18323
 20
6.6471
 30
0.0
 10
2.13005
 20
6.62805
 30
0.0
 10
2.13005
 20
6.62805
 30
0.0
 10
2.1917
 20
6.61368
 30
0.0
 10
2.22248
 20
6.5799
 30
0.0
 10
2.22248
 20
6.52654
 30
0.0
 10
2.22248
 20
6.52654
 30
0.0
 10
2.22248
 20
6.49056
 30
0.0
 10
2.21057
 20
6.46224
 30
0.0
 10
2.18685
 20
6.44169
 30
0.0
 10
2.18685
 20
6.44169
 30
0.0
 10
2.16312
 20
6.42115
 30
0.0
 10
2.13049
 20
6.41091
 30
0.0
 10
2.08904
 20
6.41091
 30
0.0
 10
2.08904
 20
6.41091
 30
0.0
 10
2.0654
 20
6.41091
 30
0.0
 10
2.03568
 20
6.41497
 30
0.0
 10
1.9997
 20
6.42309
 30
0.0
  0
SPLINE
  5
54
330
1F
100
AcDbEntity
  8
Layer 1
100
AcDbSpline
210
0.0
220
0.0
230
1.0
 70
    11
 71
     3
 72
    60
 73
    56
 74
     0
 42
0.0000000001
 43
0.0000000001
 12
1.0
 22
0.0
 32
0.0
 13
1.0
 23
0.0
 33
0.0
 40
0.0
 40
0.0
 40
0.0
 40
0.0
 40
0.0666666666666667
 40
0.0666666666666667
 40
0.0666666666666667
 40
0.0666666666666667
 40
0.1333333333333333
 40
0.1333333333333333
 40
0.1333333333333333
 40
0.1333333333333333
 40
0.2
 40
0.2
 40
0.2
 40
0.2
 40
0.2666666666666667
 40
0.2666666666666667
 40
0.2666666666666667
 40
0.2666666666666667
 40
0.3333333333333333
 40
0.3333333333333333
 40
0.3333333333333333
 40
0.3333333333333333
 40
0.4
 40
0.4
 40
0.4
 40
0.4
 40
0.4666666666666667
 40
0.4666666666666667
 40
0.4666666666666667
 40
0.4666666666666667
 40
0.5333333333333333
 40
0.5333333333333333
 40
0.5333333333333333
 40
0.5333333333333333
 40
0.6
 40
0.6
 40
0.6
 40
0.6
 40
0.6666666666666666
 40
0.6666666666666666
 40
0.6666666666666666
 40
0.6666666666666666
 40
0.7333333333333333
 40
0.7333333333333333
 40
0.7333333333333333
 40
0.7333333333333333
 40
0.8
 40
0.8
 40
0.8
 40
0.8
 40
0.8666666666666667
 40
0.8666666666666667
 40
0.8666666666666667
 40
0.8666666666666667
 40
1.0
 40
1.0
 40
1.0
 40
1.0
 10
-3.13442
 20
5.60729
 30
0.0
 10
-3.13442
 20
5.60729
 30
0.0
 10
-3.13442
 20
6.01528
 30
0.0
 10
-3.13442
 20
6.01528
 30
0.0
 10
-3.13442
 20
6.01528
 30
0.0
 10
-3.13442
 20
6.01528
 30
0.0
 10
-3.08362
 20
6.01528
 30
0.0
 10
-3.08362
 20
6.01528
 30
0.0
 10
-3.08362
 20
6.01528
 30
0.0
 10
-3.08362
 20
6.01528
 30
0.0
 10
-3.08362
 20
5.83474
 30
0.0
 10
-3.08362
 20
5.83474
 30
0.0
 10
-3.08362
 20
5.83474
 30
0.0
 10
-3.05672
 20
5.87399
 30
0.0
 10
-3.02373
 20
5.89357
 30
0.0
 10
-2.98475
 20
5.89357
 30
0.0
 10
-2.98475
 20
5.89357
 30
0.0
 10
-2.96023
 20
5.89357
 30
0.0
 10
-2.94074
 20
5.8859
 30
0.0
 10
-2.92637
 20
5.87046
 30
0.0
 10
-2.92637
 20
5.87046
 30
0.0
 10
-2.91199
 20
5.85512
 30
0.0
 10
-2.90476
 20
5.83439
 30
0.0
 10
-2.90476
 20
5.80846
 30
0.0
 10
-2.90476
 20
5.80846
 30
0.0
 10
-2.90476
 20
5.80846
 30
0.0
 10
-2.90476
 20
5.60729
 30
0.0
 10
-2.90476
 20
5.60729
 30
0.0
 10
-2.90476
 20
5.60729
 30
0.0
 10
-2.90476
 20
5.60729
 30
0.0
 10
-2.95556
 20
5.60729
 30
0.0
 10
-2.95556
 20
5.60729
 30
0.0
 10
-2.95556
 20
5.60729
 30
0.0
 10
-2.95556
 20
5.60729
 30
0.0
 10
-2.95556
 20
5.79188
 30
0.0
 10
-2.95556
 20
5.79188
 30
0.0
 10
-2.95556
 20
5.79188
 30
0.0
 10
-2.95556
 20
5.8127
 30
0.0
 10
-2.95865
 20
5.82751
 30
0.0
 10
-2.96473
 20
5.83633
 30
0.0
 10
-2.96473
 20
5.83633
 30
0.0
 10
-2.97091
 20
5.84524
 30
0.0
 10
-2.98105
 20
5.84965
 30
0.0
 10
-2.99525
 20
5.84965
 30
0.0
 10
-2.99525
 20
5.84965
 30
0.0
 10
-3.02647
 20
5.84965
 30
0.0
 10
-3.05593
 20
5.82928
 30
0.0
 10
-3.08362
 20
5.78853
 30
0.0
 10
-3.08362
 20
5.78853
 30
0.0
 10
-3.08362
 20
5.78853
 30
0.0
 10
-3.08362
 20
5.60729
 30
0.0
 10
-3.08362
 20
5.60729
 30
0.0
 10
-3.08362
 20
5.60729
 30
0.0
 10
-3.08362
 20
5.60729
 30
0.0
 10
-3.13442
 20
5.60729
 30
0.0
 10
-3.13442
 20
5.60729
 30
0.0
  0
SPLINE
  5
55
330
1F
100
AcDbEntity
  8
Layer 1
100
AcDbSpline
210
0.0
220
0.0
230
1.0
 70
    11
 71
     3
 72
    72
 73
    68
 74
     0
 42
0.0000000001
 43
0.0000000001
 12
1.0
 22
0.0
 32
0.0
 13
1.0
 23
0.0
 33
0.0
 40
0.0
 40
0.0
 40
0.0
 40
0.0
 40
0.0555555555555556
 40
0.0555555555555556
 40
0.0555555555555556
 40
0.0555555555555556
 40
0.1111111111111111
 40
0.1111111111111111
 40
0.1111111111111111
 40
0.1111111111111111
 40
0.1666666666666667
 40
0.1666666666666667
 40
0.1666666666666667
 40
0.1666666666666667
 40
0.2222222222222222
 40
0.2222222222222222
 40
0.2222222222222222
 40
0.2222222222222222
 40
0.2777777777777778
 40
0.2777777777777778
 40
0.2777777777777778
 40
0.2777777777777778
 40
0.3333333333333333
 40
0.3333333333333333
 40
0.3333333333333333
 40
0.3333333333333333
 40
0.3888888888888889
 40
0.3888888888888889
 40
0.3888888888888889
 40
0.3888888888888889
 40
0.4444444444444444
 40
0.4444444444444444
 40
0.4444444444444444
 40
0.4444444444444444
 40
0.5
 40
0.5
 40
0.5
 40
0.5
 40
0.5555555555555556
 40
0.5555555555555556
 40
0.5555555555555556
 40
0.5555555555555556
 40
0.6111111111111112
 40
0.6111111111111112
 40
0.6111111111111112
 40
0.6111111111111112
 40
0.6666666666666666
 40
0.6666666666666666
 40
0.6666666666666666
 40
0.6666666666666666
 40
0.7222222222222222
 40
0.7222222222222222
 40
0.7222222222222222
 40
0.7222222222222222
 40
0.7777777777777778
 40
0.7777777777777778
 40
0.7777777777777778
 40
0.7777777777777778
 40
0.8333333333333334
 40
0.8333333333333334
 40
0.8333333333333334
 40
0.8333333333333334
 40
0.8888888888888888
 40
0.8888888888888888
 40
0.8888888888888888
 40
0.8888888888888888
 40
1.0
 40
1.0
 40
1.0
 40
1.0
 10
-2.68057
 20
5.60738
 30
0.0
 10
-2.69627
 20
5.60306
 30
0.0
 10
-2.70994
 20
5.60094
 30
0.0
 10
-2.72149
 20
5.60094
 30
0.0
 10
-2.72149
 20
5.60094
 30
0.0
 10
-2.74742
 20
5.60094
 30
0.0
 10
-2.76761
 20
5.60835
 30
0.0
 10
-2.78208
 20
5.62317
 30
0.0
 10
-2.78208
 20
5.62317
 30
0.0
 10
-2.79663
 20
5.63798
 30
0.0
 10
-2.80386
 20
5.65853
 30
0.0
 10
-2.80386
 20
5.6849
 30
0.0
 10
-2.80386
 20
5.6849
 30
0.0
 10
-2.80386
 20
5.6849
 30
0.0
 10
-2.80386
 20
5.84965
 30
0.0
 10
-2.80386
 20
5.84965
 30
0.0
 10
-2.80386
 20
5.84965
 30
0.0
 10
-2.80386
 20
5.84965
 30
0.0
 10
-2.83896
 20
5.84965
 30
0.0
 10
-2.83896
 20
5.84965
 30
0.0
 10
-2.83896
 20
5.84965
 30
0.0
 10
-2.83896
 20
5.84965
 30
0.0
 10
-2.83896
 20
5.88775
 30
0.0
 10
-2.83896
 20
5.88775
 30
0.0
 10
-2.83896
 20
5.88775
 30
0.0
 10
-2.83896
 20
5.88775
 30
0.0
 10
-2.80386
 20
5.88775
 30
0.0
 10
-2.80386
 20
5.88775
 30
0.0
 10
-2.80386
 20
5.88775
 30
0.0
 10
-2.80386
 20
5.88775
 30
0.0
 10
-2.80386
 20
5.93846
 30
0.0
 10
-2.80386
 20
5.93846
 30
0.0
 10
-2.80386
 20
5.93846
 30
0.0
 10
-2.80386
 20
5.93846
 30
0.0
 10
-2.75306
 20
5.94331
 30
0.0
 10
-2.75306
 20
5.94331
 30
0.0
 10
-2.75306
 20
5.94331
 30
0.0
 10
-2.75306
 20
5.94331
 30
0.0
 10
-2.75306
 20
5.88775
 30
0.0
 10
-2.75306
 20
5.88775
 30
0.0
 10
-2.75306
 20
5.88775
 30
0.0
 10
-2.75306
 20
5.88775
 30
0.0
 10
-2.67951
 20
5.88775
 30
0.0
 10
-2.67951
 20
5.88775
 30
0.0
 10
-2.67951
 20
5.88775
 30
0.0
 10
-2.67951
 20
5.88775
 30
0.0
 10
-2.67951
 20
5.84965
 30
0.0
 10
-2.67951
 20
5.84965
 30
0.0
 10
-2.67951
 20
5.84965
 30
0.0
 10
-2.67951
 20
5.84965
 30
0.0
 10
-2.75306
 20
5.84965
 30
0.0
 10
-2.75306
 20
5.84965
 30
0.0
 10
-2.75306
 20
5.84965
 30
0.0
 10
-2.75306
 20
5.84965
 30
0.0
 10
-2.75306
 20
5.69407
 30
0.0
 10
-2.75306
 20
5.69407
 30
0.0
 10
-2.75306
 20
5.69407
 30
0.0
 10
-2.75306
 20
5.65738
 30
0.0
 10
-2.7371
 20
5.63904
 30
0.0
 10
-2.70526
 20
5.63904
 30
0.0
 10
-2.70526
 20
5.63904
 30
0.0
 10
-2.69847
 20
5.63904
 30
0.0
 10
-2.69027
 20
5.64019
 30
0.0
 10
-2.68057
 20
5.64239
 30
0.0
 10
-2.68057
 20
5.64239
 30
0.0
 10
-2.68057
 20
5.64239
 30
0.0
 10
-2.68057
 20
5.60738
 30
0.0
 10
-2.68057
 20
5.60738
 30
0.0
  0
SPLINE
  5
56
330
1F
100
AcDbEntity
  8
Layer 1
100
AcDbSpline
210
0.0
220
0.0
230
1.0
 70
    11
 71
     3
 72
    72
 73
    68
 74
     0
 42
0.0000000001
 43
0.0000000001
 12
1.0
 22
0.0
 32
0.0
 13
1.0
 23
0.0
 33
0.0
 40
0.0
 40
0.0
 40
0.0
 40
0.0
 40
0.0555555555555556
 40
0.0555555555555556
 40
0.0555555555555556
 40
0.0555555555555556
 40
0.1111111111111111
 40
0.1111111111111111
 40
0.1111111111111111
 40
0.1111111111111111
 40
0.1666666666666667
 40
0.1666666666666667
 40
0.1666666666666667
 40
0.1666666666666667
 40
0.2222222222222222
 40
0.2222222222222222
 40
0.2222222222222222
 40
0.2222222222222222
 40
0.2777777777777778
 40
0.2777777777777778
 40
0.2777777777777778
 40
0.2777777777777778
 40
0.3333333333333333
 40
0.3333333333333333
 40
0.3333333333333333
 40
0.3333333333333333
 40
0.3888888888888889
 40
0.3888888888888889
 40
0.3888888888888889
 40
0.3888888888888889
 40
0.4444444444444444
 40
0.4444444444444444
 40
0.4444444444444444
 40
0.4444444444444444
 40
0.5
 40
0.5
 40
0.5
 40
0.5
 40
0.5555555555555556
 40
0.5555555555555556
 40
0.5555555555555556
 40
0.5555555555555556
 40
0.6111111111111112
 40
0.6111111111111112
 40
0.6111111111111112
 40
0.6111111111111112
 40
0.6666666666666666
 40
0.6666666666666666
 40
0.6666666666666666
 40
0.6666666666666666
 40
0.7222222222222222
 40
0.7222222222222222
 40
0.7222222222222222
 40
0.7222222222222222
 40
0.7777777777777778
 40
0.7777777777777778
 40
0.7777777777777778
 40
0.7777777777777778
 40
0.8333333333333334
 40
0.8333333333333334
 40
0.8333333333333334
 40
0.8333333333333334
 40
0.8888888888888888
 40
0.8888888888888888
 40
0.8888888888888888
 40
0.8888888888888888
 40
1.0
 40
1.0
 40
1.0
 40
1.0
 10
-2.48266
 20
5.60738
 30
0.0
 10
-2.49836
 20
5.60306
 30
0.0
 10
-2.51203
 20
5.60094
 30
0.0
 10
-2.52358
 20
5.60094
 30
0.0
 10
-2.52358
 20
5.60094
 30
0.0
 10
-2.54951
 20
5.60094
 30
0.0
 10
-2.5697
 20
5.60835
 30
0.0
 10
-2.58417
 20
5.62317
 30
0.0
 10
-2.58417
 20
5.62317
 30
0.0
 10
-2.59872
 20
5.63798
 30
0.0
 10
-2.60595
 20
5.65853
 30
0.0
 10
-2.60595
 20
5.6849
 30
0.0
 10
-2.60595
 20
5.6849
 30
0.0
 10
-2.60595
 20
5.6849
 30
0.0
 10
-2.60595
 20
5.84965
 30
0.0
 10
-2.60595
 20
5.84965
 30
0.0
 10
-2.60595
 20
5.84965
 30
0.0
 10
-2.60595
 20
5.84965
 30
0.0
 10
-2.64105
 20
5.84965
 30
0.0
 10
-2.64105
 20
5.84965
 30
0.0
 10
-2.64105
 20
5.84965
 30
0.0
 10
-2.64105
 20
5.84965
 30
0.0
 10
-2.64105
 20
5.88775
 30
0.0
 10
-2.64105
 20
5.88775
 30
0.0
 10
-2.64105
 20
5.88775
 30
0.0
 10
-2.64105
 20
5.88775
 30
0.0
 10
-2.60595
 20
5.88775
 30
0.0
 10
-2.60595
 20
5.88775
 30
0.0
 10
-2.60595
 20
5.88775
 30
0.0
 10
-2.60595
 20
5.88775
 30
0.0
 10
-2.60595
 20
5.93846
 30
0.0
 10
-2.60595
 20
5.93846
 30
0.0
 10
-2.60595
 20
5.93846
 30
0.0
 10
-2.60595
 20
5.93846
 30
0.0
 10
-2.55515
 20
5.94331
 30
0.0
 10
-2.55515
 20
5.94331
 30
0.0
 10
-2.55515
 20
5.94331
 30
0.0
 10
-2.55515
 20
5.94331
 30
0.0
 10
-2.55515
 20
5.88775
 30
0.0
 10
-2.55515
 20
5.88775
 30
0.0
 10
-2.55515
 20
5.88775
 30
0.0
 10
-2.55515
 20
5.88775
 30
0.0
 10
-2.4816
 20
5.88775
 30
0.0
 10
-2.4816
 20
5.88775
 30
0.0
 10
-2.4816
 20
5.88775
 30
0.0
 10
-2.4816
 20
5.88775
 30
0.0
 10
-2.4816
 20
5.84965
 30
0.0
 10
-2.4816
 20
5.84965
 30
0.0
 10
-2.4816
 20
5.84965
 30
0.0
 10
-2.4816
 20
5.84965
 30
0.0
 10
-2.55515
 20
5.84965
 30
0.0
 10
-2.55515
 20
5.84965
 30
0.0
 10
-2.55515
 20
5.84965
 30
0.0
 10
-2.55515
 20
5.84965
 30
0.0
 10
-2.55515
 20
5.69407
 30
0.0
 10
-2.55515
 20
5.69407
 30
0.0
 10
-2.55515
 20
5.69407
 30
0.0
 10
-2.55515
 20
5.65738
 30
0.0
 10
-2.53919
 20
5.63904
 30
0.0
 10
-2.50735
 20
5.63904
 30
0.0
 10
-2.50735
 20
5.63904
 30
0.0
 10
-2.50056
 20
5.63904
 30
0.0
 10
-2.49236
 20
5.64019
 30
0.0
 10
-2.48266
 20
5.64239
 30
0.0
 10
-2.48266
 20
5.64239
 30
0.0
 10
-2.48266
 20
5.64239
 30
0.0
 10
-2.48266
 20
5.60738
 30
0.0
 10
-2.48266
 20
5.60738
 30
0.0
  0
SPLINE
  5
57
330
1F
100
AcDbEntity
  8
Layer 1
100
AcDbSpline
210
0.0
220
0.0
230
1.0
 70
    11
 71
     3
 72
    48
 73
    44
 74
     0
 42
0.0000000001
 43
0.0000000001
 12
1.0
 22
0.0
 32
0.0
 13
1.0
 23
0.0
 33
0.0
 40
0.0
 40
0.0
 40
0.0
 40
0.0
 40
0.0833333333333333
 40
0.0833333333333333
 40
0.0833333333333333
 40
0.0833333333333333
 40
0.1666666666666667
 40
0.1666666666666667
 40
0.1666666666666667
 40
0.1666666666666667
 40
0.25
 40
0.25
 40
0.25
 40
0.25
 40
0.3333333333333333
 40
0.3333333333333333
 40
0.3333333333333333
 40
0.3333333333333333
 40
0.4166666666666667
 40
0.4166666666666667
 40
0.4166666666666667
 40
0.4166666666666667
 40
0.5
 40
0.5
 40
0.5
 40
0.5
 40
0.5833333333333334
 40
0.5833333333333334
 40
0.5833333333333334
 40
0.5833333333333334
 40
0.6666666666666666
 40
0.6666666666666666
 40
0.6666666666666666
 40
0.6666666666666666
 40
0.75
 40
0.75
 40
0.75
 40
0.75
 40
0.8333333333333334
 40
0.8333333333333334
 40
0.8333333333333334
 40
0.8333333333333334
 40
1.0
 40
1.0
 40
1.0
 40
1.0
 10
-2.41016
 20
5.50516
 30
0.0
 10
-2.41016
 20
5.50516
 30
0.0
 10
-2.41016
 20
5.88775
 30
0.0
 10
-2.41016
 20
5.88775
 30
0.0
 10
-2.41016
 20
5.88775
 30
0.0
 10
-2.41016
 20
5.88775
 30
0.0
 10
-2.35936
 20
5.88775
 30
0.0
 10
-2.35936
 20
5.88775
 30
0.0
 10
-2.35936
 20
5.88775
 30
0.0
 10
-2.35936
 20
5.88775
 30
0.0
 10
-2.35936
 20
5.83474
 30
0.0
 10
-2.35936
 20
5.83474
 30
0.0
 10
-2.35936
 20
5.83474
 30
0.0
 10
-2.33855
 20
5.87399
 30
0.0
 10
-2.30724
 20
5.89357
 30
0.0
 10
-2.26552
 20
5.89357
 30
0.0
 10
-2.26552
 20
5.89357
 30
0.0
 10
-2.23174
 20
5.89357
 30
0.0
 10
-2.20519
 20
5.88131
 30
0.0
 10
-2.18579
 20
5.85671
 30
0.0
 10
-2.18579
 20
5.85671
 30
0.0
 10
-2.16639
 20
5.8321
 30
0.0
 10
-2.15669
 20
5.7985
 30
0.0
 10
-2.15669
 20
5.7559
 30
0.0
 10
-2.15669
 20
5.7559
 30
0.0
 10
-2.15669
 20
5.70951
 30
0.0
 10
-2.16771
 20
5.67203
 30
0.0
 10
-2.18967
 20
5.64363
 30
0.0
 10
-2.18967
 20
5.64363
 30
0.0
 10
-2.21163
 20
5.61514
 30
0.0
 10
-2.24056
 20
5.60094
 30
0.0
 10
-2.27637
 20
5.60094
 30
0.0
 10
-2.27637
 20
5.60094
 30
0.0
 10
-2.30962
 20
5.60094
 30
0.0
 10
-2.33731
 20
5.61364
 30
0.0
 10
-2.35936
 20
5.63913
 30
0.0
 10
-2.35936
 20
5.63913
 30
0.0
 10
-2.35936
 20
5.63913
 30
0.0
 10
-2.35936
 20
5.50516
 30
0.0
 10
-2.35936
 20
5.50516
 30
0.0
 10
-2.35936
 20
5.50516
 30
0.0
 10
-2.35936
 20
5.50516
 30
0.0
 10
-2.41016
 20
5.50516
 30
0.0
 10
-2.41016
 20
5.50516
 30
0.0
  0
SPLINE
  5
58
330
1F
100
AcDbEntity
  8
Layer 1
100
AcDbSpline
210
0.0
220
0.0
230
1.0
 70
    11
 71
     3
 72
    28
 73
    24
 74
     0
 42
0.0000000001
 43
0.0000000001
 12
1.0
 22
0.0
 32
0.0
 13
1.0
 23
0.0
 33
0.0
 40
0.0
 40
0.0
 40
0.0
 40
0.0
 40
0.1428571428571428
 40
0.1428571428571428
 40
0.1428571428571428
 40
0.1428571428571428
 40
0.2857142857142857
 40
0.2857142857142857
 40
0.2857142857142857
 40
0.2857142857142857
 40
0.4285714285714285
 40
0.4285714285714285
 40
0.4285714285714285
 40
0.4285714285714285
 40
0.5714285714285714
 40
0.5714285714285714
 40
0.5714285714285714
 40
0.5714285714285714
 40
0.7142857142857143
 40
0.7142857142857143
 40
0.7142857142857143
 40
0.7142857142857143
 40
1.0
 40
1.0
 40
1.0
 40
1.0
 10
-2.35936
 20
5.67414
 30
0.0
 10
-2.33317
 20
5.65077
 30
0.0
 10
-2.30821
 20
5.63904
 30
0.0
 10
-2.28448
 20
5.63904
 30
0.0
 10
-2.28448
 20
5.63904
 30
0.0
 10
-2.26111
 20
5.63904
 30
0.0
 10
-2.24303
 20
5.64883
 30
0.0
 10
-2.23033
 20
5.66832
 30
0.0
 10
-2.23033
 20
5.66832
 30
0.0
 10
-2.21754
 20
5.68781
 30
0.0
 10
-2.21119
 20
5.71524
 30
0.0
 10
-2.21119
 20
5.7507
 30
0.0
 10
-2.21119
 20
5.7507
 30
0.0
 10
-2.21119
 20
5.81631
 30
0.0
 10
-2.23289
 20
5.84912
 30
0.0
 10
-2.27628
 20
5.84912
 30
0.0
 10
-2.27628
 20
5.84912
 30
0.0
 10
-2.30468
 20
5.84912
 30
0.0
 10
-2.33237
 20
5.83377
 30
0.0
 10
-2.35936
 20
5.80299
 30
0.0
 10
-2.35936
 20
5.80299
 30
0.0
 10
-2.35936
 20
5.80299
 30
0.0
 10
-2.35936
 20
5.67414
 30
0.0
 10
-2.35936
 20
5.67414
 30
0.0
  0
SPLINE
  5
59
330
1F
100
AcDbEntity
  8
Layer 1
100
AcDbSpline
210
0.0
220
0.0
230
1.0
 70
    11
 71
     3
 72
    20
 73
    16
 74
     0
 42
0.0000000001
 43
0.0000000001
 12
1.0
 22
0.0
 32
0.0
 13
1.0
 23
0.0
 33
0.0
 40
0.0
 40
0.0
 40
0.0
 40
0.0
 40
0.2
 40
0.2
 40
0.2
 40
0.2
 40
0.4
 40
0.4
 40
0.4
 40
0.4
 40
0.6
 40
0.6
 40
0.6
 40
0.6
 40
1.0
 40
1.0
 40
1.0
 40
1.0
 10
-2.06973
 20
5.60729
 30
0.0
 10
-2.06973
 20
5.60729
 30
0.0
 10
-2.06973
 20
5.65809
 30
0.0
 10
-2.06973
 20
5.65809
 30
0.0
 10
-2.06973
 20
5.65809
 30
0.0
 10
-2.06973
 20
5.65809
 30
0.0
 10
-2.01893
 20
5.65809
 30
0.0
 10
-2.01893
 20
5.65809
 30
0.0
 10
-2.01893
 20
5.65809
 30
0.0
 10
-2.01893
 20
5.65809
 30
0.0
 10
-2.01893
 20
5.60729
 30
0.0
 10
-2.01893
 20
5.60729
 30
0.0
 10
-2.01893
 20
5.60729
 30
0.0
 10
-2.01893
 20
5.60729
 30
0.0
 10
-2.06973
 20
5.60729
 30
0.0
 10
-2.06973
 20
5.60729
 30
0.0
  0
SPLINE
  5
5A
330
1F
100
AcDbEntity
  8
Layer 1
100
AcDbSpline
210
0.0
220
0.0
230
1.0
 70
    11
 71
     3
 72
    20
 73
    16
 74
     0
 42
0.0000000001
 43
0.0000000001
 12
1.0
 22
0.0
 32
0.0
 13
1.0
 23
0.0
 33
0.0
 40
0.0
 40
0.0
 40
0.0
 40
0.0
 40
0.2
 40
0.2
 40
0.2
 40
0.2
 40
0.4
 40
0.4
 40
0.4
 40
0.4
 40
0.6
 40
0.6
 40
0.6
 40
0.6
 40
1.0
 40
1.0
 40
1.0
 40
1.0
 10
-2.06973
 20
5.83695
 30
0.0
 10
-2.06973
 20
5.83695
 30
0.0
 10
-2.06973
 20
5.88775
 30
0.0
 10
-2.06973
 20
5.88775
 30
0.0
 10
-2.06973
 20
5.88775
 30
0.0
 10
-2.06973
 20
5.88775
 30
0.0
 10
-2.01893
 20
5.88775
 30
0.0
 10
-2.01893
 20
5.88775
 30
0.0
 10
-2.01893
 20
5.88775
 30
0.0
 10
-2.01893
 20
5.88775
 30
0.0
 10
-2.01893
 20
5.83695
 30
0.0
 10
-2.01893
 20
5.83695
 30
0.0
 10
-2.01893
 20
5.83695
 30
0.0
 10
-2.01893
 20
5.83695
 30
0.0
 10
-2.06973
 20
5.83695
 30
0.0
 10
-2.06973
 20
5.83695
 30
0.0
  0
SPLINE
  5
5B
330
1F
100
AcDbEntity
  8
Layer 1
100
AcDbSpline
210
0.0
220
0.0
230
1.0
 70
    11
 71
     3
 72
    20
 73
    16
 74
     0
 42
0.0000000001
 43
0.0000000001
 12
1.0
 22
0.0
 32
0.0
 13
1.0
 23
0.0
 33
0.0
 40
0.0
 40
0.0
 40
0.0
 40
0.0
 40
0.2
 40
0.2
 40
0.2
 40
0.2
 40
0.4
 40
0.4
 40
0.4
 40
0.4
 40
0.6
 40
0.6
 40
0.6
 40
0.6
 40
1.0
 40
1.0
 40
1.0
 40
1.0
 10
-1.9034
 20
5.53056
 30
0.0
 10
-1.9034
 20
5.53056
 30
0.0
 10
-1.76731
 20
5.98988
 30
0.0
 10
-1.76731
 20
5.98988
 30
0.0
 10
-1.76731
 20
5.98988
 30
0.0
 10
-1.76731
 20
5.98988
 30
0.0
 10
-1.74042
 20
5.98988
 30
0.0
 10
-1.74042
 20
5.98988
 30
0.0
 10
-1.74042
 20
5.98988
 30
0.0
 10
-1.74042
 20
5.98988
 30
0.0
 10
-1.8765
 20
5.53056
 30
0.0
 10
-1.8765
 20
5.53056
 30
0.0
 10
-1.8765
 20
5.53056
 30
0.0
 10
-1.8765
 20
5.53056
 30
0.0
 10
-1.9034
 20
5.53056
 30
0.0
 10
-1.9034
 20
5.53056
 30
0.0
  0
SPLINE
  5
5C
330
1F
100
AcDbEntity
  8
Layer 1
100
AcDbSpline
210
0.0
220
0.0
230
1.0
 70
    11
 71
     3
 72
    20
 73
    16
 74
     0
 42
0.0000000001
 43
0.0000000001
 12
1.0
 22
0.0
 32
0.0
 13
1.0
 23
0.0
 33
0.0
 40
0.0
 40
0.0
 40
0.0
 40
0.0
 40
0.2
 40
0.2
 40
0.2
 40
0.2
 40
0.4
 40
0.4
 40
0.4
 40
0.4
 40
0.6
 40
0.6
 40
0.6
 40
0.6
 40
1.0
 40
1.0
 40
1.0
 40
1.0
 10
-1.62594
 20
5.53056
 30
0.0
 10
-1.62594
 20
5.53056
 30
0.0
 10
-1.48985
 20
5.98988
 30
0.0
 10
-1.48985
 20
5.98988
 30
0.0
 10
-1.48985
 20
5.98988
 30
0.0
 10
-1.48985
 20
5.98988
 30
0.0
 10
-1.46296
 20
5.98988
 30
0.0
 10
-1.46296
 20
5.98988
 30
0.0
 10
-1.46296
 20
5.98988
 30
0.0
 10
-1.46296
 20
5.98988
 30
0.0
 10
-1.59904
 20
5.53056
 30
0.0
 10
-1.59904
 20
5.53056
 30
0.0
 10
-1.59904
 20
5.53056
 30
0.0
 10
-1.59904
 20
5.53056
 30
0.0
 10
-1.62594
 20
5.53056
 30
0.0
 10
-1.62594
 20
5.53056
 30
0.0
  0
SPLINE
  5
5D
330
1F
100
AcDbEntity
  8
Layer 1
100
AcDbSpline
210
0.0
220
0.0
230
1.0
 70
    11
 71
     3
 72
    36
 73
    32
 74
     0
 42
0.0000000001
 43
0.0000000001
 12
1.0
 22
0.0
 32
0.0
 13
1.0
 23
0.0
 33
0.0
 40
0.0
 40
0.0
 40
0.0
 40
0.0
 40
0.1111111111111111
 40
0.1111111111111111
 40
0.1111111111111111
 40
0.1111111111111111
 40
0.2222222222222222
 40
0.2222222222222222
 40
0.2222222222222222
 40
0.2222222222222222
 40
0.3333333333333333
 40
0.3333333333333333
 40
0.3333333333333333
 40
0.3333333333333333
 40
0.4444444444444444
 40
0.4444444444444444
 40
0.4444444444444444
 40
0.4444444444444444
 40
0.5555555555555556
 40
0.5555555555555556
 40
0.5555555555555556
 40
0.5555555555555556
 40
0.6666666666666666
 40
0.6666666666666666
 40
0.6666666666666666
 40
0.6666666666666666
 40
0.7777777777777778
 40
0.7777777777777778
 40
0.7777777777777778
 40
0.7777777777777778
 40
1.0
 40
1.0
 40
1.0
 40
1.0
 10
-1.24317
 20
5.60094
 30
0.0
 10
-1.28436
 20
5.60094
 30
0.0
 10
-1.31699
 20
5.61408
 30
0.0
 10
-1.34098
 20
5.64036
 30
0.0
 10
-1.34098
 20
5.64036
 30
0.0
 10
-1.36506
 20
5.66665
 30
0.0
 10
-1.37705
 20
5.70236
 30
0.0
 10
-1.37705
 20
5.74743
 30
0.0
 10
-1.37705
 20
5.74743
 30
0.0
 10
-1.37705
 20
5.79241
 30
0.0
 10
-1.36506
 20
5.82804
 30
0.0
 10
-1.34098
 20
5.85424
 30
0.0
 10
-1.34098
 20
5.85424
 30
0.0
 10
-1.31699
 20
5.88043
 30
0.0
 10
-1.28436
 20
5.89357
 30
0.0
 10
-1.24317
 20
5.89357
 30
0.0
 10
-1.24317
 20
5.89357
 30
0.0
 10
-1.20199
 20
5.89357
 30
0.0
 10
-1.16936
 20
5.88043
 30
0.0
 10
-1.14537
 20
5.85424
 30
0.0
 10
-1.14537
 20
5.85424
 30
0.0
 10
-1.12129
 20
5.82804
 30
0.0
 10
-1.10929
 20
5.79241
 30
0.0
 10
-1.10929
 20
5.74743
 30
0.0
 10
-1.10929
 20
5.74743
 30
0.0
 10
-1.10929
 20
5.70236
 30
0.0
 10
-1.12129
 20
5.66665
 30
0.0
 10
-1.14537
 20
5.64036
 30
0.0
 10
-1.14537
 20
5.64036
 30
0.0
 10
-1.16936
 20
5.61408
 30
0.0
 10
-1.20199
 20
5.60094
 30
0.0
 10
-1.24317
 20
5.60094
 30
0.0
  0
SPLINE
  5
5E
330
1F
100
AcDbEntity
  8
Layer 1
100
AcDbSpline
210
0.0
220
0.0
230
1.0
 70
    11
 71
     3
 72
    36
 73
    32
 74
     0
 42
0.0000000001
 43
0.0000000001
 12
1.0
 22
0.0
 32
0.0
 13
1.0
 23
0.0
 33
0.0
 40
0.0
 40
0.0
 40
0.0
 40
0.0
 40
0.1111111111111111
 40
0.1111111111111111
 40
0.1111111111111111
 40
0.1111111111111111
 40
0.2222222222222222
 40
0.2222222222222222
 40
0.2222222222222222
 40
0.2222222222222222
 40
0.3333333333333333
 40
0.3333333333333333
 40
0.3333333333333333
 40
0.3333333333333333
 40
0.4444444444444444
 40
0.4444444444444444
 40
0.4444444444444444
 40
0.4444444444444444
 40
0.5555555555555556
 40
0.5555555555555556
 40
0.5555555555555556
 40
0.5555555555555556
 40
0.6666666666666666
 40
0.6666666666666666
 40
0.6666666666666666
 40
0.6666666666666666
 40
0.7777777777777778
 40
0.7777777777777778
 40
0.7777777777777778
 40
0.7777777777777778
 40
1.0
 40
1.0
 40
1.0
 40
1.0
 10
-1.24326
 20
5.63904
 30
0.0
 10
-1.21813
 20
5.63904
 30
0.0
 10
-1.19855
 20
5.64848
 30
0.0
 10
-1.18461
 20
5.66744
 30
0.0
 10
-1.18461
 20
5.66744
 30
0.0
 10
-1.17077
 20
5.68631
 30
0.0
 10
-1.1638
 20
5.71304
 30
0.0
 10
-1.1638
 20
5.74743
 30
0.0
 10
-1.1638
 20
5.74743
 30
0.0
 10
-1.1638
 20
5.78174
 30
0.0
 10
-1.17077
 20
5.80837
 30
0.0
 10
-1.18461
 20
5.82725
 30
0.0
 10
-1.18461
 20
5.82725
 30
0.0
 10
-1.19855
 20
5.84603
 30
0.0
 10
-1.21813
 20
5.85547
 30
0.0
 10
-1.24326
 20
5.85547
 30
0.0
 10
-1.24326
 20
5.85547
 30
0.0
 10
-1.26849
 20
5.85547
 30
0.0
 10
-1.28807
 20
5.84603
 30
0.0
 10
-1.30182
 20
5.82725
 30
0.0
 10
-1.30182
 20
5.82725
 30
0.0
 10
-1.31567
 20
5.80837
 30
0.0
 10
-1.32255
 20
5.78174
 30
0.0
 10
-1.32255
 20
5.74743
 30
0.0
 10
-1.32255
 20
5.74743
 30
0.0
 10
-1.32255
 20
5.71304
 30
0.0
 10
-1.31567
 20
5.68631
 30
0.0
 10
-1.30182
 20
5.66744
 30
0.0
 10
-1.30182
 20
5.66744
 30
0.0
 10
-1.28807
 20
5.64848
 30
0.0
 10
-1.26849
 20
5.63904
 30
0.0
 10
-1.24326
 20
5.63904
 30
0.0
  0
SPLINE
  5
5F
330
1F
100
AcDbEntity
  8
Layer 1
100
AcDbSpline
210
0.0
220
0.0
230
1.0
 70
    11
 71
     3
 72
    36
 73
    32
 74
     0
 42
0.0000000001
 43
0.0000000001
 12
1.0
 22
0.0
 32
0.0
 13
1.0
 23
0.0
 33
0.0
 40
0.0
 40
0.0
 40
0.0
 40
0.0
 40
0.1111111111111111
 40
0.1111111111111111
 40
0.1111111111111111
 40
0.1111111111111111
 40
0.2222222222222222
 40
0.2222222222222222
 40
0.2222222222222222
 40
0.2222222222222222
 40
0.3333333333333333
 40
0.3333333333333333
 40
0.3333333333333333
 40
0.3333333333333333
 40
0.4444444444444444
 40
0.4444444444444444
 40
0.4444444444444444
 40
0.4444444444444444
 40
0.5555555555555556
 40
0.5555555555555556
 40
0.5555555555555556
 40
0.5555555555555556
 40
0.6666666666666666
 40
0.6666666666666666
 40
0.6666666666666666
 40
0.6666666666666666
 40
0.7777777777777778
 40
0.7777777777777778
 40
0.7777777777777778
 40
0.7777777777777778
 40
1.0
 40
1.0
 40
1.0
 40
1.0
 10
-0.91808
 20
5.60094
 30
0.0
 10
-0.95927
 20
5.60094
 30
0.0
 10
-0.9919
 20
5.61408
 30
0.0
 10
-1.01589
 20
5.64036
 30
0.0
 10
-1.01589
 20
5.64036
 30
0.0
 10
-1.03997
 20
5.66665
 30
0.0
 10
-1.05196
 20
5.70236
 30
0.0
 10
-1.05196
 20
5.74743
 30
0.0
 10
-1.05196
 20
5.74743
 30
0.0
 10
-1.05196
 20
5.79241
 30
0.0
 10
-1.03997
 20
5.82804
 30
0.0
 10
-1.01589
 20
5.85424
 30
0.0
 10
-1.01589
 20
5.85424
 30
0.0
 10
-0.9919
 20
5.88043
 30
0.0
 10
-0.95927
 20
5.89357
 30
0.0
 10
-0.91808
 20
5.89357
 30
0.0
 10
-0.91808
 20
5.89357
 30
0.0
 10
-0.8769
 20
5.89357
 30
0.0
 10
-0.84427
 20
5.88043
 30
0.0
 10
-0.82028
 20
5.85424
 30
0.0
 10
-0.82028
 20
5.85424
 30
0.0
 10
-0.7962
 20
5.82804
 30
0.0
 10
-0.7842
 20
5.79241
 30
0.0
 10
-0.7842
 20
5.74743
 30
0.0
 10
-0.7842
 20
5.74743
 30
0.0
 10
-0.7842
 20
5.70236
 30
0.0
 10
-0.7962
 20
5.66665
 30
0.0
 10
-0.82028
 20
5.64036
 30
0.0
 10
-0.82028
 20
5.64036
 30
0.0
 10
-0.84427
 20
5.61408
 30
0.0
 10
-0.8769
 20
5.60094
 30
0.0
 10
-0.91808
 20
5.60094
 30
0.0
  0
SPLINE
  5
60
330
1F
100
AcDbEntity
  8
Layer 1
100
AcDbSpline
210
0.0
220
0.0
230
1.0
 70
    11
 71
     3
 72
    36
 73
    32
 74
     0
 42
0.0000000001
 43
0.0000000001
 12
1.0
 22
0.0
 32
0.0
 13
1.0
 23
0.0
 33
0.0
 40
0.0
 40
0.0
 40
0.0
 40
0.0
 40
0.1111111111111111
 40
0.1111111111111111
 40
0.1111111111111111
 40
0.1111111111111111
 40
0.2222222222222222
 40
0.2222222222222222
 40
0.2222222222222222
 40
0.2222222222222222
 40
0.3333333333333333
 40
0.3333333333333333
 40
0.3333333333333333
 40
0.3333333333333333
 40
0.4444444444444444
 40
0.4444444444444444
 40
0.4444444444444444
 40
0.4444444444444444
 40
0.5555555555555556
 40
0.5555555555555556
 40
0.5555555555555556
 40
0.5555555555555556
 40
0.6666666666666666
 40
0.6666666666666666
 40
0.6666666666666666
 40
0.6666666666666666
 40
0.7777777777777778
 40
0.7777777777777778
 40
0.7777777777777778
 40
0.7777777777777778
 40
1.0
 40
1.0
 40
1.0
 40
1.0
 10
-0.91817
 20
5.63904
 30
0.0
 10
-0.89304
 20
5.63904
 30
0.0
 10
-0.87346
 20
5.64848
 30
0.0
 10
-0.85952
 20
5.66744
 30
0.0
 10
-0.85952
 20
5.66744
 30
0.0
 10
-0.84568
 20
5.68631
 30
0.0
 10
-0.83871
 20
5.71304
 30
0.0
 10
-0.83871
 20
5.74743
 30
0.0
 10
-0.83871
 20
5.74743
 30
0.0
 10
-0.83871
 20
5.78174
 30
0.0
 10
-0.84568
 20
5.80837
 30
0.0
 10
-0.85952
 20
5.82725
 30
0.0
 10
-0.85952
 20
5.82725
 30
0.0
 10
-0.87346
 20
5.84603
 30
0.0
 10
-0.89304
 20
5.85547
 30
0.0
 10
-0.91817
 20
5.85547
 30
0.0
 10
-0.91817
 20
5.85547
 30
0.0
 10
-0.9434
 20
5.85547
 30
0.0
 10
-0.96298
 20
5.84603
 30
0.0
 10
-0.97673
 20
5.82725
 30
0.0
 10
-0.97673
 20
5.82725
 30
0.0
 10
-0.99058
 20
5.80837
 30
0.0
 10
-0.99746
 20
5.78174
 30
0.0
 10
-0.99746
 20
5.74743
 30
0.0
 10
-0.99746
 20
5.74743
 30
0.0
 10
-0.99746
 20
5.71304
 30
0.0
 10
-0.99058
 20
5.68631
 30
0.0
 10
-0.97673
 20
5.66744
 30
0.0
 10
-0.97673
 20
5.66744
 30
0.0
 10
-0.96298
 20
5.64848
 30
0.0
 10
-0.9434
 20
5.63904
 30
0.0
 10
-0.91817
 20
5.63904
 30
0.0
  0
SPLINE
  5
61
330
1F
100
AcDbEntity
  8
Layer 1
100
AcDbSpline
210
0.0
220
0.0
230
1.0
 70
    11
 71
     3
 72
    84
 73
    80
 74
     0
 42
0.0000000001
 43
0.0000000001
 12
1.0
 22
0.0
 32
0.0
 13
1.0
 23
0.0
 33
0.0
 40
0.0
 40
0.0
 40
0.0
 40
0.0
 40
0.0476190476190476
 40
0.0476190476190476
 40
0.0476190476190476
 40
0.0476190476190476
 40
0.0952380952380952
 40
0.0952380952380952
 40
0.0952380952380952
 40
0.0952380952380952
 40
0.1428571428571428
 40
0.1428571428571428
 40
0.1428571428571428
 40
0.1428571428571428
 40
0.1904761904761905
 40
0.1904761904761905
 40
0.1904761904761905
 40
0.1904761904761905
 40
0.2380952380952381
 40
0.2380952380952381
 40
0.2380952380952381
 40
0.2380952380952381
 40
0.2857142857142857
 40
0.2857142857142857
 40
0.2857142857142857
 40
0.2857142857142857
 40
0.3333333333333333
 40
0.3333333333333333
 40
0.3333333333333333
 40
0.3333333333333333
 40
0.3809523809523809
 40
0.3809523809523809
 40
0.3809523809523809
 40
0.3809523809523809
 40
0.4285714285714285
 40
0.4285714285714285
 40
0.4285714285714285
 40
0.4285714285714285
 40
0.4761904761904762
 40
0.4761904761904762
 40
0.4761904761904762
 40
0.4761904761904762
 40
0.5238095238095238
 40
0.5238095238095238
 40
0.5238095238095238
 40
0.5238095238095238
 40
0.5714285714285714
 40
0.5714285714285714
 40
0.5714285714285714
 40
0.5714285714285714
 40
0.6190476190476191
 40
0.6190476190476191
 40
0.6190476190476191
 40
0.6190476190476191
 40
0.6666666666666666
 40
0.6666666666666666
 40
0.6666666666666666
 40
0.6666666666666666
 40
0.7142857142857143
 40
0.7142857142857143
 40
0.7142857142857143
 40
0.7142857142857143
 40
0.7619047619047619
 40
0.7619047619047619
 40
0.7619047619047619
 40
0.7619047619047619
 40
0.8095238095238095
 40
0.8095238095238095
 40
0.8095238095238095
 40
0.8095238095238095
 40
0.8571428571428571
 40
0.8571428571428571
 40
0.8571428571428571
 40
0.8571428571428571
 40
0.9047619047619048
 40
0.9047619047619048
 40
0.9047619047619048
 40
0.9047619047619048
 40
1.0
 40
1.0
 40
1.0
 40
1.0
 10
-0.70465
 20
5.60729
 30
0.0
 10
-0.70465
 20
5.60729
 30
0.0
 10
-0.70465
 20
5.88775
 30
0.0
 10
-0.70465
 20
5.88775
 30
0.0
 10
-0.70465
 20
5.88775
 30
0.0
 10
-0.70465
 20
5.88775
 30
0.0
 10
-0.65385
 20
5.88775
 30
0.0
 10
-0.65385
 20
5.88775
 30
0.0
 10
-0.65385
 20
5.88775
 30
0.0
 10
-0.65385
 20
5.88775
 30
0.0
 10
-0.65385
 20
5.83474
 30
0.0
 10
-0.65385
 20
5.83474
 30
0.0
 10
-0.65385
 20
5.83474
 30
0.0
 10
-0.62907
 20
5.87399
 30
0.0
 10
-0.59732
 20
5.89357
 30
0.0
 10
-0.55842
 20
5.89357
 30
0.0
 10
-0.55842
 20
5.89357
 30
0.0
 10
-0.52094
 20
5.89357
 30
0.0
 10
-0.49545
 20
5.87399
 30
0.0
 10
-0.48187
 20
5.83474
 30
0.0
 10
-0.48187
 20
5.83474
 30
0.0
 10
-0.45779
 20
5.87434
 30
0.0
 10
-0.42639
 20
5.8941
 30
0.0
 10
-0.38785
 20
5.8941
 30
0.0
 10
-0.38785
 20
5.8941
 30
0.0
 10
-0.36325
 20
5.8941
 30
0.0
 10
-0.34411
 20
5.88687
 30
0.0
 10
-0.33044
 20
5.87232
 30
0.0
 10
-0.33044
 20
5.87232
 30
0.0
 10
-0.31677
 20
5.85776
 30
0.0
 10
-0.30989
 20
5.83739
 30
0.0
 10
-0.30989
 20
5.8112
 30
0.0
 10
-0.30989
 20
5.8112
 30
0.0
 10
-0.30989
 20
5.8112
 30
0.0
 10
-0.30989
 20
5.60729
 30
0.0
 10
-0.30989
 20
5.60729
 30
0.0
 10
-0.30989
 20
5.60729
 30
0.0
 10
-0.30989
 20
5.60729
 30
0.0
 10
-0.36069
 20
5.60729
 30
0.0
 10
-0.36069
 20
5.60729
 30
0.0
 10
-0.36069
 20
5.60729
 30
0.0
 10
-0.36069
 20
5.60729
 30
0.0
 10
-0.36069
 20
5.80282
 30
0.0
 10
-0.36069
 20
5.80282
 30
0.0
 10
-0.36069
 20
5.80282
 30
0.0
 10
-0.36069
 20
5.83474
 30
0.0
 10
-0.37339
 20
5.85071
 30
0.0
 10
-0.39879
 20
5.85071
 30
0.0
 10
-0.39879
 20
5.85071
 30
0.0
 10
-0.42516
 20
5.85071
 30
0.0
 10
-0.45285
 20
5.8321
 30
0.0
 10
-0.48187
 20
5.79479
 30
0.0
 10
-0.48187
 20
5.79479
 30
0.0
 10
-0.48187
 20
5.79479
 30
0.0
 10
-0.48187
 20
5.60729
 30
0.0
 10
-0.48187
 20
5.60729
 30
0.0
 10
-0.48187
 20
5.60729
 30
0.0
 10
-0.48187
 20
5.60729
 30
0.0
 10
-0.53267
 20
5.60729
 30
0.0
 10
-0.53267
 20
5.60729
 30
0.0
 10
-0.53267
 20
5.60729
 30
0.0
 10
-0.53267
 20
5.60729
 30
0.0
 10
-0.53267
 20
5.80299
 30
0.0
 10
-0.53267
 20
5.80299
 30
0.0
 10
-0.53267
 20
5.80299
 30
0.0
 10
-0.53267
 20
5.83519
 30
0.0
 10
-0.54555
 20
5.85124
 30
0.0
 10
-0.57139
 20
5.85124
 30
0.0
 10
-0.57139
 20
5.85124
 30
0.0
 10
-0.59705
 20
5.85124
 30
0.0
 10
-0.62457
 20
5.83254
 30
0.0
 10
-0.65385
 20
5.79506
 30
0.0
 10
-0.65385
 20
5.79506
 30
0.0
 10
-0.65385
 20
5.79506
 30
0.0
 10
-0.65385
 20
5.60729
 30
0.0
 10
-0.65385
 20
5.60729
 30
0.0
 10
-0.65385
 20
5.60729
 30
0.0
 10
-0.65385
 20
5.60729
 30
0.0
 10
-0.70465
 20
5.60729
 30
0.0
 10
-0.70465
 20
5.60729
 30
0.0
  0
SPLINE
  5
62
330
1F
100
AcDbEntity
  8
Layer 1
100
AcDbSpline
210
0.0
220
0.0
230
1.0
 70
    11
 71
     3
 72
    20
 73
    16
 74
     0
 42
0.0000000001
 43
0.0000000001
 12
1.0
 22
0.0
 32
0.0
 13
1.0
 23
0.0
 33
0.0
 40
0.0
 40
0.0
 40
0.0
 40
0.0
 40
0.2
 40
0.2
 40
0.2
 40
0.2
 40
0.4
 40
0.4
 40
0.4
 40
0.4
 40
0.6
 40
0.6
 40
0.6
 40
0.6
 40
1.0
 40
1.0
 40
1.0
 40
1.0
 10
-0.20952
 20
5.60729
 30
0.0
 10
-0.20952
 20
5.60729
 30
0.0
 10
-0.20952
 20
5.67132
 30
0.0
 10
-0.20952
 20
5.67132
 30
0.0
 10
-0.20952
 20
5.67132
 30
0.0
 10
-0.20952
 20
5.67132
 30
0.0
 10
-0.14549
 20
5.67132
 30
0.0
 10
-0.14549
 20
5.67132
 30
0.0
 10
-0.14549
 20
5.67132
 30
0.0
 10
-0.14549
 20
5.67132
 30
0.0
 10
-0.14549
 20
5.60729
 30
0.0
 10
-0.14549
 20
5.60729
 30
0.0
 10
-0.14549
 20
5.60729
 30
0.0
 10
-0.14549
 20
5.60729
 30
0.0
 10
-0.20952
 20
5.60729
 30
0.0
 10
-0.20952
 20
5.60729
 30
0.0
  0
SPLINE
  5
63
330
1F
100
AcDbEntity
  8
Layer 1
100
AcDbSpline
210
0.0
220
0.0
230
1.0
 70
    11
 71
     3
 72
    20
 73
    16
 74
     0
 42
0.0000000001
 43
0.0000000001
 12
1.0
 22
0.0
 32
0.0
 13
1.0
 23
0.0
 33
0.0
 40
0.0
 40
0.0
 40
0.0
 40
0.0
 40
0.2
 40
0.2
 40
0.2
 40
0.2
 40
0.4
 40
0.4
 40
0.4
 40
0.4
 40
0.6
 40
0.6
 40
0.6
 40
0.6
 40
1.0
 40
1.0
 40
1.0
 40
1.0
 10
-0.04319
 20
5.60729
 30
0.0
 10
-0.04319
 20
5.60729
 30
0.0
 10
-0.04319
 20
6.01528
 30
0.0
 10
-0.04319
 20
6.01528
 30
0.0
 10
-0.04319
 20
6.01528
 30
0.0
 10
-0.04319
 20
6.01528
 30
0.0
 10
0.00761
 20
6.01528
 30
0.0
 10
0.00761
 20
6.01528
 30
0.0
 10
0.00761
 20
6.01528
 30
0.0
 10
0.00761
 20
6.01528
 30
0.0
 10
0.00761
 20
5.60729
 30
0.0
 10
0.00761
 20
5.60729
 30
0.0
 10
0.00761
 20
5.60729
 30
0.0
 10
0.00761
 20
5.60729
 30
0.0
 10
-0.04319
 20
5.60729
 30
0.0
 10
-0.04319
 20
5.60729
 30
0.0
  0
SPLINE
  5
64
330
1F
100
AcDbEntity
  8
Layer 1
100
AcDbSpline
210
0.0
220
0.0
230
1.0
 70
    11
 71
     3
 72
    72
 73
    68
 74
     0
 42
0.0000000001
 43
0.0000000001
 12
1.0
 22
0.0
 32
0.0
 13
1.0
 23
0.0
 33
0.0
 40
0.0
 40
0.0
 40
0.0
 40
0.0
 40
0.0555555555555556
 40
0.0555555555555556
 40
0.0555555555555556
 40
0.0555555555555556
 40
0.1111111111111111
 40
0.1111111111111111
 40
0.1111111111111111
 40
0.1111111111111111
 40
0.1666666666666667
 40
0.1666666666666667
 40
0.1666666666666667
 40
0.1666666666666667
 40
0.2222222222222222
 40
0.2222222222222222
 40
0.2222222222222222
 40
0.2222222222222222
 40
0.2777777777777778
 40
0.2777777777777778
 40
0.2777777777777778
 40
0.2777777777777778
 40
0.3333333333333333
 40
0.3333333333333333
 40
0.3333333333333333
 40
0.3333333333333333
 40
0.3888888888888889
 40
0.3888888888888889
 40
0.3888888888888889
 40
0.3888888888888889
 40
0.4444444444444444
 40
0.4444444444444444
 40
0.4444444444444444
 40
0.4444444444444444
 40
0.5
 40
0.5
 40
0.5
 40
0.5
 40
0.5555555555555556
 40
0.5555555555555556
 40
0.5555555555555556
 40
0.5555555555555556
 40
0.6111111111111112
 40
0.6111111111111112
 40
0.6111111111111112
 40
0.6111111111111112
 40
0.6666666666666666
 40
0.6666666666666666
 40
0.6666666666666666
 40
0.6666666666666666
 40
0.7222222222222222
 40
0.7222222222222222
 40
0.7222222222222222
 40
0.7222222222222222
 40
0.7777777777777778
 40
0.7777777777777778
 40
0.7777777777777778
 40
0.7777777777777778
 40
0.8333333333333334
 40
0.8333333333333334
 40
0.8333333333333334
 40
0.8333333333333334
 40
0.8888888888888888
 40
0.8888888888888888
 40
0.8888888888888888
 40
0.8888888888888888
 40
1.0
 40
1.0
 40
1.0
 40
1.0
 10
0.23515
 20
5.60738
 30
0.0
 10
0.21945
 20
5.60306
 30
0.0
 10
0.20578
 20
5.60094
 30
0.0
 10
0.19423
 20
5.60094
 30
0.0
 10
0.19423
 20
5.60094
 30
0.0
 10
0.1683
 20
5.60094
 30
0.0
 10
0.14811
 20
5.60835
 30
0.0
 10
0.13364
 20
5.62317
 30
0.0
 10
0.13364
 20
5.62317
 30
0.0
 10
0.11909
 20
5.63798
 30
0.0
 10
0.11186
 20
5.65853
 30
0.0
 10
0.11186
 20
5.6849
 30
0.0
 10
0.11186
 20
5.6849
 30
0.0
 10
0.11186
 20
5.6849
 30
0.0
 10
0.11186
 20
5.84965
 30
0.0
 10
0.11186
 20
5.84965
 30
0.0
 10
0.11186
 20
5.84965
 30
0.0
 10
0.11186
 20
5.84965
 30
0.0
 10
0.07676
 20
5.84965
 30
0.0
 10
0.07676
 20
5.84965
 30
0.0
 10
0.07676
 20
5.84965
 30
0.0
 10
0.07676
 20
5.84965
 30
0.0
 10
0.07676
 20
5.88775
 30
0.0
 10
0.07676
 20
5.88775
 30
0.0
 10
0.07676
 20
5.88775
 30
0.0
 10
0.07676
 20
5.88775
 30
0.0
 10
0.11186
 20
5.88775
 30
0.0
 10
0.11186
 20
5.88775
 30
0.0
 10
0.11186
 20
5.88775
 30
0.0
 10
0.11186
 20
5.88775
 30
0.0
 10
0.11186
 20
5.93846
 30
0.0
 10
0.11186
 20
5.93846
 30
0.0
 10
0.11186
 20
5.93846
 30
0.0
 10
0.11186
 20
5.93846
 30
0.0
 10
0.16266
 20
5.94331
 30
0.0
 10
0.16266
 20
5.94331
 30
0.0
 10
0.16266
 20
5.94331
 30
0.0
 10
0.16266
 20
5.94331
 30
0.0
 10
0.16266
 20
5.88775
 30
0.0
 10
0.16266
 20
5.88775
 30
0.0
 10
0.16266
 20
5.88775
 30
0.0
 10
0.16266
 20
5.88775
 30
0.0
 10
0.23621
 20
5.88775
 30
0.0
 10
0.23621
 20
5.88775
 30
0.0
 10
0.23621
 20
5.88775
 30
0.0
 10
0.23621
 20
5.88775
 30
0.0
 10
0.23621
 20
5.84965
 30
0.0
 10
0.23621
 20
5.84965
 30
0.0
 10
0.23621
 20
5.84965
 30
0.0
 10
0.23621
 20
5.84965
 30
0.0
 10
0.16266
 20
5.84965
 30
0.0
 10
0.16266
 20
5.84965
 30
0.0
 10
0.16266
 20
5.84965
 30
0.0
 10
0.16266
 20
5.84965
 30
0.0
 10
0.16266
 20
5.69407
 30
0.0
 10
0.16266
 20
5.69407
 30
0.0
 10
0.16266
 20
5.69407
 30
0.0
 10
0.16266
 20
5.65738
 30
0.0
 10
0.17862
 20
5.63904
 30
0.0
 10
0.21046
 20
5.63904
 30
0.0
 10
0.21046
 20
5.63904
 30
0.0
 10
0.21725
 20
5.63904
 30
0.0
 10
0.22545
 20
5.64019
 30
0.0
 10
0.23515
 20
5.64239
 30
0.0
 10
0.23515
 20
5.64239
 30
0.0
 10
0.23515
 20
5.64239
 30
0.0
 10
0.23515
 20
5.60738
 30
0.0
 10
0.23515
 20
5.60738
 30
0.0
  0
SPLINE
  5
65
330
1F
100
AcDbEntity
  8
Layer 1
100
AcDbSpline
210
0.0
220
0.0
230
1.0
 70
    11
 71
     3
 72
    20
 73
    16
 74
     0
 42
0.0000000001
 43
0.0000000001
 12
1.0
 22
0.0
 32
0.0
 13
1.0
 23
0.0
 33
0.0
 40
0.0
 40
0.0
 40
0.0
 40
0.0
 40
0.2
 40
0.2
 40
0.2
 40
0.2
 40
0.4
 40
0.4
 40
0.4
 40
0.4
 40
0.6
 40
0.6
 40
0.6
 40
0.6
 40
1.0
 40
1.0
 40
1.0
 40
1.0
 10
0.314
 20
5.53056
 30
0.0
 10
0.314
 20
5.53056
 30
0.0
 10
0.45009
 20
5.98988
 30
0.0
 10
0.45009
 20
5.98988
 30
0.0
 10
0.45009
 20
5.98988
 30
0.0
 10
0.45009
 20
5.98988
 30
0.0
 10
0.47698
 20
5.98988
 30
0.0
 10
0.47698
 20
5.98988
 30
0.0
 10
0.47698
 20
5.98988
 30
0.0
 10
0.47698
 20
5.98988
 30
0.0
 10
0.3409
 20
5.53056
 30
0.0
 10
0.3409
 20
5.53056
 30
0.0
 10
0.3409
 20
5.53056
 30
0.0
 10
0.3409
 20
5.53056
 30
0.0
 10
0.314
 20
5.53056
 30
0.0
 10
0.314
 20
5.53056
 30
0.0
  0
SPLINE
  5
66
330
1F
100
AcDbEntity
  8
Layer 1
100
AcDbSpline
210
0.0
220
0.0
230
1.0
 70
    11
 71
     3
 72
    60
 73
    56
 74
     0
 42
0.0000000001
 43
0.0000000001
 12
1.0
 22
0.0
 32
0.0
 13
1.0
 23
0.0
 33
0.0
 40
0.0
 40
0.0
 40
0.0
 40
0.0
 40
0.0666666666666667
 40
0.0666666666666667
 40
0.0666666666666667
 40
0.0666666666666667
 40
0.1333333333333333
 40
0.1333333333333333
 40
0.1333333333333333
 40
0.1333333333333333
 40
0.2
 40
0.2
 40
0.2
 40
0.2
 40
0.2666666666666667
 40
0.2666666666666667
 40
0.2666666666666667
 40
0.2666666666666667
 40
0.3333333333333333
 40
0.3333333333333333
 40
0.3333333333333333
 40
0.3333333333333333
 40
0.4
 40
0.4
 40
0.4
 40
0.4
 40
0.4666666666666667
 40
0.4666666666666667
 40
0.4666666666666667
 40
0.4666666666666667
 40
0.5333333333333333
 40
0.5333333333333333
 40
0.5333333333333333
 40
0.5333333333333333
 40
0.6
 40
0.6
 40
0.6
 40
0.6
 40
0.6666666666666666
 40
0.6666666666666666
 40
0.6666666666666666
 40
0.6666666666666666
 40
0.7333333333333333
 40
0.7333333333333333
 40
0.7333333333333333
 40
0.7333333333333333
 40
0.8
 40
0.8
 40
0.8
 40
0.8
 40
0.8666666666666667
 40
0.8666666666666667
 40
0.8666666666666667
 40
0.8666666666666667
 40
1.0
 40
1.0
 40
1.0
 40
1.0
 10
0.58511
 20
5.60729
 30
0.0
 10
0.58511
 20
5.60729
 30
0.0
 10
0.58511
 20
5.88775
 30
0.0
 10
0.58511
 20
5.88775
 30
0.0
 10
0.58511
 20
5.88775
 30
0.0
 10
0.58511
 20
5.88775
 30
0.0
 10
0.63591
 20
5.88775
 30
0.0
 10
0.63591
 20
5.88775
 30
0.0
 10
0.63591
 20
5.88775
 30
0.0
 10
0.63591
 20
5.88775
 30
0.0
 10
0.63591
 20
5.83474
 30
0.0
 10
0.63591
 20
5.83474
 30
0.0
 10
0.63591
 20
5.83474
 30
0.0
 10
0.66281
 20
5.87399
 30
0.0
 10
0.6958
 20
5.89357
 30
0.0
 10
0.73478
 20
5.89357
 30
0.0
 10
0.73478
 20
5.89357
 30
0.0
 10
0.7593
 20
5.89357
 30
0.0
 10
0.77879
 20
5.8859
 30
0.0
 10
0.79316
 20
5.87046
 30
0.0
 10
0.79316
 20
5.87046
 30
0.0
 10
0.80754
 20
5.85512
 30
0.0
 10
0.81477
 20
5.83439
 30
0.0
 10
0.81477
 20
5.80846
 30
0.0
 10
0.81477
 20
5.80846
 30
0.0
 10
0.81477
 20
5.80846
 30
0.0
 10
0.81477
 20
5.60729
 30
0.0
 10
0.81477
 20
5.60729
 30
0.0
 10
0.81477
 20
5.60729
 30
0.0
 10
0.81477
 20
5.60729
 30
0.0
 10
0.76397
 20
5.60729
 30
0.0
 10
0.76397
 20
5.60729
 30
0.0
 10
0.76397
 20
5.60729
 30
0.0
 10
0.76397
 20
5.60729
 30
0.0
 10
0.76397
 20
5.79188
 30
0.0
 10
0.76397
 20
5.79188
 30
0.0
 10
0.76397
 20
5.79188
 30
0.0
 10
0.76397
 20
5.8127
 30
0.0
 10
0.76088
 20
5.82751
 30
0.0
 10
0.7548
 20
5.83633
 30
0.0
 10
0.7548
 20
5.83633
 30
0.0
 10
0.74862
 20
5.84524
 30
0.0
 10
0.73848
 20
5.84965
 30
0.0
 10
0.72428
 20
5.84965
 30
0.0
 10
0.72428
 20
5.84965
 30
0.0
 10
0.69306
 20
5.84965
 30
0.0
 10
0.6636
 20
5.82928
 30
0.0
 10
0.63591
 20
5.78853
 30
0.0
 10
0.63591
 20
5.78853
 30
0.0
 10
0.63591
 20
5.78853
 30
0.0
 10
0.63591
 20
5.60729
 30
0.0
 10
0.63591
 20
5.60729
 30
0.0
 10
0.63591
 20
5.60729
 30
0.0
 10
0.63591
 20
5.60729
 30
0.0
 10
0.58511
 20
5.60729
 30
0.0
 10
0.58511
 20
5.60729
 30
0.0
  0
SPLINE
  5
67
330
1F
100
AcDbEntity
  8
Layer 1
100
AcDbSpline
210
0.0
220
0.0
230
1.0
 70
    11
 71
     3
 72
    80
 73
    76
 74
     0
 42
0.0000000001
 43
0.0000000001
 12
1.0
 22
0.0
 32
0.0
 13
1.0
 23
0.0
 33
0.0
 40
0.0
 40
0.0
 40
0.0
 40
0.0
 40
0.05
 40
0.05
 40
0.05
 40
0.05
 40
0.1
 40
0.1
 40
0.1
 40
0.1
 40
0.15
 40
0.15
 40
0.15
 40
0.15
 40
0.2
 40
0.2
 40
0.2
 40
0.2
 40
0.25
 40
0.25
 40
0.25
 40
0.25
 40
0.3
 40
0.3
 40
0.3
 40
0.3
 40
0.35
 40
0.35
 40
0.35
 40
0.35
 40
0.4
 40
0.4
 40
0.4
 40
0.4
 40
0.45
 40
0.45
 40
0.45
 40
0.45
 40
0.5
 40
0.5
 40
0.5
 40
0.5
 40
0.55
 40
0.55
 40
0.55
 40
0.55
 40
0.6
 40
0.6
 40
0.6
 40
0.6
 40
0.65
 40
0.65
 40
0.65
 40
0.65
 40
0.7
 40
0.7
 40
0.7
 40
0.7
 40
0.75
 40
0.75
 40
0.75
 40
0.75
 40
0.8
 40
0.8
 40
0.8
 40
0.8
 40
0.85
 40
0.85
 40
0.85
 40
0.85
 40
0.9
 40
0.9
 40
0.9
 40
0.9
 40
1.0
 40
1.0
 40
1.0
 40
1.0
 10
1.0581
 20
5.64301
 30
0.0
 10
1.02759
 20
5.61496
 30
0.0
 10
0.99822
 20
5.60094
 30
0.0
 10
0.97
 20
5.60094
 30
0.0
 10
0.97
 20
5.60094
 30
0.0
 10
0.9468
 20
5.60094
 30
0.0
 10
0.92749
 20
5.60817
 30
0.0
 10
0.91223
 20
5.62272
 30
0.0
 10
0.91223
 20
5.62272
 30
0.0
 10
0.89688
 20
5.63728
 30
0.0
 10
0.88921
 20
5.65562
 30
0.0
 10
0.88921
 20
5.67776
 30
0.0
 10
0.88921
 20
5.67776
 30
0.0
 10
0.88921
 20
5.70836
 30
0.0
 10
0.90208
 20
5.73191
 30
0.0
 10
0.92784
 20
5.74831
 30
0.0
 10
0.92784
 20
5.74831
 30
0.0
 10
0.95359
 20
5.76472
 30
0.0
 10
0.99054
 20
5.77292
 30
0.0
 10
1.0387
 20
5.77292
 30
0.0
 10
1.0387
 20
5.77292
 30
0.0
 10
1.0387
 20
5.77292
 30
0.0
 10
1.05061
 20
5.77292
 30
0.0
 10
1.05061
 20
5.77292
 30
0.0
 10
1.05061
 20
5.77292
 30
0.0
 10
1.05061
 20
5.77292
 30
0.0
 10
1.05061
 20
5.8067
 30
0.0
 10
1.05061
 20
5.8067
 30
0.0
 10
1.05061
 20
5.8067
 30
0.0
 10
1.05061
 20
5.83924
 30
0.0
 10
1.03367
 20
5.85547
 30
0.0
 10
0.99972
 20
5.85547
 30
0.0
 10
0.99972
 20
5.85547
 30
0.0
 10
0.97343
 20
5.85547
 30
0.0
 10
0.94468
 20
5.84718
 30
0.0
 10
0.91355
 20
5.8306
 30
0.0
 10
0.91355
 20
5.8306
 30
0.0
 10
0.91355
 20
5.8306
 30
0.0
 10
0.91355
 20
5.8724
 30
0.0
 10
0.91355
 20
5.8724
 30
0.0
 10
0.91355
 20
5.8724
 30
0.0
 10
0.94777
 20
5.88652
 30
0.0
 10
0.98005
 20
5.89357
 30
0.0
 10
1.0103
 20
5.89357
 30
0.0
 10
1.0103
 20
5.89357
 30
0.0
 10
1.04143
 20
5.89357
 30
0.0
 10
1.06445
 20
5.88652
 30
0.0
 10
1.07918
 20
5.87232
 30
0.0
 10
1.07918
 20
5.87232
 30
0.0
 10
1.094
 20
5.85812
 30
0.0
 10
1.10141
 20
5.83624
 30
0.0
 10
1.10141
 20
5.8067
 30
0.0
 10
1.10141
 20
5.8067
 30
0.0
 10
1.10141
 20
5.8067
 30
0.0
 10
1.10141
 20
5.67996
 30
0.0
 10
1.10141
 20
5.67996
 30
0.0
 10
1.10141
 20
5.67996
 30
0.0
 10
1.10141
 20
5.65095
 30
0.0
 10
1.11031
 20
5.63639
 30
0.0
 10
1.12822
 20
5.63639
 30
0.0
 10
1.12822
 20
5.63639
 30
0.0
 10
1.13042
 20
5.63639
 30
0.0
 10
1.13369
 20
5.63675
 30
0.0
 10
1.13801
 20
5.63745
 30
0.0
 10
1.13801
 20
5.63745
 30
0.0
 10
1.13801
 20
5.63745
 30
0.0
 10
1.14162
 20
5.60923
 30
0.0
 10
1.14162
 20
5.60923
 30
0.0
 10
1.14162
 20
5.60923
 30
0.0
 10
1.13007
 20
5.60367
 30
0.0
 10
1.11737
 20
5.60094
 30
0.0
 10
1.10343
 20
5.60094
 30
0.0
 10
1.10343
 20
5.60094
 30
0.0
 10
1.07971
 20
5.60094
 30
0.0
 10
1.06463
 20
5.61496
 30
0.0
 10
1.0581
 20
5.64301
 30
0.0
  0
SPLINE
  5
68
330
1F
100
AcDbEntity
  8
Layer 1
100
AcDbSpline
210
0.0
220
0.0
230
1.0
 70
    11
 71
     3
 72
    32
 73
    28
 74
     0
 42
0.0000000001
 43
0.0000000001
 12
1.0
 22
0.0
 32
0.0
 13
1.0
 23
0.0
 33
0.0
 40
0.0
 40
0.0
 40
0.0
 40
0.0
 40
0.125
 40
0.125
 40
0.125
 40
0.125
 40
0.25
 40
0.25
 40
0.25
 40
0.25
 40
0.375
 40
0.375
 40
0.375
 40
0.375
 40
0.5
 40
0.5
 40
0.5
 40
0.5
 40
0.625
 40
0.625
 40
0.625
 40
0.625
 40
0.75
 40
0.75
 40
0.75
 40
0.75
 40
1.0
 40
1.0
 40
1.0
 40
1.0
 10
1.05061
 20
5.6707
 30
0.0
 10
1.05061
 20
5.6707
 30
0.0
 10
1.05061
 20
5.74276
 30
0.0
 10
1.05061
 20
5.74276
 30
0.0
 10
1.05061
 20
5.74276
 30
0.0
 10
1.05061
 20
5.74276
 30
0.0
 10
1.03429
 20
5.74329
 30
0.0
 10
1.03429
 20
5.74329
 30
0.0
 10
1.03429
 20
5.74329
 30
0.0
 10
1.00607
 20
5.74329
 30
0.0
 10
0.98331
 20
5.73808
 30
0.0
 10
0.96594
 20
5.72768
 30
0.0
 10
0.96594
 20
5.72768
 30
0.0
 10
0.94865
 20
5.71718
 30
0.0
 10
0.94001
 20
5.70333
 30
0.0
 10
0.94001
 20
5.68605
 30
0.0
 10
0.94001
 20
5.68605
 30
0.0
 10
0.94001
 20
5.67397
 30
0.0
 10
0.94433
 20
5.66373
 30
0.0
 10
0.95289
 20
5.65536
 30
0.0
 10
0.95289
 20
5.65536
 30
0.0
 10
0.96153
 20
5.64698
 30
0.0
 10
0.97202
 20
5.64274
 30
0.0
 10
0.98446
 20
5.64274
 30
0.0
 10
0.98446
 20
5.64274
 30
0.0
 10
1.00563
 20
5.64274
 30
0.0
 10
1.02767
 20
5.65209
 30
0.0
 10
1.05061
 20
5.6707
 30
0.0
  0
SPLINE
  5
69
330
1F
100
AcDbEntity
  8
Layer 1
100
AcDbSpline
210
0.0
220
0.0
230
1.0
 70
    11
 71
     3
 72
    92
 73
    88
 74
     0
 42
0.0000000001
 43
0.0000000001
 12
1.0
 22
0.0
 32
0.0
 13
1.0
 23
0.0
 33
0.0
 40
0.0
 40
0.0
 40
0.0
 40
0.0
 40
0.0434782608695652
 40
0.0434782608695652
 40
0.0434782608695652
 40
0.0434782608695652
 40
0.0869565217391304
 40
0.0869565217391304
 40
0.0869565217391304
 40
0.0869565217391304
 40
0.1304347826086956
 40
0.1304347826086956
 40
0.1304347826086956
 40
0.1304347826086956
 40
0.1739130434782609
 40
0.1739130434782609
 40
0.1739130434782609
 40
0.1739130434782609
 40
0.2173913043478261
 40
0.2173913043478261
 40
0.2173913043478261
 40
0.2173913043478261
 40
0.2608695652173913
 40
0.2608695652173913
 40
0.2608695652173913
 40
0.2608695652173913
 40
0.3043478260869565
 40
0.3043478260869565
 40
0.3043478260869565
 40
0.3043478260869565
 40
0.3478260869565217
 40
0.3478260869565217
 40
0.3478260869565217
 40
0.3478260869565217
 40
0.391304347826087
 40
0.391304347826087
 40
0.391304347826087
 40
0.391304347826087
 40
0.4347826086956522
 40
0.4347826086956522
 40
0.4347826086956522
 40
0.4347826086956522
 40
0.4782608695652174
 40
0.4782608695652174
 40
0.4782608695652174
 40
0.4782608695652174
 40
0.5217391304347826
 40
0.5217391304347826
 40
0.5217391304347826
 40
0.5217391304347826
 40
0.5652173913043478
 40
0.5652173913043478
 40
0.5652173913043478
 40
0.5652173913043478
 40
0.6086956521739131
 40
0.6086956521739131
 40
0.6086956521739131
 40
0.6086956521739131
 40
0.6521739130434783
 40
0.6521739130434783
 40
0.6521739130434783
 40
0.6521739130434783
 40
0.6956521739130435
 40
0.6956521739130435
 40
0.6956521739130435
 40
0.6956521739130435
 40
0.7391304347826086
 40
0.7391304347826086
 40
0.7391304347826086
 40
0.7391304347826086
 40
0.782608695652174
 40
0.782608695652174
 40
0.782608695652174
 40
0.782608695652174
 40
0.8260869565217391
 40
0.8260869565217391
 40
0.8260869565217391
 40
0.8260869565217391
 40
0.8695652173913043
 40
0.8695652173913043
 40
0.8695652173913043
 40
0.8695652173913043
 40
0.9130434782608695
 40
0.9130434782608695
 40
0.9130434782608695
 40
0.9130434782608695
 40
1.0
 40
1.0
 40
1.0
 40
1.0
 10
1.19569
 20
5.61734
 30
0.0
 10
1.19569
 20
5.61734
 30
0.0
 10
1.19569
 20
5.66391
 30
0.0
 10
1.19569
 20
5.66391
 30
0.0
 10
1.19569
 20
5.66391
 30
0.0
 10
1.22894
 20
5.64733
 30
0.0
 10
1.25778
 20
5.63904
 30
0.0
 10
1.28238
 20
5.63904
 30
0.0
 10
1.28238
 20
5.63904
 30
0.0
 10
1.29702
 20
5.63904
 30
0.0
 10
1.30919
 20
5.64301
 30
0.0
 10
1.31881
 20
5.65095
 30
0.0
 10
1.31881
 20
5.65095
 30
0.0
 10
1.32842
 20
5.6588
 30
0.0
 10
1.33327
 20
5.66867
 30
0.0
 10
1.33327
 20
5.68058
 30
0.0
 10
1.33327
 20
5.68058
 30
0.0
 10
1.33327
 20
5.69795
 30
0.0
 10
1.31978
 20
5.71233
 30
0.0
 10
1.29279
 20
5.72371
 30
0.0
 10
1.29279
 20
5.72371
 30
0.0
 10
1.29279
 20
5.72371
 30
0.0
 10
1.26307
 20
5.73632
 30
0.0
 10
1.26307
 20
5.73632
 30
0.0
 10
1.26307
 20
5.73632
 30
0.0
 10
1.21923
 20
5.75449
 30
0.0
 10
1.19727
 20
5.78077
 30
0.0
 10
1.19727
 20
5.8149
 30
0.0
 10
1.19727
 20
5.8149
 30
0.0
 10
1.19727
 20
5.83933
 30
0.0
 10
1.20592
 20
5.85856
 30
0.0
 10
1.2232
 20
5.87258
 30
0.0
 10
1.2232
 20
5.87258
 30
0.0
 10
1.24049
 20
5.8866
 30
0.0
 10
1.26421
 20
5.89357
 30
0.0
 10
1.29429
 20
5.89357
 30
0.0
 10
1.29429
 20
5.89357
 30
0.0
 10
1.3099
 20
5.89357
 30
0.0
 10
1.3293
 20
5.89145
 30
0.0
 10
1.35232
 20
5.88713
 30
0.0
 10
1.35232
 20
5.88713
 30
0.0
 10
1.35232
 20
5.88713
 30
0.0
 10
1.3629
 20
5.8851
 30
0.0
 10
1.3629
 20
5.8851
 30
0.0
 10
1.3629
 20
5.8851
 30
0.0
 10
1.3629
 20
5.8851
 30
0.0
 10
1.3629
 20
5.84277
 30
0.0
 10
1.3629
 20
5.84277
 30
0.0
 10
1.3629
 20
5.84277
 30
0.0
 10
1.33459
 20
5.85124
 30
0.0
 10
1.31202
 20
5.85547
 30
0.0
 10
1.29517
 20
5.85547
 30
0.0
 10
1.29517
 20
5.85547
 30
0.0
 10
1.28035
 20
5.85547
 30
0.0
 10
1.26862
 20
5.85221
 30
0.0
 10
1.25972
 20
5.84577
 30
0.0
 10
1.25972
 20
5.84577
 30
0.0
 10
1.2509
 20
5.83933
 30
0.0
 10
1.24649
 20
5.83069
 30
0.0
 10
1.24649
 20
5.81984
 30
0.0
 10
1.24649
 20
5.81984
 30
0.0
 10
1.24649
 20
5.80458
 30
0.0
 10
1.25883
 20
5.79162
 30
0.0
 10
1.28362
 20
5.78112
 30
0.0
 10
1.28362
 20
5.78112
 30
0.0
 10
1.28362
 20
5.78112
 30
0.0
 10
1.30805
 20
5.7708
 30
0.0
 10
1.30805
 20
5.7708
 30
0.0
 10
1.30805
 20
5.7708
 30
0.0
 10
1.33574
 20
5.75916
 30
0.0
 10
1.35532
 20
5.74681
 30
0.0
 10
1.36678
 20
5.73385
 30
0.0
 10
1.36678
 20
5.73385
 30
0.0
 10
1.37834
 20
5.72089
 30
0.0
 10
1.38407
 20
5.70466
 30
0.0
 10
1.38407
 20
5.68525
 30
0.0
 10
1.38407
 20
5.68525
 30
0.0
 10
1.38407
 20
5.66065
 30
0.0
 10
1.37437
 20
5.64045
 30
0.0
 10
1.35488
 20
5.62466
 30
0.0
 10
1.35488
 20
5.62466
 30
0.0
 10
1.33548
 20
5.60888
 30
0.0
 10
1.3106
 20
5.60094
 30
0.0
 10
1.28035
 20
5.60094
 30
0.0
 10
1.28035
 20
5.60094
 30
0.0
 10
1.25707
 20
5.60094
 30
0.0
 10
1.22894
 20
5.60641
 30
0.0
 10
1.19569
 20
5.61734
 30
0.0
  0
SPLINE
  5
6A
330
1F
100
AcDbEntity
  8
Layer 1
100
AcDbSpline
210
0.0
220
0.0
230
1.0
 70
    11
 71
     3
 72
    72
 73
    68
 74
     0
 42
0.0000000001
 43
0.0000000001
 12
1.0
 22
0.0
 32
0.0
 13
1.0
 23
0.0
 33
0.0
 40
0.0
 40
0.0
 40
0.0
 40
0.0
 40
0.0555555555555556
 40
0.0555555555555556
 40
0.0555555555555556
 40
0.0555555555555556
 40
0.1111111111111111
 40
0.1111111111111111
 40
0.1111111111111111
 40
0.1111111111111111
 40
0.1666666666666667
 40
0.1666666666666667
 40
0.1666666666666667
 40
0.1666666666666667
 40
0.2222222222222222
 40
0.2222222222222222
 40
0.2222222222222222
 40
0.2222222222222222
 40
0.2777777777777778
 40
0.2777777777777778
 40
0.2777777777777778
 40
0.2777777777777778
 40
0.3333333333333333
 40
0.3333333333333333
 40
0.3333333333333333
 40
0.3333333333333333
 40
0.3888888888888889
 40
0.3888888888888889
 40
0.3888888888888889
 40
0.3888888888888889
 40
0.4444444444444444
 40
0.4444444444444444
 40
0.4444444444444444
 40
0.4444444444444444
 40
0.5
 40
0.5
 40
0.5
 40
0.5
 40
0.5555555555555556
 40
0.5555555555555556
 40
0.5555555555555556
 40
0.5555555555555556
 40
0.6111111111111112
 40
0.6111111111111112
 40
0.6111111111111112
 40
0.6111111111111112
 40
0.6666666666666666
 40
0.6666666666666666
 40
0.6666666666666666
 40
0.6666666666666666
 40
0.7222222222222222
 40
0.7222222222222222
 40
0.7222222222222222
 40
0.7222222222222222
 40
0.7777777777777778
 40
0.7777777777777778
 40
0.7777777777777778
 40
0.7777777777777778
 40
0.8333333333333334
 40
0.8333333333333334
 40
0.8333333333333334
 40
0.8333333333333334
 40
0.8888888888888888
 40
0.8888888888888888
 40
0.8888888888888888
 40
0.8888888888888888
 40
1.0
 40
1.0
 40
1.0
 40
1.0
 10
1.60094
 20
5.60738
 30
0.0
 10
1.58524
 20
5.60306
 30
0.0
 10
1.57157
 20
5.60094
 30
0.0
 10
1.56002
 20
5.60094
 30
0.0
 10
1.56002
 20
5.60094
 30
0.0
 10
1.53409
 20
5.60094
 30
0.0
 10
1.5139
 20
5.60835
 30
0.0
 10
1.49943
 20
5.62317
 30
0.0
 10
1.49943
 20
5.62317
 30
0.0
 10
1.48488
 20
5.63798
 30
0.0
 10
1.47765
 20
5.65853
 30
0.0
 10
1.47765
 20
5.6849
 30
0.0
 10
1.47765
 20
5.6849
 30
0.0
 10
1.47765
 20
5.6849
 30
0.0
 10
1.47765
 20
5.84965
 30
0.0
 10
1.47765
 20
5.84965
 30
0.0
 10
1.47765
 20
5.84965
 30
0.0
 10
1.47765
 20
5.84965
 30
0.0
 10
1.44255
 20
5.84965
 30
0.0
 10
1.44255
 20
5.84965
 30
0.0
 10
1.44255
 20
5.84965
 30
0.0
 10
1.44255
 20
5.84965
 30
0.0
 10
1.44255
 20
5.88775
 30
0.0
 10
1.44255
 20
5.88775
 30
0.0
 10
1.44255
 20
5.88775
 30
0.0
 10
1.44255
 20
5.88775
 30
0.0
 10
1.47765
 20
5.88775
 30
0.0
 10
1.47765
 20
5.88775
 30
0.0
 10
1.47765
 20
5.88775
 30
0.0
 10
1.47765
 20
5.88775
 30
0.0
 10
1.47765
 20
5.93846
 30
0.0
 10
1.47765
 20
5.93846
 30
0.0
 10
1.47765
 20
5.93846
 30
0.0
 10
1.47765
 20
5.93846
 30
0.0
 10
1.52845
 20
5.94331
 30
0.0
 10
1.52845
 20
5.94331
 30
0.0
 10
1.52845
 20
5.94331
 30
0.0
 10
1.52845
 20
5.94331
 30
0.0
 10
1.52845
 20
5.88775
 30
0.0
 10
1.52845
 20
5.88775
 30
0.0
 10
1.52845
 20
5.88775
 30
0.0
 10
1.52845
 20
5.88775
 30
0.0
 10
1.602
 20
5.88775
 30
0.0
 10
1.602
 20
5.88775
 30
0.0
 10
1.602
 20
5.88775
 30
0.0
 10
1.602
 20
5.88775
 30
0.0
 10
1.602
 20
5.84965
 30
0.0
 10
1.602
 20
5.84965
 30
0.0
 10
1.602
 20
5.84965
 30
0.0
 10
1.602
 20
5.84965
 30
0.0
 10
1.52845
 20
5.84965
 30
0.0
 10
1.52845
 20
5.84965
 30
0.0
 10
1.52845
 20
5.84965
 30
0.0
 10
1.52845
 20
5.84965
 30
0.0
 10
1.52845
 20
5.69407
 30
0.0
 10
1.52845
 20
5.69407
 30
0.0
 10
1.52845
 20
5.69407
 30
0.0
 10
1.52845
 20
5.65738
 30
0.0
 10
1.54441
 20
5.63904
 30
0.0
 10
1.57625
 20
5.63904
 30
0.0
 10
1.57625
 20
5.63904
 30
0.0
 10
1.58304
 20
5.63904
 30
0.0
 10
1.59124
 20
5.64019
 30
0.0
 10
1.60094
 20
5.64239
 30
0.0
 10
1.60094
 20
5.64239
 30
0.0
 10
1.60094
 20
5.64239
 30
0.0
 10
1.60094
 20
5.60738
 30
0.0
 10
1.60094
 20
5.60738
 30
0.0
  0
SPLINE
  5
6B
330
1F
100
AcDbEntity
  8
Layer 1
100
AcDbSpline
210
0.0
220
0.0
230
1.0
 70
    11
 71
     3
 72
    36
 73
    32
 74
     0
 42
0.0000000001
 43
0.0000000001
 12
1.0
 22
0.0
 32
0.0
 13
1.0
 23
0.0
 33
0.0
 40
0.0
 40
0.0
 40
0.0
 40
0.0
 40
0.1111111111111111
 40
0.1111111111111111
 40
0.1111111111111111
 40
0.1111111111111111
 40
0.2222222222222222
 40
0.2222222222222222
 40
0.2222222222222222
 40
0.2222222222222222
 40
0.3333333333333333
 40
0.3333333333333333
 40
0.3333333333333333
 40
0.3333333333333333
 40
0.4444444444444444
 40
0.4444444444444444
 40
0.4444444444444444
 40
0.4444444444444444
 40
0.5555555555555556
 40
0.5555555555555556
 40
0.5555555555555556
 40
0.5555555555555556
 40
0.6666666666666666
 40
0.6666666666666666
 40
0.6666666666666666
 40
0.6666666666666666
 40
0.7777777777777778
 40
0.7777777777777778
 40
0.7777777777777778
 40
0.7777777777777778
 40
1.0
 40
1.0
 40
1.0
 40
1.0
 10
1.69002
 20
5.50516
 30
0.0
 10
1.69002
 20
5.50516
 30
0.0
 10
1.73553
 20
5.60694
 30
0.0
 10
1.73553
 20
5.60694
 30
0.0
 10
1.73553
 20
5.60694
 30
0.0
 10
1.73553
 20
5.60694
 30
0.0
 10
1.62687
 20
5.88775
 30
0.0
 10
1.62687
 20
5.88775
 30
0.0
 10
1.62687
 20
5.88775
 30
0.0
 10
1.62687
 20
5.88775
 30
0.0
 10
1.68138
 20
5.88775
 30
0.0
 10
1.68138
 20
5.88775
 30
0.0
 10
1.68138
 20
5.88775
 30
0.0
 10
1.68138
 20
5.88775
 30
0.0
 10
1.76216
 20
5.67538
 30
0.0
 10
1.76216
 20
5.67538
 30
0.0
 10
1.76216
 20
5.67538
 30
0.0
 10
1.76216
 20
5.67538
 30
0.0
 10
1.84833
 20
5.88775
 30
0.0
 10
1.84833
 20
5.88775
 30
0.0
 10
1.84833
 20
5.88775
 30
0.0
 10
1.84833
 20
5.88775
 30
0.0
 10
1.89622
 20
5.88775
 30
0.0
 10
1.89622
 20
5.88775
 30
0.0
 10
1.89622
 20
5.88775
 30
0.0
 10
1.89622
 20
5.88775
 30
0.0
 10
1.74294
 20
5.50516
 30
0.0
 10
1.74294
 20
5.50516
 30
0.0
 10
1.74294
 20
5.50516
 30
0.0
 10
1.74294
 20
5.50516
 30
0.0
 10
1.69002
 20
5.50516
 30
0.0
 10
1.69002
 20
5.50516
 30
0.0
  0
SPLINE
  5
6C
330
1F
100
AcDbEntity
  8
Layer 1
100
AcDbSpline
210
0.0
220
0.0
230
1.0
 70
    11
 71
     3
 72
    20
 73
    16
 74
     0
 42
0.0000000001
 43
0.0000000001
 12
1.0
 22
0.0
 32
0.0
 13
1.0
 23
0.0
 33
0.0
 40
0.0
 40
0.0
 40
0.0
 40
0.0
 40
0.2
 40
0.2
 40
0.2
 40
0.2
 40
0.4
 40
0.4
 40
0.4
 40
0.4
 40
0.6
 40
0.6
 40
0.6
 40
0.6
 40
1.0
 40
1.0
 40
1.0
 40
1.0
 10
1.92136
 20
5.56919
 30
0.0
 10
1.92136
 20
5.56919
 30
0.0
 10
1.92136
 20
5.60729
 30
0.0
 10
1.92136
 20
5.60729
 30
0.0
 10
1.92136
 20
5.60729
 30
0.0
 10
1.92136
 20
5.60729
 30
0.0
 10
2.14149
 20
5.60729
 30
0.0
 10
2.14149
 20
5.60729
 30
0.0
 10
2.14149
 20
5.60729
 30
0.0
 10
2.14149
 20
5.60729
 30
0.0
 10
2.14149
 20
5.56919
 30
0.0
 10
2.14149
 20
5.56919
 30
0.0
 10
2.14149
 20
5.56919
 30
0.0
 10
2.14149
 20
5.56919
 30
0.0
 10
1.92136
 20
5.56919
 30
0.0
 10
1.92136
 20
5.56919
 30
0.0
  0
SPLINE
  5
6D
330
1F
100
AcDbEntity
  8
Layer 1
100
AcDbSpline
210
0.0
220
0.0
230
1.0
 70
    11
 71
     3
 72
    48
 73
    44
 74
     0
 42
0.0000000001
 43
0.0000000001
 12
1.0
 22
0.0
 32
0.0
 13
1.0
 23
0.0
 33
0.0
 40
0.0
 40
0.0
 40
0.0
 40
0.0
 40
0.0833333333333333
 40
0.0833333333333333
 40
0.0833333333333333
 40
0.0833333333333333
 40
0.1666666666666667
 40
0.1666666666666667
 40
0.1666666666666667
 40
0.1666666666666667
 40
0.25
 40
0.25
 40
0.25
 40
0.25
 40
0.3333333333333333
 40
0.3333333333333333
 40
0.3333333333333333
 40
0.3333333333333333
 40
0.4166666666666667
 40
0.4166666666666667
 40
0.4166666666666667
 40
0.4166666666666667
 40
0.5
 40
0.5
 40
0.5
 40
0.5
 40
0.5833333333333334
 40
0.5833333333333334
 40
0.5833333333333334
 40
0.5833333333333334
 40
0.6666666666666666
 40
0.6666666666666666
 40
0.6666666666666666
 40
0.6666666666666666
 40
0.75
 40
0.75
 40
0.75
 40
0.75
 40
0.8333333333333334
 40
0.8333333333333334
 40
0.8333333333333334
 40
0.8333333333333334
 40
1.0
 40
1.0
 40
1.0
 40
1.0
 10
2.39497
 20
5.60729
 30
0.0
 10
2.39497
 20
5.60729
 30
0.0
 10
2.39497
 20
5.65994
 30
0.0
 10
2.39497
 20
5.65994
 30
0.0
 10
2.39497
 20
5.65994
 30
0.0
 10
2.37424
 20
5.62061
 30
0.0
 10
2.34302
 20
5.60094
 30
0.0
 10
2.3013
 20
5.60094
 30
0.0
 10
2.3013
 20
5.60094
 30
0.0
 10
2.26744
 20
5.60094
 30
0.0
 10
2.2408
 20
5.6132
 30
0.0
 10
2.2214
 20
5.63781
 30
0.0
 10
2.2214
 20
5.63781
 30
0.0
 10
2.202
 20
5.66241
 30
0.0
 10
2.1923
 20
5.69601
 30
0.0
 10
2.1923
 20
5.73861
 30
0.0
 10
2.1923
 20
5.73861
 30
0.0
 10
2.1923
 20
5.78518
 30
0.0
 10
2.20332
 20
5.82266
 30
0.0
 10
2.22528
 20
5.85106
 30
0.0
 10
2.22528
 20
5.85106
 30
0.0
 10
2.24733
 20
5.87937
 30
0.0
 10
2.27626
 20
5.89357
 30
0.0
 10
2.31215
 20
5.89357
 30
0.0
 10
2.31215
 20
5.89357
 30
0.0
 10
2.3454
 20
5.89357
 30
0.0
 10
2.37309
 20
5.88087
 30
0.0
 10
2.39497
 20
5.85538
 30
0.0
 10
2.39497
 20
5.85538
 30
0.0
 10
2.39497
 20
5.85538
 30
0.0
 10
2.39497
 20
6.01528
 30
0.0
 10
2.39497
 20
6.01528
 30
0.0
 10
2.39497
 20
6.01528
 30
0.0
 10
2.39497
 20
6.01528
 30
0.0
 10
2.44577
 20
6.01528
 30
0.0
 10
2.44577
 20
6.01528
 30
0.0
 10
2.44577
 20
6.01528
 30
0.0
 10
2.44577
 20
6.01528
 30
0.0
 10
2.44577
 20
5.60729
 30
0.0
 10
2.44577
 20
5.60729
 30
0.0
 10
2.44577
 20
5.60729
 30
0.0
 10
2.44577
 20
5.60729
 30
0.0
 10
2.39497
 20
5.60729
 30
0.0
 10
2.39497
 20
5.60729
 30
0.0
  0
SPLINE
  5
6E
330
1F
100
AcDbEntity
  8
Layer 1
100
AcDbSpline
210
0.0
220
0.0
230
1.0
 70
    11
 71
     3
 72
    28
 73
    24
 74
     0
 42
0.0000000001
 43
0.0000000001
 12
1.0
 22
0.0
 32
0.0
 13
1.0
 23
0.0
 33
0.0
 40
0.0
 40
0.0
 40
0.0
 40
0.0
 40
0.1428571428571428
 40
0.1428571428571428
 40
0.1428571428571428
 40
0.1428571428571428
 40
0.2857142857142857
 40
0.2857142857142857
 40
0.2857142857142857
 40
0.2857142857142857
 40
0.4285714285714285
 40
0.4285714285714285
 40
0.4285714285714285
 40
0.4285714285714285
 40
0.5714285714285714
 40
0.5714285714285714
 40
0.5714285714285714
 40
0.5714285714285714
 40
0.7142857142857143
 40
0.7142857142857143
 40
0.7142857142857143
 40
0.7142857142857143
 40
1.0
 40
1.0
 40
1.0
 40
1.0
 10
2.39497
 20
5.82063
 30
0.0
 10
2.3686
 20
5.84383
 30
0.0
 10
2.34364
 20
5.85547
 30
0.0
 10
2.32
 20
5.85547
 30
0.0
 10
2.32
 20
5.85547
 30
0.0
 10
2.29672
 20
5.85547
 30
0.0
 10
2.27873
 20
5.84577
 30
0.0
 10
2.26594
 20
5.82628
 30
0.0
 10
2.26594
 20
5.82628
 30
0.0
 10
2.25315
 20
5.80688
 30
0.0
 10
2.2468
 20
5.77936
 30
0.0
 10
2.2468
 20
5.74373
 30
0.0
 10
2.2468
 20
5.74373
 30
0.0
 10
2.2468
 20
5.6782
 30
0.0
 10
2.2685
 20
5.64539
 30
0.0
 10
2.31198
 20
5.64539
 30
0.0
 10
2.31198
 20
5.64539
 30
0.0
 10
2.3402
 20
5.64539
 30
0.0
 10
2.36789
 20
5.66082
 30
0.0
 10
2.39497
 20
5.6916
 30
0.0
 10
2.39497
 20
5.6916
 30
0.0
 10
2.39497
 20
5.6916
 30
0.0
 10
2.39497
 20
5.82063
 30
0.0
 10
2.39497
 20
5.82063
 30
0.0
  0
SPLINE
  5
6F
330
1F
100
AcDbEntity
  8
Layer 1
100
AcDbSpline
210
0.0
220
0.0
230
1.0
 70
    11
 71
     3
 72
    36
 73
    32
 74
     0
 42
0.0000000001
 43
0.0000000001
 12
1.0
 22
0.0
 32
0.0
 13
1.0
 23
0.0
 33
0.0
 40
0.0
 40
0.0
 40
0.0
 40
0.0
 40
0.1111111111111111
 40
0.1111111111111111
 40
0.1111111111111111
 40
0.1111111111111111
 40
0.2222222222222222
 40
0.2222222222222222
 40
0.2222222222222222
 40
0.2222222222222222
 40
0.3333333333333333
 40
0.3333333333333333
 40
0.3333333333333333
 40
0.3333333333333333
 40
0.4444444444444444
 40
0.4444444444444444
 40
0.4444444444444444
 40
0.4444444444444444
 40
0.5555555555555556
 40
0.5555555555555556
 40
0.5555555555555556
 40
0.5555555555555556
 40
0.6666666666666666
 40
0.6666666666666666
 40
0.6666666666666666
 40
0.6666666666666666
 40
0.7777777777777778
 40
0.7777777777777778
 40
0.7777777777777778
 40
0.7777777777777778
 40
1.0
 40
1.0
 40
1.0
 40
1.0
 10
2.6592
 20
5.60094
 30
0.0
 10
2.61801
 20
5.60094
 30
0.0
 10
2.58538
 20
5.61408
 30
0.0
 10
2.56139
 20
5.64036
 30
0.0
 10
2.56139
 20
5.64036
 30
0.0
 10
2.53731
 20
5.66665
 30
0.0
 10
2.52532
 20
5.70236
 30
0.0
 10
2.52532
 20
5.74743
 30
0.0
 10
2.52532
 20
5.74743
 30
0.0
 10
2.52532
 20
5.79241
 30
0.0
 10
2.53731
 20
5.82804
 30
0.0
 10
2.56139
 20
5.85424
 30
0.0
 10
2.56139
 20
5.85424
 30
0.0
 10
2.58538
 20
5.88043
 30
0.0
 10
2.61801
 20
5.89357
 30
0.0
 10
2.6592
 20
5.89357
 30
0.0
 10
2.6592
 20
5.89357
 30
0.0
 10
2.70038
 20
5.89357
 30
0.0
 10
2.73301
 20
5.88043
 30
0.0
 10
2.757
 20
5.85424
 30
0.0
 10
2.757
 20
5.85424
 30
0.0
 10
2.78108
 20
5.82804
 30
0.0
 10
2.79308
 20
5.79241
 30
0.0
 10
2.79308
 20
5.74743
 30
0.0
 10
2.79308
 20
5.74743
 30
0.0
 10
2.79308
 20
5.70236
 30
0.0
 10
2.78108
 20
5.66665
 30
0.0
 10
2.757
 20
5.64036
 30
0.0
 10
2.757
 20
5.64036
 30
0.0
 10
2.73301
 20
5.61408
 30
0.0
 10
2.70038
 20
5.60094
 30
0.0
 10
2.6592
 20
5.60094
 30
0.0
  0
SPLINE
  5
70
330
1F
100
AcDbEntity
  8
Layer 1
100
AcDbSpline
210
0.0
220
0.0
230
1.0
 70
    11
 71
     3
 72
    36
 73
    32
 74
     0
 42
0.0000000001
 43
0.0000000001
 12
1.0
 22
0.0
 32
0.0
 13
1.0
 23
0.0
 33
0.0
 40
0.0
 40
0.0
 40
0.0
 40
0.0
 40
0.1111111111111111
 40
0.1111111111111111
 40
0.1111111111111111
 40
0.1111111111111111
 40
0.2222222222222222
 40
0.2222222222222222
 40
0.2222222222222222
 40
0.2222222222222222
 40
0.3333333333333333
 40
0.3333333333333333
 40
0.3333333333333333
 40
0.3333333333333333
 40
0.4444444444444444
 40
0.4444444444444444
 40
0.4444444444444444
 40
0.4444444444444444
 40
0.5555555555555556
 40
0.5555555555555556
 40
0.5555555555555556
 40
0.5555555555555556
 40
0.6666666666666666
 40
0.6666666666666666
 40
0.6666666666666666
 40
0.6666666666666666
 40
0.7777777777777778
 40
0.7777777777777778
 40
0.7777777777777778
 40
0.7777777777777778
 40
1.0
 40
1.0
 40
1.0
 40
1.0
 10
2.65911
 20
5.63904
 30
0.0
 10
2.68424
 20
5.63904
 30
0.0
 10
2.70382
 20
5.64848
 30
0.0
 10
2.71776
 20
5.66744
 30
0.0
 10
2.71776
 20
5.66744
 30
0.0
 10
2.7316
 20
5.68631
 30
0.0
 10
2.73857
 20
5.71304
 30
0.0
 10
2.73857
 20
5.74743
 30
0.0
 10
2.73857
 20
5.74743
 30
0.0
 10
2.73857
 20
5.78174
 30
0.0
 10
2.7316
 20
5.80837
 30
0.0
 10
2.71776
 20
5.82725
 30
0.0
 10
2.71776
 20
5.82725
 30
0.0
 10
2.70382
 20
5.84603
 30
0.0
 10
2.68424
 20
5.85547
 30
0.0
 10
2.65911
 20
5.85547
 30
0.0
 10
2.65911
 20
5.85547
 30
0.0
 10
2.63388
 20
5.85547
 30
0.0
 10
2.6143
 20
5.84603
 30
0.0
 10
2.60055
 20
5.82725
 30
0.0
 10
2.60055
 20
5.82725
 30
0.0
 10
2.5867
 20
5.80837
 30
0.0
 10
2.57982
 20
5.78174
 30
0.0
 10
2.57982
 20
5.74743
 30
0.0
 10
2.57982
 20
5.74743
 30
0.0
 10
2.57982
 20
5.71304
 30
0.0
 10
2.5867
 20
5.68631
 30
0.0
 10
2.60055
 20
5.66744
 30
0.0
 10
2.60055
 20
5.66744
 30
0.0
 10
2.6143
 20
5.64848
 30
0.0
 10
2.63388
 20
5.63904
 30
0.0
 10
2.65911
 20
5.63904
 30
0.0
  0
SPLINE
  5
71
330
1F
100
AcDbEntity
  8
Layer 1
100
AcDbSpline
210
0.0
220
0.0
230
1.0
 70
    11
 71
     3
 72
    76
 73
    72
 74
     0
 42
0.0000000001
 43
0.0000000001
 12
1.0
 22
0.0
 32
0.0
 13
1.0
 23
0.0
 33
0.0
 40
0.0
 40
0.0
 40
0.0
 40
0.0
 40
0.0526315789473684
 40
0.0526315789473684
 40
0.0526315789473684
 40
0.0526315789473684
 40
0.1052631578947368
 40
0.1052631578947368
 40
0.1052631578947368
 40
0.1052631578947368
 40
0.1578947368421053
 40
0.1578947368421053
 40
0.1578947368421053
 40
0.1578947368421053
 40
0.2105263157894737
 40
0.2105263157894737
 40
0.2105263157894737
 40
0.2105263157894737
 40
0.2631578947368421
 40
0.2631578947368421
 40
0.2631578947368421
 40
0.2631578947368421
 40
0.3157894736842105
 40
0.3157894736842105
 40
0.3157894736842105
 40
0.3157894736842105
 40
0.3684210526315789
 40
0.3684210526315789
 40
0.3684210526315789
 40
0.3684210526315789
 40
0.4210526315789473
 40
0.4210526315789473
 40
0.4210526315789473
 40
0.4210526315789473
 40
0.4736842105263158
 40
0.4736842105263158
 40
0.4736842105263158
 40
0.4736842105263158
 40
0.5263157894736842
 40
0.5263157894736842
 40
0.5263157894736842
 40
0.5263157894736842
 40
0.5789473684210527
 40
0.5789473684210527
 40
0.5789473684210527
 40
0.5789473684210527
 40
0.631578947368421
 40
0.631578947368421
 40
0.631578947368421
 40
0.631578947368421
 40
0.6842105263157895
 40
0.6842105263157895
 40
0.6842105263157895
 40
0.6842105263157895
 40
0.7368421052631579
 40
0.7368421052631579
 40
0.7368421052631579
 40
0.7368421052631579
 40
0.7894736842105263
 40
0.7894736842105263
 40
0.7894736842105263
 40
0.7894736842105263
 40
0.8421052631578947
 40
0.8421052631578947
 40
0.8421052631578947
 40
0.8421052631578947
 40
0.8947368421052632
 40
0.8947368421052632
 40
0.8947368421052632
 40
0.8947368421052632
 40
1.0
 40
1.0
 40
1.0
 40
1.0
 10
2.87369
 20
5.51416
 30
0.0
 10
2.87369
 20
5.51416
 30
0.0
 10
2.87969
 20
5.55808
 30
0.0
 10
2.87969
 20
5.55808
 30
0.0
 10
2.87969
 20
5.55808
 30
0.0
 10
2.90914
 20
5.54432
 30
0.0
 10
2.93834
 20
5.53744
 30
0.0
 10
2.96718
 20
5.53744
 30
0.0
 10
2.96718
 20
5.53744
 30
0.0
 10
3.02441
 20
5.53744
 30
0.0
 10
3.05308
 20
5.56778
 30
0.0
 10
3.05308
 20
5.62837
 30
0.0
 10
3.05308
 20
5.62837
 30
0.0
 10
3.05308
 20
5.62837
 30
0.0
 10
3.05308
 20
5.67247
 30
0.0
 10
3.05308
 20
5.67247
 30
0.0
 10
3.05308
 20
5.67247
 30
0.0
 10
3.04426
 20
5.65386
 30
0.0
 10
3.03173
 20
5.63948
 30
0.0
 10
3.01542
 20
5.62916
 30
0.0
 10
3.01542
 20
5.62916
 30
0.0
 10
2.9991
 20
5.61884
 30
0.0
 10
2.98093
 20
5.61364
 30
0.0
 10
2.96091
 20
5.61364
 30
0.0
 10
2.96091
 20
5.61364
 30
0.0
 10
2.92696
 20
5.61364
 30
0.0
 10
2.90006
 20
5.62581
 30
0.0
 10
2.88022
 20
5.65015
 30
0.0
 10
2.88022
 20
5.65015
 30
0.0
 10
2.86037
 20
5.67449
 30
0.0
 10
2.85041
 20
5.70748
 30
0.0
 10
2.85041
 20
5.74911
 30
0.0
 10
2.85041
 20
5.74911
 30
0.0
 10
2.85041
 20
5.79171
 30
0.0
 10
2.86169
 20
5.82645
 30
0.0
 10
2.88427
 20
5.85335
 30
0.0
 10
2.88427
 20
5.85335
 30
0.0
 10
2.90694
 20
5.88017
 30
0.0
 10
2.93613
 20
5.89357
 30
0.0
 10
2.97203
 20
5.89357
 30
0.0
 10
2.97203
 20
5.89357
 30
0.0
 10
3.00342
 20
5.89357
 30
0.0
 10
3.0305
 20
5.88087
 30
0.0
 10
3.05308
 20
5.85538
 30
0.0
 10
3.05308
 20
5.85538
 30
0.0
 10
3.05308
 20
5.85538
 30
0.0
 10
3.05308
 20
5.88775
 30
0.0
 10
3.05308
 20
5.88775
 30
0.0
 10
3.05308
 20
5.88775
 30
0.0
 10
3.05308
 20
5.88775
 30
0.0
 10
3.10388
 20
5.88775
 30
0.0
 10
3.10388
 20
5.88775
 30
0.0
 10
3.10388
 20
5.88775
 30
0.0
 10
3.10388
 20
5.88775
 30
0.0
 10
3.10388
 20
5.68384
 30
0.0
 10
3.10388
 20
5.68384
 30
0.0
 10
3.10388
 20
5.68384
 30
0.0
 10
3.10388
 20
5.64001
 30
0.0
 10
3.10158
 20
5.60755
 30
0.0
 10
3.097
 20
5.58648
 30
0.0
 10
3.097
 20
5.58648
 30
0.0
 10
3.0925
 20
5.5654
 30
0.0
 10
3.08386
 20
5.54811
 30
0.0
 10
3.07133
 20
5.53471
 30
0.0
 10
3.07133
 20
5.53471
 30
0.0
 10
3.04911
 20
5.51116
 30
0.0
 10
3.01436
 20
5.49934
 30
0.0
 10
2.96718
 20
5.49934
 30
0.0
 10
2.96718
 20
5.49934
 30
0.0
 10
2.93481
 20
5.49934
 30
0.0
 10
2.90367
 20
5.50428
 30
0.0
 10
2.87369
 20
5.51416
 30
0.0
  0
SPLINE
  5
72
330
1F
100
AcDbEntity
  8
Layer 1
100
AcDbSpline
210
0.0
220
0.0
230
1.0
 70
    11
 71
     3
 72
    28
 73
    24
 74
     0
 42
0.0000000001
 43
0.0000000001
 12
1.0
 22
0.0
 32
0.0
 13
1.0
 23
0.0
 33
0.0
 40
0.0
 40
0.0
 40
0.0
 40
0.0
 40
0.1428571428571428
 40
0.1428571428571428
 40
0.1428571428571428
 40
0.1428571428571428
 40
0.2857142857142857
 40
0.2857142857142857
 40
0.2857142857142857
 40
0.2857142857142857
 40
0.4285714285714285
 40
0.4285714285714285
 40
0.4285714285714285
 40
0.4285714285714285
 40
0.5714285714285714
 40
0.5714285714285714
 40
0.5714285714285714
 40
0.5714285714285714
 40
0.7142857142857143
 40
0.7142857142857143
 40
0.7142857142857143
 40
0.7142857142857143
 40
1.0
 40
1.0
 40
1.0
 40
1.0
 10
3.05308
 20
5.7043
 30
0.0
 10
3.05308
 20
5.7043
 30
0.0
 10
3.05308
 20
5.82063
 30
0.0
 10
3.05308
 20
5.82063
 30
0.0
 10
3.05308
 20
5.82063
 30
0.0
 10
3.03068
 20
5.84383
 30
0.0
 10
3.00625
 20
5.85547
 30
0.0
 10
2.97988
 20
5.85547
 30
0.0
 10
2.97988
 20
5.85547
 30
0.0
 10
2.95642
 20
5.85547
 30
0.0
 10
2.93807
 20
5.84612
 30
0.0
 10
2.92484
 20
5.82734
 30
0.0
 10
2.92484
 20
5.82734
 30
0.0
 10
2.91152
 20
5.80864
 30
0.0
 10
2.90491
 20
5.78262
 30
0.0
 10
2.90491
 20
5.74946
 30
0.0
 10
2.90491
 20
5.74946
 30
0.0
 10
2.90491
 20
5.68852
 30
0.0
 10
2.92652
 20
5.65809
 30
0.0
 10
2.96982
 20
5.65809
 30
0.0
 10
2.96982
 20
5.65809
 30
0.0
 10
2.99928
 20
5.65809
 30
0.0
 10
3.02706
 20
5.67352
 30
0.0
 10
3.05308
 20
5.7043
 30
0.0
  0
SPLINE
  5
73
330
1F
100
AcDbEntity
  8
Layer 1
370
    53
100
AcDbSpline
210
0.0
220
0.0
230
1.0
 70
    11
 71
     3
 72
    52
 73
    48
 74
     0
 42
0.0000000001
 43
0.0000000001
 12
1.0
 22
0.0
 32
0.0
 13
1.0
 23
0.0
 33
0.0
 40
0.0
 40
0.0
 40
0.0
 40
0.0
 40
0.0769230769230769
 40
0.0769230769230769
 40
0.0769230769230769
 40
0.0769230769230769
 40
0.1538461538461539
 40
0.1538461538461539
 40
0.1538461538461539
 40
0.1538461538461539
 40
0.2307692307692308
 40
0.2307692307692308
 40
0.2307692307692308
 40
0.2307692307692308
 40
0.3076923076923077
 40
0.3076923076923077
 40
0.3076923076923077
 40
0.3076923076923077
 40
0.3846153846153846
 40
0.3846153846153846
 40
0.3846153846153846
 40
0.3846153846153846
 40
0.4615384615384616
 40
0.4615384615384616
 40
0.4615384615384616
 40
0.4615384615384616
 40
0.5384615384615384
 40
0.5384615384615384
 40
0.5384615384615384
 40
0.5384615384615384
 40
0.6153846153846154
 40
0.6153846153846154
 40
0.6153846153846154
 40
0.6153846153846154
 40
0.6923076923076923
 40
0.6923076923076923
 40
0.6923076923076923
 40
0.6923076923076923
 40
0.7692307692307693
 40
0.7692307692307693
 40
0.7692307692307693
 40
0.7692307692307693
 40
0.8461538461538461
 40
0.8461538461538461
 40
0.8461538461538461
 40
0.8461538461538461
 40
1.0
 40
1.0
 40
1.0
 40
1.0
 10
-0.31754
 20
1.5
 30
0.0
 10
-0.31754
 20
1.5
 30
0.0
 10
-0.23816
 20
1.6375
 30
0.0
 10
-0.23816
 20
1.6375
 30
0.0
 10
-0.23816
 20
1.6375
 30
0.0
 10
-0.23816
 20
1.6375
 30
0.0
 10
-0.15877
 20
1.775
 30
0.0
 10
-0.15877
 20
1.775
 30
0.0
 10
-0.15877
 20
1.775
 30
0.0
 10
-0.15877
 20
1.775
 30
0.0
 10
0.0
 20
1.775
 30
0.0
 10
0.0
 20
1.775
 30
0.0
 10
0.0
 20
1.775
 30
0.0
 10
0.0
 20
1.775
 30
0.0
 10
0.15877
 20
1.775
 30
0.0
 10
0.15877
 20
1.775
 30
0.0
 10
0.15877
 20
1.775
 30
0.0
 10
0.15877
 20
1.775
 30
0.0
 10
0.23816
 20
1.6375
 30
0.0
 10
0.23816
 20
1.6375
 30
0.0
 10
0.23816
 20
1.6375
 30
0.0
 10
0.23816
 20
1.6375
 30
0.0
 10
0.31754
 20
1.5
 30
0.0
 10
0.31754
 20
1.5
 30
0.0
 10
0.31754
 20
1.5
 30
0.0
 10
0.31754
 20
1.5
 30
0.0
 10
0.23816
 20
1.3625
 30
0.0
 10
0.23816
 20
1.3625
 30
0.0
 10
0.23816
 20
1.3625
 30
0.0
 10
0.23816
 20
1.3625
 30
0.0
 10
0.15877
 20
1.225
 30
0.0
 10
0.15877
 20
1.225
 30
0.0
 10
0.15877
 20
1.225
 30
0.0
 10
0.15877
 20
1.225
 30
0.0
 10
0.0
 20
1.225
 30
0.0
 10
0.0
 20
1.225
 30
0.0
 10
0.0
 20
1.225
 30
0.0
 10
0.0
 20
1.225
 30
0.0
 10
-0.15877
 20
1.225
 30
0.0
 10
-0.15877
 20
1.225
 30
0.0
 10
-0.15877
 20
1.225
 30
0.0
 10
-0.15877
 20
1.225
 30
0.0
 10
-0.23816
 20
1.3625
 30
0.0
 10
-0.23816
 20
1.3625
 30
0.0
 10
-0.23816
 20
1.3625
 30
0.0
 10
-0.23816
 20
1.3625
 30
0.0
 10
-0.31754
 20
1.5
 30
0.0
 10
-0.31754
 20
1.5
 30
0.0
  0
SPLINE
  5
74
330
1F
100
AcDbEntity
  8
Layer 1
370
    53
100
AcDbSpline
210
0.0
220
0.0
230
1.0
 70
    11
 71
     3
 72
    20
 73
    16
 74
     0
 42
0.0000000001
 43
0.0000000001
 12
1.0
 22
0.0
 32
0.0
 13
1.0
 23
0.0
 33
0.0
 40
0.0
 40
0.0
 40
0.0
 40
0.0
 40
0.2
 40
0.2
 40
0.2
 40
0.2
 40
0.4
 40
0.4
 40
0.4
 40
0.4
 40
0.6
 40
0.6
 40
0.6
 40
0.6
 40
1.0
 40
1.0
 40
1.0
 40
1.0
 10
-0.15
 20
1.5
 30
0.0
 10
-0.15
 20
1.58284
 30
0.0
 10
-0.08284
 20
1.65
 30
0.0
 10
0.0
 20
1.65
 30
0.0
 10
0.0
 20
1.65
 30
0.0
 10
0.08284
 20
1.65
 30
0.0
 10
0.15
 20
1.58284
 30
0.0
 10
0.15
 20
1.5
 30
0.0
 10
0.15
 20
1.5
 30
0.0
 10
0.15
 20
1.41716
 30
0.0
 10
0.08284
 20
1.35
 30
0.0
 10
0.0
 20
1.35
 30
0.0
 10
0.0
 20
1.35
 30
0.0
 10
-0.08284
 20
1.35
 30
0.0
 10
-0.15
 20
1.41716
 30
0.0
 10
-0.15
 20
1.5
 30
0.0
  0
LWPOLYLINE
  5
75
330
1F
100
AcDbEntity
  8
Layer 1
370
    53
100
AcDbPolyline
 90
        5
 70
     1
 43
0.0
 10
-0.31755
 20
-0.11498
 10
0.31755
 20
-0.11498
 10
0.31755
 20
0.11502
 10
-0.31755
 20
0.11502
 10
-0.31755
 20
-0.11498
  0
LWPOLYLINE
  5
76
330
1F
100
AcDbEntity
  8
Layer 1
370
    53
100
AcDbPolyline
 90
        5
 70
     1
 43
0.0
 10
-0.275
 20
-0.11498
 10
0.275
 20
-0.11498
 10
0.275
 20
0.11502
 10
-0.275
 20
0.11502
 10
-0.275
 20
-0.11498
  0
ENDSEC
  0
SECTION
  2
OBJECTS
  0
DICTIONARY
  5
C
330
0
100
AcDbDictionary
281
     1
  3
ACAD_GROUP
350
D
  3
ACAD_LAYOUT
350
1A
  3
ACAD_MATERIAL
350
3B
  3
ACAD_MLEADERSTYLE
350
98
  3
ACAD_MLINESTYLE
350
17
  3
ACAD_PLOTSETTINGS
350
19
  3
ACAD_PLOTSTYLENAME
350
E
  3
ACAD_TABLESTYLE
350
97
  3
ACAD_VISUALSTYLE
350
2A
  0
DICTIONARY
  5
D
102
{ACAD_REACTORS
330
C
102
}
330
C
100
AcDbDictionary
281
     1
  0
DICTIONARY
  5
1A
102
{ACAD_REACTORS
330
C
102
}
330
C
100
AcDbDictionary
281
     1
  3
Layout1
350
1E
  3
Layout2
350
26
  3
Model
350
22
  0
DICTIONARY
  5
3B
102
{ACAD_REACTORS
330
C
102
}
330
C
100
AcDbDictionary
281
     1
  3
ByBlock
350
3D
  3
ByLayer
350
3C
  3
Global
350
3E
  0
DICTIONARY
  5
98
102
{ACAD_REACTORS
330
C
102
}
330
C
100
AcDbDictionary
281
     1
  0
DICTIONARY
  5
17
102
{ACAD_REACTORS
330
C
102
}
330
C
100
AcDbDictionary
281
     1
  3
Standard
350
18
  0
DICTIONARY
  5
19
102
{ACAD_REACTORS
330
C
102
}
330
C
100
AcDbDictionary
281
     1
  0
ACDBDICTIONARYWDFLT
  5
E
102
{ACAD_REACTORS
330
C
102
}
330
C
100
AcDbDictionary
281
     1
  3
Normal
350
F
100
AcDbDictionaryWithDefault
340
F
  0
DICTIONARY
  5
97
102
{ACAD_REACTORS
330
C
102
}
330
C
100
AcDbDictionary
281
     1
  0
DICTIONARY
  5
2A
102
{ACAD_REACTORS
330
C
102
}
330
C
100
AcDbDictionary
281
     1
  3
2dWireframe
350
2F
  3
3D Hidden
350
31
  3
3dWireframe
350
30
  3
Basic
350
32
  3
Brighten
350
36
  3
ColorChange
350
3A
  3
Conceptual
350
34
  3
Dim
350
35
  3
Facepattern
350
39
  3
Flat
350
2B
  3
FlatWithEdges
350
2C
  3
Gouraud
350
2D
  3
GouraudWithEdges
350
2E
  3
Linepattern
350
38
  3
Realistic
350
33
  3
Thicken
350
37
  0
LAYOUT
  5
1E
102
{ACAD_REACTORS
330
1A
102
}
330
1A
100
AcDbPlotSettings
  1

  2
none_device
  4

  6

 40
0.0
 41
0.0
 42
0.0
 43
0.0
 44
0.0
 45
0.0
 46
0.0
 47
0.0
 48
0.0
 49
0.0
140
0.0
141
0.0
142
1.0
143
1.0
 70
   688
 72
     0
 73
     0
 74
     5
  7

 75
    16
 76
     0
 77
     2
 78
   300
147
1.0
148
0.0
149
0.0
100
AcDbLayout
  1
Layout1
 70
     1
 71
     1
 10
0.0
 20
0.0
 11
12.0
 21
9.0
 12
0.0
 22
0.0
 32
0.0
 14
1.000000000000000E+20
 24
1.000000000000000E+20
 34
1.000000000000000E+20
 15
-1.000000000000000E+20
 25
-1.000000000000000E+20
 35
-1.000000000000000E+20
146
0.0
 13
0.0
 23
0.0
 33
0.0
 16
1.0
 26
0.0
 36
0.0
 17
0.0
 27
1.0
 37
0.0
 76
     0
330
1B
  0
LAYOUT
  5
26
102
{ACAD_REACTORS
330
1A
102
}
330
1A
100
AcDbPlotSettings
  1

  2
none_device
  4

  6

 40
0.0
 41
0.0
 42
0.0
 43
0.0
 44
0.0
 45
0.0
 46
0.0
 47
0.0
 48
0.0
 49
0.0
140
0.0
141
0.0
142
1.0
143
1.0
 70
   688
 72
     0
 73
     0
 74
     5
  7

 75
    16
 76
     0
 77
     2
 78
   300
147
1.0
148
0.0
149
0.0
100
AcDbLayout
  1
Layout2
 70
     1
 71
     2
 10
0.0
 20
0.0
 11
0.0
 21
0.0
 12
0.0
 22
0.0
 32
0.0
 14
0.0
 24
0.0
 34
0.0
 15
0.0
 25
0.0
 35
0.0
146
0.0
 13
0.0
 23
0.0
 33
0.0
 16
1.0
 26
0.0
 36
0.0
 17
0.0
 27
1.0
 37
0.0
 76
     0
330
23
  0
LAYOUT
  5
22
102
{ACAD_REACTORS
330
1A
102
}
330
1A
100
AcDbPlotSettings
  1

  2
none_device
  4

  6

 40
0.0
 41
0.0
 42
0.0
 43
0.0
 44
0.0
 45
0.0
 46
0.0
 47
0.0
 48
0.0
 49
0.0
140
0.0
141
0.0
142
1.0
143
1.0
 70
  1712
 72
     0
 73
     0
 74
     0
  7

 75
     0
 76
     0
 77
     2
 78
   300
147
1.0
148
0.0
149
0.0
100
AcDbLayout
  1
Model
 70
     1
 71
     0
 10
0.0
 20
0.0
 11
12.0
 21
9.0
 12
0.0
 22
0.0
 32
0.0
 14
-3.13442
 24
-0.14144
 34
0.0
 15
3.10388
 25
6.82843
 35
0.0
146
0.0
 13
0.0
 23
0.0
 33
0.0
 16
1.0
 26
0.0
 36
0.0
 17
0.0
 27
1.0
 37
0.0
 76
     0
330
1F
331
29
  0
MATERIAL
  5
3D
102
{ACAD_REACTORS
330
3B
102
}
330
3B
100
AcDbMaterial
  1
ByBlock
 72
     1
 94
      127
  0
MATERIAL
  5
3C
102
{ACAD_REACTORS
330
3B
102
}
330
3B
100
AcDbMaterial
  1
ByLayer
 72
     1
 94
      127
  0
MATERIAL
  5
3E
102
{ACAD_REACTORS
330
3B
102
}
330
3B
100
AcDbMaterial
  1
Global
 72
     1
 94
      127
  0
MLINESTYLE
  5
18
102
{ACAD_REACTORS
330
17
102
}
330
17
100
AcDbMlineStyle
  2
Standard
 70
     0
  3

 62
   256
 51
90.0
 52
90.0
 71
     2
 49
0.5
 62
   256
  6
BYLAYER
 49
-0.5
 62
   256
  6
BYLAYER
  0
ACDBPLACEHOLDER
  5
F
102
{ACAD_REACTORS
330
E
102
}
330
E
  0
VISUALSTYLE
  5
2F
102
{ACAD_REACTORS
330
2A
102
}
102
{ACAD_XDICTIONARY
360
7F
102
}
330
2A
100
AcDbVisualStyle
  2
2dWireframe
 70
     4
 71
     0
 72
     2
 73
     0
 90
        0
 40
-0.6
 41
-30.0
 62
     5
 63
     7
421
 16777215
 74
     1
 91
        4
 64
     7
 65
   257
 75
     1
175
     1
 42
1.0
 92
        0
 66
   257
 43
1.0
 76
     1
 77
     6
 78
     2
 67
     7
 79
     5
170
     0
171
     0
290
     0
174
     0
 93
        1
 44
0.0
173
     0
291
     0
 45
0.0
  0
VISUALSTYLE
  5
31
102
{ACAD_REACTORS
330
2A
102
}
102
{ACAD_XDICTIONARY
360
83
102
}
330
2A
100
AcDbVisualStyle
  2
3D Hidden
 70
     6
 71
     1
 72
     2
 73
     2
 90
        0
 40
-0.6
 41
-30.0
 62
     5
 63
     7
421
 16777215
 74
     2
 91
        2
 64
     7
 65
   257
 75
     2
175
     1
 42
40.0
 92
        0
 66
   257
 43
1.0
 76
     1
 77
     6
 78
     2
 67
     7
 79
     3
170
     0
171
     0
290
     0
174
     0
 93
        1
 44
0.0
173
     0
291
     0
 45
0.0
  0
VISUALSTYLE
  5
30
102
{ACAD_REACTORS
330
2A
102
}
102
{ACAD_XDICTIONARY
360
81
102
}
330
2A
100
AcDbVisualStyle
  2
3dWireframe
 70
     5
 71
     0
 72
     2
 73
     0
 90
        0
 40
-0.6
 41
-30.0
 62
     5
 63
     7
421
 16777215
 74
     1
 91
        4
 64
     7
 65
   257
 75
     1
175
     1
 42
1.0
 92
        0
 66
   257
 43
1.0
 76
     1
 77
     6
 78
     2
 67
     7
 79
     5
170
     0
171
     0
290
     0
174
     0
 93
        1
 44
0.0
173
     0
291
     0
 45
0.0
  0
VISUALSTYLE
  5
32
102
{ACAD_REACTORS
330
2A
102
}
102
{ACAD_XDICTIONARY
360
85
102
}
330
2A
100
AcDbVisualStyle
  2
Basic
 70
     7
 71
     1
 72
     0
 73
     1
 90
        0
 40
-0.6
 41
-30.0
 62
     5
 63
     7
421
 16777215
 74
     0
 91
        4
 64
     7
 65
   257
 75
     1
175
     1
 42
1.0
 92
        8
 66
     7
 43
1.0
 76
     1
 77
     6
 78
     2
 67
     7
 79
     5
170
     0
171
     0
290
     0
174
     0
 93
        1
 44
0.0
173
     0
291
     1
 45
0.0
  0
VISUALSTYLE
  5
36
102
{ACAD_REACTORS
330
2A
102
}
102
{ACAD_XDICTIONARY
360
8D
102
}
330
2A
100
AcDbVisualStyle
  2
Brighten
 70
    12
 71
     2
 72
     2
 73
     0
 90
        0
 40
-0.6
 41
-30.0
 62
     5
 63
     7
421
 16777215
 74
     1
 91
        4
 64
     7
 65
   257
 75
     1
175
     1
 42
1.0
 92
        8
 66
     7
 43
1.0
 76
     1
 77
     6
 78
     2
 67
     7
 79
     5
170
     0
171
     0
290
     0
174
     0
 93
        1
 44
50.0
173
     0
291
     1
 45
0.0
  0
VISUALSTYLE
  5
3A
102
{ACAD_REACTORS
330
2A
102
}
102
{ACAD_XDICTIONARY
360
95
102
}
330
2A
100
AcDbVisualStyle
  2
ColorChange
 70
    16
 71
     2
 72
     2
 73
     3
 90
        0
 40
-0.6
 41
-30.0
 62
     5
 63
     8
421
  8421504
 74
     1
 91
        4
 64
     7
 65
   257
 75
     1
175
     1
 42
1.0
 92
        8
 66
     8
424
  8421504
 43
1.0
 76
     1
 77
     6
 78
     2
 67
     7
 79
     5
170
     0
171
     0
290
     0
174
     0
 93
        1
 44
0.0
173
     0
291
     1
 45
0.0
  0
VISUALSTYLE
  5
34
102
{ACAD_REACTORS
330
2A
102
}
102
{ACAD_XDICTIONARY
360
89
102
}
330
2A
100
AcDbVisualStyle
  2
Conceptual
 70
     9
 71
     3
 72
     2
 73
     0
 90
        0
 40
-0.6
 41
-30.0
 62
     5
 63
     7
421
 16777215
 74
     2
 91
        2
 64
     7
 65
   257
 75
     1
175
     1
 42
40.0
 92
        8
 66
     7
 43
1.0
 76
     1
 77
     6
 78
     2
 67
     7
 79
     3
170
     0
171
     0
290
     0
174
     0
 93
        1
 44
0.0
173
     0
291
     0
 45
0.0
  0
VISUALSTYLE
  5
35
102
{ACAD_REACTORS
330
2A
102
}
102
{ACAD_XDICTIONARY
360
8B
102
}
330
2A
100
AcDbVisualStyle
  2
Dim
 70
    11
 71
     2
 72
     2
 73
     0
 90
        0
 40
-0.6
 41
-30.0
 62
     5
 63
     7
421
 16777215
 74
     1
 91
        4
 64
     7
 65
   257
 75
     1
175
     1
 42
1.0
 92
        8
 66
     7
 43
1.0
 76
     1
 77
     6
 78
     2
 67
     7
 79
     5
170
     0
171
     0
290
     0
174
     0
 93
        1
 44
-50.0
173
     0
291
     1
 45
0.0
  0
VISUALSTYLE
  5
39
102
{ACAD_REACTORS
330
2A
102
}
102
{ACAD_XDICTIONARY
360
93
102
}
330
2A
100
AcDbVisualStyle
  2
Facepattern
 70
    15
 71
     2
 72
     2
 73
     0
 90
        0
 40
-0.6
 41
-30.0
 62
     5
 63
     7
421
 16777215
 74
     1
 91
        4
 64
     7
 65
   257
 75
     1
175
     1
 42
1.0
 92
        8
 66
     7
 43
1.0
 76
     1
 77
     6
 78
     2
 67
     7
 79
     5
170
     0
171
     0
290
     0
174
     0
 93
        1
 44
0.0
173
     0
291
     1
 45
0.0
  0
VISUALSTYLE
  5
2B
102
{ACAD_REACTORS
330
2A
102
}
102
{ACAD_XDICTIONARY
360
77
102
}
330
2A
100
AcDbVisualStyle
  2
Flat
 70
     0
 71
     2
 72
     1
 73
     1
 90
        2
 40
-0.6
 41
30.0
 62
     5
 63
     7
421
 16777215
 74
     0
 91
        4
 64
     7
 65
   257
 75
     1
175
     1
 42
1.0
 92
        8
 66
     7
 43
1.0
 76
     1
 77
     6
 78
     2
 67
     7
 79
     5
170
     0
171
     0
290
     0
174
     0
 93
       13
 44
0.0
173
     0
291
     1
 45
0.0
  0
VISUALSTYLE
  5
2C
102
{ACAD_REACTORS
330
2A
102
}
102
{ACAD_XDICTIONARY
360
79
102
}
330
2A
100
AcDbVisualStyle
  2
FlatWithEdges
 70
     1
 71
     2
 72
     1
 73
     1
 90
        2
 40
-0.6
 41
30.0
 62
     5
 63
     7
421
 16777215
 74
     1
 91
        4
 64
     7
 65
   257
 75
     1
175
     1
 42
1.0
 92
        0
 66
   257
 43
1.0
 76
     1
 77
     6
 78
     2
 67
     7
 79
     5
170
     0
171
     0
290
     0
174
     0
 93
       13
 44
0.0
173
     0
291
     1
 45
0.0
  0
VISUALSTYLE
  5
2D
102
{ACAD_REACTORS
330
2A
102
}
102
{ACAD_XDICTIONARY
360
7B
102
}
330
2A
100
AcDbVisualStyle
  2
Gouraud
 70
     2
 71
     2
 72
     2
 73
     1
 90
        2
 40
-0.6
 41
30.0
 62
     5
 63
     7
421
 16777215
 74
     0
 91
        4
 64
     7
 65
   257
 75
     1
175
     1
 42
1.0
 92
        0
 66
     7
 43
1.0
 76
     1
 77
     6
 78
     2
 67
     7
 79
     5
170
     0
171
     0
290
     0
174
     0
 93
       13
 44
0.0
173
     0
291
     1
 45
0.0
  0
VISUALSTYLE
  5
2E
102
{ACAD_REACTORS
330
2A
102
}
102
{ACAD_XDICTIONARY
360
7D
102
}
330
2A
100
AcDbVisualStyle
  2
GouraudWithEdges
 70
     3
 71
     2
 72
     2
 73
     1
 90
        2
 40
-0.6
 41
30.0
 62
     5
 63
     7
421
 16777215
 74
     1
 91
        4
 64
     7
 65
   257
 75
     1
175
     1
 42
1.0
 92
        0
 66
   257
 43
1.0
 76
     1
 77
     6
 78
     2
 67
     7
 79
     5
170
     0
171
     0
290
     0
174
     0
 93
       13
 44
0.0
173
     0
291
     1
 45
0.0
  0
VISUALSTYLE
  5
38
102
{ACAD_REACTORS
330
2A
102
}
102
{ACAD_XDICTIONARY
360
91
102
}
330
2A
100
AcDbVisualStyle
  2
Linepattern
 70
    14
 71
     2
 72
     2
 73
     0
 90
        0
 40
-0.6
 41
-30.0
 62
     5
 63
     7
421
 16777215
 74
     1
 91
        4
 64
     7
 65
   257
 75
     7
175
     7
 42
1.0
 92
        8
 66
     7
 43
1.0
 76
     1
 77
     6
 78
     2
 67
     7
 79
     5
170
     0
171
     0
290
     0
174
     0
 93
        1
 44
0.0
173
     0
291
     1
 45
0.0
  0
VISUALSTYLE
  5
33
102
{ACAD_REACTORS
330
2A
102
}
102
{ACAD_XDICTIONARY
360
87
102
}
330
2A
100
AcDbVisualStyle
  2
Realistic
 70
     8
 71
     2
 72
     2
 73
     0
 90
        0
 40
-0.6
 41
-30.0
 62
     5
 63
     7
421
 16777215
 74
     1
 91
        0
 64
     7
 65
   257
 75
     1
175
     1
 42
1.0
 92
        8
 66
     8
424
  7895160
 43
1.0
 76
     1
 77
     6
 78
     2
 67
     7
 79
     5
170
     0
171
     0
290
     0
174
     0
 93
       13
 44
0.0
173
     0
291
     0
 45
0.0
  0
VISUALSTYLE
  5
37
102
{ACAD_REACTORS
330
2A
102
}
102
{ACAD_XDICTIONARY
360
8F
102
}
330
2A
100
AcDbVisualStyle
  2
Thicken
 70
    13
 71
     2
 72
     2
 73
     0
 90
        0
 40
-0.6
 41
-30.0
 62
     5
 63
     7
421
 16777215
 74
     1
 91
        4
 64
     7
 65
   257
 75
     1
175
     1
 42
1.0
 92
       12
 66
     7
 43
1.0
 76
     1
 77
     6
 78
     2
 67
     7
 79
     5
170
     0
171
     0
290
     0
174
     0
 93
        1
 44
0.0
173
     0
291
     1
 45
0.0
  0
DICTIONARY
  5
7F
330
2F
100
AcDbDictionary
280
     1
281
     1
  3
ACAD_XREC_ROUNDTRIP
360
80
  0
DICTIONARY
  5
83
330
31
100
AcDbDictionary
280
     1
281
     1
  3
ACAD_XREC_ROUNDTRIP
360
84
  0
DICTIONARY
  5
81
330
30
100
AcDbDictionary
280
     1
281
     1
  3
ACAD_XREC_ROUNDTRIP
360
82
  0
DICTIONARY
  5
85
330
32
100
AcDbDictionary
280
     1
281
     1
  3
ACAD_XREC_ROUNDTRIP
360
86
  0
DICTIONARY
  5
8D
330
36
100
AcDbDictionary
280
     1
281
     1
  3
ACAD_XREC_ROUNDTRIP
360
8E
  0
DICTIONARY
  5
95
330
3A
100
AcDbDictionary
280
     1
281
     1
  3
ACAD_XREC_ROUNDTRIP
360
96
  0
DICTIONARY
  5
89
330
34
100
AcDbDictionary
280
     1
281
     1
  3
ACAD_XREC_ROUNDTRIP
360
8A
  0
DICTIONARY
  5
8B
330
35
100
AcDbDictionary
280
     1
281
     1
  3
ACAD_XREC_ROUNDTRIP
360
8C
  0
DICTIONARY
  5
93
330
39
100
AcDbDictionary
280
     1
281
     1
  3
ACAD_XREC_ROUNDTRIP
360
94
  0
DICTIONARY
  5
77
330
2B
100
AcDbDictionary
280
     1
281
     1
  3
ACAD_XREC_ROUNDTRIP
360
78
  0
DICTIONARY
  5
79
330
2C
100
AcDbDictionary
280
     1
281
     1
  3
ACAD_XREC_ROUNDTRIP
360
7A
  0
DICTIONARY
  5
7B
330
2D
100
AcDbDictionary
280
     1
281
     1
  3
ACAD_XREC_ROUNDTRIP
360
7C
  0
DICTIONARY
  5
7D
330
2E
100
AcDbDictionary
280
     1
281
     1
  3
ACAD_XREC_ROUNDTRIP
360
7E
  0
DICTIONARY
  5
91
330
38
100
AcDbDictionary
280
     1
281
     1
  3
ACAD_XREC_ROUNDTRIP
360
92
  0
DICTIONARY
  5
87
330
33
100
AcDbDictionary
280
     1
281
     1
  3
ACAD_XREC_ROUNDTRIP
360
88
  0
DICTIONARY
  5
8F
330
37
100
AcDbDictionary
280
     1
281
     1
  3
ACAD_XREC_ROUNDTRIP
360
90
  0
XRECORD
  5
80
102
{ACAD_REACTORS
330
7F
102
}
330
7F
100
AcDbXrecord
280
     1
102
RTVSPropertyOp0
 70
     1
102
RTVSPropertyOp1
 70
     1
102
RTVSPropertyOp2
 70
     1
102
RTVSPropertyOp3
 70
     1
102
RTVSPropertyOp4
 70
     1
102
RTVSPropertyOp5
 70
     1
102
RTVSPropertyOp6
 70
     1
102
RTVSPropertyOp7
 70
     1
102
RTVSPropertyOp8
 70
     1
102
RTVSPropertyOp9
 70
     1
102
RTVSPropertyOp10
 70
     1
102
RTVSPropertyOp11
 70
     1
102
RTVSPropertyOp12
 70
     1
102
RTVSPropertyOp13
 70
     1
102
RTVSPropertyOp14
 70
     1
102
RTVSPropertyOp15
 70
     1
102
RTVSPropertyOp16
 70
     1
102
RTVSPropertyOp17
 70
     1
102
RTVSPropertyOp18
 70
     1
102
RTVSPropertyOp19
 70
     1
102
RTVSPropertyOp20
 70
     1
102
RTVSPropertyOp21
 70
     1
102
RTVSPropertyOp22
 70
     1
102
RTVSPropertyOp23
 70
     1
102
RTVSPropertyOp24
 70
     1
102
RTVSPropertyOp25
 70
     1
102
RTVSPropertyOp26
 70
     1
102
RTVSPropertyOp27
 70
     1
102
RTVSPropertyOp28
 70
     1
102
RTVSPropertyOp29
 70
     1
102
RTVSPropertyOp30
 70
     1
102
RTVSPropertyOp31
 70
     1
102
RTVSPropertyOp32
 70
     1
  0
XRECORD
  5
84
102
{ACAD_REACTORS
330
83
102
}
330
83
100
AcDbXrecord
280
     1
102
RTVSPropertyOp0
 70
     1
102
RTVSPropertyOp1
 70
     1
102
RTVSPropertyOp2
 70
     1
102
RTVSPropertyOp3
 70
     1
102
RTVSPropertyOp4
 70
     1
102
RTVSPropertyOp5
 70
     1
102
RTVSPropertyOp6
 70
     1
102
RTVSPropertyOp7
 70
     1
102
RTVSPropertyOp8
 70
     1
102
RTVSPropertyOp9
 70
     1
102
RTVSPropertyOp10
 70
     1
102
RTVSPropertyOp11
 70
     1
102
RTVSPropertyOp12
 70
     1
102
RTVSPropertyOp13
 70
     1
102
RTVSPropertyOp14
 70
     1
102
RTVSPropertyOp15
 70
     1
102
RTVSPropertyOp16
 70
     1
102
RTVSPropertyOp17
 70
     1
102
RTVSPropertyOp18
 70
     1
102
RTVSPropertyOp19
 70
     1
102
RTVSPropertyOp20
 70
     1
102
RTVSPropertyOp21
 70
     1
102
RTVSPropertyOp22
 70
     1
102
RTVSPropertyOp23
 70
     1
102
RTVSPropertyOp24
 70
     1
102
RTVSPropertyOp25
 70
     1
102
RTVSPropertyOp26
 70
     1
102
RTVSPropertyOp27
 70
     1
102
RTVSPropertyOp28
 70
     1
102
RTVSPropertyOp29
 70
     1
102
RTVSPropertyOp30
 70
     1
102
RTVSPropertyOp31
 70
     1
102
RTVSPropertyOp32
 70
     1
  0
XRECORD
  5
82
102
{ACAD_REACTORS
330
81
102
}
330
81
100
AcDbXrecord
280
     1
102
RTVSPropertyOp0
 70
     1
102
RTVSPropertyOp1
 70
     1
102
RTVSPropertyOp2
 70
     1
102
RTVSPropertyOp3
 70
     1
102
RTVSPropertyOp4
 70
     1
102
RTVSPropertyOp5
 70
     1
102
RTVSPropertyOp6
 70
     1
102
RTVSPropertyOp7
 70
     1
102
RTVSPropertyOp8
 70
     1
102
RTVSPropertyOp9
 70
     1
102
RTVSPropertyOp10
 70
     1
102
RTVSPropertyOp11
 70
     1
102
RTVSPropertyOp12
 70
     1
102
RTVSPropertyOp13
 70
     1
102
RTVSPropertyOp14
 70
     1
102
RTVSPropertyOp15
 70
     1
102
RTVSPropertyOp16
 70
     1
102
RTVSPropertyOp17
 70
     1
102
RTVSPropertyOp18
 70
     1
102
RTVSPropertyOp19
 70
     1
102
RTVSPropertyOp20
 70
     1
102
RTVSPropertyOp21
 70
     1
102
RTVSPropertyOp22
 70
     1
102
RTVSPropertyOp23
 70
     1
102
RTVSPropertyOp24
 70
     1
102
RTVSPropertyOp25
 70
     1
102
RTVSPropertyOp26
 70
     1
102
RTVSPropertyOp27
 70
     1
102
RTVSPropertyOp28
 70
     1
102
RTVSPropertyOp29
 70
     1
102
RTVSPropertyOp30
 70
     1
102
RTVSPropertyOp31
 70
     1
102
RTVSPropertyOp32
 70
     1
  0
XRECORD
  5
86
102
{ACAD_REACTORS
330
85
102
}
330
85
100
AcDbXrecord
280
     1
102
RTVSPropertyOp0
 70
     1
102
RTVSPropertyOp1
 70
     1
102
RTVSPropertyOp2
 70
     1
102
RTVSPropertyOp3
 70
     1
102
RTVSPropertyOp4
 70
     1
102
RTVSPropertyOp5
 70
     1
102
RTVSPropertyOp6
 70
     1
102
RTVSPropertyOp7
 70
     1
102
RTVSPropertyOp8
 70
     1
102
RTVSPropertyOp9
 70
     1
102
RTVSPropertyOp10
 70
     1
102
RTVSPropertyOp11
 70
     1
102
RTVSPropertyOp12
 70
     1
102
RTVSPropertyOp13
 70
     1
102
RTVSPropertyOp14
 70
     1
102
RTVSPropertyOp15
 70
     1
102
RTVSPropertyOp16
 70
     1
102
RTVSPropertyOp17
 70
     1
102
RTVSPropertyOp18
 70
     1
102
RTVSPropertyOp19
 70
     1
102
RTVSPropertyOp20
 70
     1
102
RTVSPropertyOp21
 70
     1
102
RTVSPropertyOp22
 70
     1
102
RTVSPropertyOp23
 70
     1
102
RTVSPropertyOp24
 70
     1
102
RTVSPropertyOp25
 70
     1
102
RTVSPropertyOp26
 70
     1
102
RTVSPropertyOp27
 70
     1
102
RTVSPropertyOp28
 70
     1
102
RTVSPropertyOp29
 70
     1
102
RTVSPropertyOp30
 70
     1
102
RTVSPropertyOp31
 70
     1
102
RTVSPropertyOp32
 70
     1
  0
XRECORD
  5
8E
102
{ACAD_REACTORS
330
8D
102
}
330
8D
100
AcDbXrecord
280
     1
102
RTVSPropertyOp0
 70
     1
102
RTVSPropertyOp1
 70
     1
102
RTVSPropertyOp2
 70
     1
102
RTVSPropertyOp3
 70
     1
102
RTVSPropertyOp4
 70
     1
102
RTVSPropertyOp5
 70
     1
102
RTVSPropertyOp6
 70
     1
102
RTVSPropertyOp7
 70
     1
102
RTVSPropertyOp8
 70
     1
102
RTVSPropertyOp9
 70
     1
102
RTVSPropertyOp10
 70
     1
102
RTVSPropertyOp11
 70
     1
102
RTVSPropertyOp12
 70
     1
102
RTVSPropertyOp13
 70
     1
102
RTVSPropertyOp14
 70
     1
102
RTVSPropertyOp15
 70
     1
102
RTVSPropertyOp16
 70
     1
102
RTVSPropertyOp17
 70
     1
102
RTVSPropertyOp18
 70
     1
102
RTVSPropertyOp19
 70
     1
102
RTVSPropertyOp20
 70
     1
102
RTVSPropertyOp21
 70
     1
102
RTVSPropertyOp22
 70
     1
102
RTVSPropertyOp23
 70
     1
102
RTVSPropertyOp24
 70
     1
102
RTVSPropertyOp25
 70
     1
102
RTVSPropertyOp26
 70
     1
102
RTVSPropertyOp27
 70
     1
102
RTVSPropertyOp28
 70
     1
102
RTVSPropertyOp29
 70
     1
102
RTVSPropertyOp30
 70
     1
102
RTVSPropertyOp31
 70
     1
102
RTVSPropertyOp32
 70
     1
  0
XRECORD
  5
96
102
{ACAD_REACTORS
330
95
102
}
330
95
100
AcDbXrecord
280
     1
102
RTVSPropertyOp0
 70
     1
102
RTVSPropertyOp1
 70
     1
102
RTVSPropertyOp2
 70
     1
102
RTVSPropertyOp3
 70
     1
102
RTVSPropertyOp4
 70
     1
102
RTVSPropertyOp5
 70
     1
102
RTVSPropertyOp6
 70
     1
102
RTVSPropertyOp7
 70
     1
102
RTVSPropertyOp8
 70
     1
102
RTVSPropertyOp9
 70
     1
102
RTVSPropertyOp10
 70
     1
102
RTVSPropertyOp11
 70
     1
102
RTVSPropertyOp12
 70
     1
102
RTVSPropertyOp13
 70
     1
102
RTVSPropertyOp14
 70
     1
102
RTVSPropertyOp15
 70
     1
102
RTVSPropertyOp16
 70
     1
102
RTVSPropertyOp17
 70
     1
102
RTVSPropertyOp18
 70
     1
102
RTVSPropertyOp19
 70
     1
102
RTVSPropertyOp20
 70
     1
102
RTVSPropertyOp21
 70
     1
102
RTVSPropertyOp22
 70
     1
102
RTVSPropertyOp23
 70
     1
102
RTVSPropertyOp24
 70
     1
102
RTVSPropertyOp25
 70
     1
102
RTVSPropertyOp26
 70
     1
102
RTVSPropertyOp27
 70
     1
102
RTVSPropertyOp28
 70
     1
102
RTVSPropertyOp29
 70
     1
102
RTVSPropertyOp30
 70
     1
102
RTVSPropertyOp31
 70
     1
102
RTVSPropertyOp32
 70
     1
  0
XRECORD
  5
8A
102
{ACAD_REACTORS
330
89
102
}
330
89
100
AcDbXrecord
280
     1
102
RTVSPropertyOp0
 70
     1
102
RTVSPropertyOp1
 70
     1
102
RTVSPropertyOp2
 70
     1
102
RTVSPropertyOp3
 70
     1
102
RTVSPropertyOp4
 70
     1
102
RTVSPropertyOp5
 70
     1
102
RTVSPropertyOp6
 70
     1
102
RTVSPropertyOp7
 70
     1
102
RTVSPropertyOp8
 70
     1
102
RTVSPropertyOp9
 70
     1
102
RTVSPropertyOp10
 70
     1
102
RTVSPropertyOp11
 70
     1
102
RTVSPropertyOp12
 70
     1
102
RTVSPropertyOp13
 70
     1
102
RTVSPropertyOp14
 70
     1
102
RTVSPropertyOp15
 70
     1
102
RTVSPropertyOp16
 70
     1
102
RTVSPropertyOp17
 70
     1
102
RTVSPropertyOp18
 70
     1
102
RTVSPropertyOp19
 70
     1
102
RTVSPropertyOp20
 70
     1
102
RTVSPropertyOp21
 70
     1
102
RTVSPropertyOp22
 70
     1
102
RTVSPropertyOp23
 70
     1
102
RTVSPropertyOp24
 70
     1
102
RTVSPropertyOp25
 70
     1
102
RTVSPropertyOp26
 70
     1
102
RTVSPropertyOp27
 70
     1
102
RTVSPropertyOp28
 70
     1
102
RTVSPropertyOp29
 70
     1
102
RTVSPropertyOp30
 70
     1
102
RTVSPropertyOp31
 70
     1
102
RTVSPropertyOp32
 70
     1
  0
XRECORD
  5
8C
102
{ACAD_REACTORS
330
8B
102
}
330
8B
100
AcDbXrecord
280
     1
102
RTVSPropertyOp0
 70
     1
102
RTVSPropertyOp1
 70
     1
102
RTVSPropertyOp2
 70
     1
102
RTVSPropertyOp3
 70
     1
102
RTVSPropertyOp4
 70
     1
102
RTVSPropertyOp5
 70
     1
102
RTVSPropertyOp6
 70
     1
102
RTVSPropertyOp7
 70
     1
102
RTVSPropertyOp8
 70
     1
102
RTVSPropertyOp9
 70
     1
102
RTVSPropertyOp10
 70
     1
102
RTVSPropertyOp11
 70
     1
102
RTVSPropertyOp12
 70
     1
102
RTVSPropertyOp13
 70
     1
102
RTVSPropertyOp14
 70
     1
102
RTVSPropertyOp15
 70
     1
102
RTVSPropertyOp16
 70
     1
102
RTVSPropertyOp17
 70
     1
102
RTVSPropertyOp18
 70
     1
102
RTVSPropertyOp19
 70
     1
102
RTVSPropertyOp20
 70
     1
102
RTVSPropertyOp21
 70
     1
102
RTVSPropertyOp22
 70
     1
102
RTVSPropertyOp23
 70
     1
102
RTVSPropertyOp24
 70
     1
102
RTVSPropertyOp25
 70
     1
102
RTVSPropertyOp26
 70
     1
102
RTVSPropertyOp27
 70
     1
102
RTVSPropertyOp28
 70
     1
102
RTVSPropertyOp29
 70
     1
102
RTVSPropertyOp30
 70
     1
102
RTVSPropertyOp31
 70
     1
102
RTVSPropertyOp32
 70
     1
  0
XRECORD
  5
94
102
{ACAD_REACTORS
330
93
102
}
330
93
100
AcDbXrecord
280
     1
102
RTVSPropertyOp0
 70
     1
102
RTVSPropertyOp1
 70
     1
102
RTVSPropertyOp2
 70
     1
102
RTVSPropertyOp3
 70
     1
102
RTVSPropertyOp4
 70
     1
102
RTVSPropertyOp5
 70
     1
102
RTVSPropertyOp6
 70
     1
102
RTVSPropertyOp7
 70
     1
102
RTVSPropertyOp8
 70
     1
102
RTVSPropertyOp9
 70
     1
102
RTVSPropertyOp10
 70
     1
102
RTVSPropertyOp11
 70
     1
102
RTVSPropertyOp12
 70
     1
102
RTVSPropertyOp13
 70
     1
102
RTVSPropertyOp14
 70
     1
102
RTVSPropertyOp15
 70
     1
102
RTVSPropertyOp16
 70
     1
102
RTVSPropertyOp17
 70
     1
102
RTVSPropertyOp18
 70
     1
102
RTVSPropertyOp19
 70
     1
102
RTVSPropertyOp20
 70
     1
102
RTVSPropertyOp21
 70
     1
102
RTVSPropertyOp22
 70
     1
102
RTVSPropertyOp23
 70
     1
102
RTVSPropertyOp24
 70
     1
102
RTVSPropertyOp25
 70
     1
102
RTVSPropertyOp26
 70
     1
102
RTVSPropertyOp27
 70
     1
102
RTVSPropertyOp28
 70
     1
102
RTVSPropertyOp29
 70
     1
102
RTVSPropertyOp30
 70
     1
102
RTVSPropertyOp31
 70
     1
102
RTVSPropertyOp32
 70
     1
  0
XRECORD
  5
78
102
{ACAD_REACTORS
330
77
102
}
330
77
100
AcDbXrecord
280
     1
102
RTVSPropertyOp0
 70
     1
102
RTVSPropertyOp1
 70
     1
102
RTVSPropertyOp2
 70
     1
102
RTVSPropertyOp3
 70
     1
102
RTVSPropertyOp4
 70
     1
102
RTVSPropertyOp5
 70
     1
102
RTVSPropertyOp6
 70
     1
102
RTVSPropertyOp7
 70
     1
102
RTVSPropertyOp8
 70
     1
102
RTVSPropertyOp9
 70
     1
102
RTVSPropertyOp10
 70
     1
102
RTVSPropertyOp11
 70
     1
102
RTVSPropertyOp12
 70
     1
102
RTVSPropertyOp13
 70
     1
102
RTVSPropertyOp14
 70
     1
102
RTVSPropertyOp15
 70
     1
102
RTVSPropertyOp16
 70
     1
102
RTVSPropertyOp17
 70
     1
102
RTVSPropertyOp18
 70
     1
102
RTVSPropertyOp19
 70
     1
102
RTVSPropertyOp20
 70
     1
102
RTVSPropertyOp21
 70
     1
102
RTVSPropertyOp22
 70
     1
102
RTVSPropertyOp23
 70
     1
102
RTVSPropertyOp24
 70
     1
102
RTVSPropertyOp25
 70
     1
102
RTVSPropertyOp26
 70
     1
102
RTVSPropertyOp27
 70
     1
102
RTVSPropertyOp28
 70
     1
102
RTVSPropertyOp29
 70
     1
102
RTVSPropertyOp30
 70
     1
102
RTVSPropertyOp31
 70
     1
102
RTVSPropertyOp32
 70
     1
  0
XRECORD
  5
7A
102
{ACAD_REACTORS
330
79
102
}
330
79
100
AcDbXrecord
280
     1
102
RTVSPropertyOp0
 70
     1
102
RTVSPropertyOp1
 70
     1
102
RTVSPropertyOp2
 70
     1
102
RTVSPropertyOp3
 70
     1
102
RTVSPropertyOp4
 70
     1
102
RTVSPropertyOp5
 70
     1
102
RTVSPropertyOp6
 70
     1
102
RTVSPropertyOp7
 70
     1
102
RTVSPropertyOp8
 70
     1
102
RTVSPropertyOp9
 70
     1
102
RTVSPropertyOp10
 70
     1
102
RTVSPropertyOp11
 70
     1
102
RTVSPropertyOp12
 70
     1
102
RTVSPropertyOp13
 70
     1
102
RTVSPropertyOp14
 70
     1
102
RTVSPropertyOp15
 70
     1
102
RTVSPropertyOp16
 70
     1
102
RTVSPropertyOp17
 70
     1
102
RTVSPropertyOp18
 70
     1
102
RTVSPropertyOp19
 70
     1
102
RTVSPropertyOp20
 70
     1
102
RTVSPropertyOp21
 70
     1
102
RTVSPropertyOp22
 70
     1
102
RTVSPropertyOp23
 70
     1
102
RTVSPropertyOp24
 70
     1
102
RTVSPropertyOp25
 70
     1
102
RTVSPropertyOp26
 70
     1
102
RTVSPropertyOp27
 70
     1
102
RTVSPropertyOp28
 70
     1
102
RTVSPropertyOp29
 70
     1
102
RTVSPropertyOp30
 70
     1
102
RTVSPropertyOp31
 70
     1
102
RTVSPropertyOp32
 70
     1
  0
XRECORD
  5
7C
102
{ACAD_REACTORS
330
7B
102
}
330
7B
100
AcDbXrecord
280
     1
102
RTVSPropertyOp0
 70
     1
102
RTVSPropertyOp1
 70
     1
102
RTVSPropertyOp2
 70
     1
102
RTVSPropertyOp3
 70
     1
102
RTVSPropertyOp4
 70
     1
102
RTVSPropertyOp5
 70
     1
102
RTVSPropertyOp6
 70
     1
102
RTVSPropertyOp7
 70
     1
102
RTVSPropertyOp8
 70
     1
102
RTVSPropertyOp9
 70
     1
102
RTVSPropertyOp10
 70
     1
102
RTVSPropertyOp11
 70
     1
102
RTVSPropertyOp12
 70
     1
102
RTVSPropertyOp13
 70
     1
102
RTVSPropertyOp14
 70
     1
102
RTVSPropertyOp15
 70
     1
102
RTVSPropertyOp16
 70
     1
102
RTVSPropertyOp17
 70
     1
102
RTVSPropertyOp18
 70
     1
102
RTVSPropertyOp19
 70
     1
102
RTVSPropertyOp20
 70
     1
102
RTVSPropertyOp21
 70
     1
102
RTVSPropertyOp22
 70
     1
102
RTVSPropertyOp23
 70
     1
102
RTVSPropertyOp24
 70
     1
102
RTVSPropertyOp25
 70
     1
102
RTVSPropertyOp26
 70
     1
102
RTVSPropertyOp27
 70
     1
102
RTVSPropertyOp28
 70
     1
102
RTVSPropertyOp29
 70
     1
102
RTVSPropertyOp30
 70
     1
102
RTVSPropertyOp31
 70
     1
102
RTVSPropertyOp32
 70
     1
  0
XRECORD
  5
7E
102
{ACAD_REACTORS
330
7D
102
}
330
7D
100
AcDbXrecord
280
     1
102
RTVSPropertyOp0
 70
     1
102
RTVSPropertyOp1
 70
     1
102
RTVSPropertyOp2
 70
     1
102
RTVSPropertyOp3
 70
     1
102
RTVSPropertyOp4
 70
     1
102
RTVSPropertyOp5
 70
     1
102
RTVSPropertyOp6
 70
     1
102
RTVSPropertyOp7
 70
     1
102
RTVSPropertyOp8
 70
     1
102
RTVSPropertyOp9
 70
     1
102
RTVSPropertyOp10
 70
     1
102
RTVSPropertyOp11
 70
     1
102
RTVSPropertyOp12
 70
     1
102
RTVSPropertyOp13
 70
     1
102
RTVSPropertyOp14
 70
     1
102
RTVSPropertyOp15
 70
     1
102
RTVSPropertyOp16
 70
     1
102
RTVSPropertyOp17
 70
     1
102
RTVSPropertyOp18
 70
     1
102
RTVSPropertyOp19
 70
     1
102
RTVSPropertyOp20
 70
     1
102
RTVSPropertyOp21
 70
     1
102
RTVSPropertyOp22
 70
     1
102
RTVSPropertyOp23
 70
     1
102
RTVSPropertyOp24
 70
     1
102
RTVSPropertyOp25
 70
     1
102
RTVSPropertyOp26
 70
     1
102
RTVSPropertyOp27
 70
     1
102
RTVSPropertyOp28
 70
     1
102
RTVSPropertyOp29
 70
     1
102
RTVSPropertyOp30
 70
     1
102
RTVSPropertyOp31
 70
     1
102
RTVSPropertyOp32
 70
     1
  0
XRECORD
  5
92
102
{ACAD_REACTORS
330
91
102
}
330
91
100
AcDbXrecord
280
     1
102
RTVSPropertyOp0
 70
     1
102
RTVSPropertyOp1
 70
     1
102
RTVSPropertyOp2
 70
     1
102
RTVSPropertyOp3
 70
     1
102
RTVSPropertyOp4
 70
     1
102
RTVSPropertyOp5
 70
     1
102
RTVSPropertyOp6
 70
     1
102
RTVSPropertyOp7
 70
     1
102
RTVSPropertyOp8
 70
     1
102
RTVSPropertyOp9
 70
     1
102
RTVSPropertyOp10
 70
     1
102
RTVSPropertyOp11
 70
     1
102
RTVSPropertyOp12
 70
     1
102
RTVSPropertyOp13
 70
     1
102
RTVSPropertyOp14
 70
     1
102
RTVSPropertyOp15
 70
     1
102
RTVSPropertyOp16
 70
     1
102
RTVSPropertyOp17
 70
     1
102
RTVSPropertyOp18
 70
     1
102
RTVSPropertyOp19
 70
     1
102
RTVSPropertyOp20
 70
     1
102
RTVSPropertyOp21
 70
     1
102
RTVSPropertyOp22
 70
     1
102
RTVSPropertyOp23
 70
     1
102
RTVSPropertyOp24
 70
     1
102
RTVSPropertyOp25
 70
     1
102
RTVSPropertyOp26
 70
     1
102
RTVSPropertyOp27
 70
     1
102
RTVSPropertyOp28
 70
     1
102
RTVSPropertyOp29
 70
     1
102
RTVSPropertyOp30
 70
     1
102
RTVSPropertyOp31
 70
     1
102
RTVSPropertyOp32
 70
     1
  0
XRECORD
  5
88
102
{ACAD_REACTORS
330
87
102
}
330
87
100
AcDbXrecord
280
     1
102
RTVSPropertyOp0
 70
     1
102
RTVSPropertyOp1
 70
     1
102
RTVSPropertyOp2
 70
     1
102
RTVSPropertyOp3
 70
     1
102
RTVSPropertyOp4
 70
     1
102
RTVSPropertyOp5
 70
     1
102
RTVSPropertyOp6
 70
     1
102
RTVSPropertyOp7
 70
     1
102
RTVSPropertyOp8
 70
     1
102
RTVSPropertyOp9
 70
     1
102
RTVSPropertyOp10
 70
     1
102
RTVSPropertyOp11
 70
     1
102
RTVSPropertyOp12
 70
     1
102
RTVSPropertyOp13
 70
     1
102
RTVSPropertyOp14
 70
     1
102
RTVSPropertyOp15
 70
     1
102
RTVSPropertyOp16
 70
     1
102
RTVSPropertyOp17
 70
     1
102
RTVSPropertyOp18
 70
     1
102
RTVSPropertyOp19
 70
     1
102
RTVSPropertyOp20
 70
     1
102
RTVSPropertyOp21
 70
     1
102
RTVSPropertyOp22
 70
     1
102
RTVSPropertyOp23
 70
     1
102
RTVSPropertyOp24
 70
     1
102
RTVSPropertyOp25
 70
     1
102
RTVSPropertyOp26
 70
     1
102
RTVSPropertyOp27
 70
     1
102
RTVSPropertyOp28
 70
     1
102
RTVSPropertyOp29
 70
     1
102
RTVSPropertyOp30
 70
     1
102
RTVSPropertyOp31
 70
     1
102
RTVSPropertyOp32
 70
     1
  0
XRECORD
  5
90
102
{ACAD_REACTORS
330
8F
102
}
330
8F
100
AcDbXrecord
280
     1
102
RTVSPropertyOp0
 70
     1
102
RTVSPropertyOp1
 70
     1
102
RTVSPropertyOp2
 70
     1
102
RTVSPropertyOp3
 70
     1
102
RTVSPropertyOp4
 70
     1
102
RTVSPropertyOp5
 70
     1
102
RTVSPropertyOp6
 70
     1
102
RTVSPropertyOp7
 70
     1
102
RTVSPropertyOp8
 70
     1
102
RTVSPropertyOp9
 70
     1
102
RTVSPropertyOp10
 70
     1
102
RTVSPropertyOp11
 70
     1
102
RTVSPropertyOp12
 70
     1
102
RTVSPropertyOp13
 70
     1
102
RTVSPropertyOp14
 70
     1
102
RTVSPropertyOp15
 70
     1
102
RTVSPropertyOp16
 70
     1
102
RTVSPropertyOp17
 70
     1
102
RTVSPropertyOp18
 70
     1
102
RTVSPropertyOp19
 70
     1
102
RTVSPropertyOp20
 70
     1
102
RTVSPropertyOp21
 70
     1
102
RTVSPropertyOp22
 70
     1
102
RTVSPropertyOp23
 70
     1
102
RTVSPropertyOp24
 70
     1
102
RTVSPropertyOp25
 70
     1
102
RTVSPropertyOp26
 70
     1
102
RTVSPropertyOp27
 70
     1
102
RTVSPropertyOp28
 70
     1
102
RTVSPropertyOp29
 70
     1
102
RTVSPropertyOp30
 70
     1
102
RTVSPropertyOp31
 70
     1
102
RTVSPropertyOp32
 70
     1
  0
ENDSEC
  0
EOF
