solid OpenSCAD_Model
  facet normal 0 0 1
    outer loop
      vertex 1.6736 14.3374 1.2
      vertex 15 25 1.2
      vertex 1.74345 14.5524 1.2
    endloop
  endfacet
  facet normal 0 0 1
    outer loop
      vertex 15 -25 1.2
      vertex 1.78581 -14.7744 1.2
      vertex 1.8 -15 1.2
    endloop
  endfacet
  facet normal 0 0 1
    outer loop
      vertex 1.57735 14.1328 1.2
      vertex 15 25 1.2
      vertex 1.6736 14.3374 1.2
    endloop
  endfacet
  facet normal 0 0 1
    outer loop
      vertex 15 -25 1.2
      vertex 1.74345 -14.5524 1.2
      vertex 1.78581 -14.7744 1.2
    endloop
  endfacet
  facet normal 0 0 1
    outer loop
      vertex 15 25 1.2
      vertex 1.57735 14.1328 1.2
      vertex 15 -25 1.2
    endloop
  endfacet
  facet normal 0 0 1
    outer loop
      vertex 15 -25 1.2
      vertex 1.6736 -14.3374 1.2
      vertex 1.74345 -14.5524 1.2
    endloop
  endfacet
  facet normal -0 0 1
    outer loop
      vertex 1.57735 -14.1328 1.2
      vertex 15 -25 1.2
      vertex 1.57735 14.1328 1.2
    endloop
  endfacet
  facet normal 0 0 1
    outer loop
      vertex 15 -25 1.2
      vertex 1.57735 -14.1328 1.2
      vertex 1.6736 -14.3374 1.2
    endloop
  endfacet
  facet normal -0 0 1
    outer loop
      vertex 1.45623 13.942 1.2
      vertex 1.57735 -14.1328 1.2
      vertex 1.57735 14.1328 1.2
    endloop
  endfacet
  facet normal 0 0 1
    outer loop
      vertex 1.45623 13.942 1.2
      vertex 1.45623 -13.942 1.2
      vertex 1.57735 -14.1328 1.2
    endloop
  endfacet
  facet normal -0 0 1
    outer loop
      vertex 1.31214 13.7678 1.2
      vertex 1.45623 -13.942 1.2
      vertex 1.45623 13.942 1.2
    endloop
  endfacet
  facet normal 0 0 1
    outer loop
      vertex 1.31214 13.7678 1.2
      vertex 1.31214 -13.7678 1.2
      vertex 1.45623 -13.942 1.2
    endloop
  endfacet
  facet normal -0 0 1
    outer loop
      vertex 1.14736 13.6131 1.2
      vertex 1.31214 -13.7678 1.2
      vertex 1.31214 13.7678 1.2
    endloop
  endfacet
  facet normal 0 0 1
    outer loop
      vertex 1.14736 13.6131 1.2
      vertex 1.14736 -13.6131 1.2
      vertex 1.31214 -13.7678 1.2
    endloop
  endfacet
  facet normal -0 0 1
    outer loop
      vertex 0.964488 13.4802 1.2
      vertex 1.14736 -13.6131 1.2
      vertex 1.14736 13.6131 1.2
    endloop
  endfacet
  facet normal 0 0 1
    outer loop
      vertex 0.964488 13.4802 1.2
      vertex 0.964488 -13.4802 1.2
      vertex 1.14736 -13.6131 1.2
    endloop
  endfacet
  facet normal -0 0 1
    outer loop
      vertex 0.766402 13.3713 1.2
      vertex 0.964488 -13.4802 1.2
      vertex 0.964488 13.4802 1.2
    endloop
  endfacet
  facet normal 0 0 1
    outer loop
      vertex 0.766402 13.3713 1.2
      vertex 0.766402 -13.3713 1.2
      vertex 0.964488 -13.4802 1.2
    endloop
  endfacet
  facet normal -0 0 1
    outer loop
      vertex 0.556231 13.2881 1.2
      vertex 0.766402 -13.3713 1.2
      vertex 0.766402 13.3713 1.2
    endloop
  endfacet
  facet normal 0 0 1
    outer loop
      vertex 0.556231 13.2881 1.2
      vertex 0.556231 -13.2881 1.2
      vertex 0.766402 -13.3713 1.2
    endloop
  endfacet
  facet normal -0 0 1
    outer loop
      vertex 0.337286 13.2319 1.2
      vertex 0.556231 -13.2881 1.2
      vertex 0.556231 13.2881 1.2
    endloop
  endfacet
  facet normal 0 0 1
    outer loop
      vertex 0.337286 13.2319 1.2
      vertex 0.337286 -13.2319 1.2
      vertex 0.556231 -13.2881 1.2
    endloop
  endfacet
  facet normal -0 0 1
    outer loop
      vertex 0.113023 13.2036 1.2
      vertex 0.337286 -13.2319 1.2
      vertex 0.337286 13.2319 1.2
    endloop
  endfacet
  facet normal 0 0 1
    outer loop
      vertex 0.113023 13.2036 1.2
      vertex 0.113023 -13.2036 1.2
      vertex 0.337286 -13.2319 1.2
    endloop
  endfacet
  facet normal -0 0 1
    outer loop
      vertex -0.113023 13.2036 1.2
      vertex 0.113023 -13.2036 1.2
      vertex 0.113023 13.2036 1.2
    endloop
  endfacet
  facet normal 0 0 1
    outer loop
      vertex -0.113023 13.2036 1.2
      vertex -0.113023 -13.2036 1.2
      vertex 0.113023 -13.2036 1.2
    endloop
  endfacet
  facet normal 0 0 1
    outer loop
      vertex -0.337286 13.2319 1.2
      vertex -0.113023 -13.2036 1.2
      vertex -0.113023 13.2036 1.2
    endloop
  endfacet
  facet normal 0 0 1
    outer loop
      vertex -0.337286 13.2319 1.2
      vertex -0.337286 -13.2319 1.2
      vertex -0.113023 -13.2036 1.2
    endloop
  endfacet
  facet normal 0 0 1
    outer loop
      vertex -0.556231 13.2881 1.2
      vertex -0.337286 -13.2319 1.2
      vertex -0.337286 13.2319 1.2
    endloop
  endfacet
  facet normal 0 0 1
    outer loop
      vertex -0.556231 13.2881 1.2
      vertex -0.556231 -13.2881 1.2
      vertex -0.337286 -13.2319 1.2
    endloop
  endfacet
  facet normal 0 0 1
    outer loop
      vertex -0.766402 13.3713 1.2
      vertex -0.556231 -13.2881 1.2
      vertex -0.556231 13.2881 1.2
    endloop
  endfacet
  facet normal 0 0 1
    outer loop
      vertex -0.766402 13.3713 1.2
      vertex -0.766402 -13.3713 1.2
      vertex -0.556231 -13.2881 1.2
    endloop
  endfacet
  facet normal 0 0 1
    outer loop
      vertex -0.964488 13.4802 1.2
      vertex -0.766402 -13.3713 1.2
      vertex -0.766402 13.3713 1.2
    endloop
  endfacet
  facet normal 0 0 1
    outer loop
      vertex -0.964488 13.4802 1.2
      vertex -0.964488 -13.4802 1.2
      vertex -0.766402 -13.3713 1.2
    endloop
  endfacet
  facet normal 0 0 1
    outer loop
      vertex -1.14736 13.6131 1.2
      vertex -0.964488 -13.4802 1.2
      vertex -0.964488 13.4802 1.2
    endloop
  endfacet
  facet normal 0 0 1
    outer loop
      vertex -1.14736 13.6131 1.2
      vertex -1.14736 -13.6131 1.2
      vertex -0.964488 -13.4802 1.2
    endloop
  endfacet
  facet normal 0 0 1
    outer loop
      vertex -1.31214 13.7678 1.2
      vertex -1.14736 -13.6131 1.2
      vertex -1.14736 13.6131 1.2
    endloop
  endfacet
  facet normal 0 0 1
    outer loop
      vertex -1.31214 13.7678 1.2
      vertex -1.31214 -13.7678 1.2
      vertex -1.14736 -13.6131 1.2
    endloop
  endfacet
  facet normal 0 0 1
    outer loop
      vertex -1.45623 13.942 1.2
      vertex -1.31214 -13.7678 1.2
      vertex -1.31214 13.7678 1.2
    endloop
  endfacet
  facet normal 0 0 1
    outer loop
      vertex -1.45623 13.942 1.2
      vertex -1.45623 -13.942 1.2
      vertex -1.31214 -13.7678 1.2
    endloop
  endfacet
  facet normal 0 0 1
    outer loop
      vertex -1.57735 14.1328 1.2
      vertex -1.45623 -13.942 1.2
      vertex -1.45623 13.942 1.2
    endloop
  endfacet
  facet normal 0 0 1
    outer loop
      vertex -1.57735 14.1328 1.2
      vertex -1.57735 -14.1328 1.2
      vertex -1.45623 -13.942 1.2
    endloop
  endfacet
  facet normal 0 0 1
    outer loop
      vertex -15 25 1.2
      vertex -1.57735 14.1328 1.2
      vertex -1.6736 14.3374 1.2
    endloop
  endfacet
  facet normal 0 0 1
    outer loop
      vertex -1.57735 14.1328 1.2
      vertex -15 25 1.2
      vertex -1.57735 -14.1328 1.2
    endloop
  endfacet
  facet normal 0 0 1
    outer loop
      vertex -15 25 1.2
      vertex -1.6736 14.3374 1.2
      vertex -1.74345 14.5524 1.2
    endloop
  endfacet
  facet normal 0 0 1
    outer loop
      vertex -15 -25 1.2
      vertex -1.57735 -14.1328 1.2
      vertex -15 25 1.2
    endloop
  endfacet
  facet normal 0 0 1
    outer loop
      vertex -15 25 1.2
      vertex -1.74345 14.5524 1.2
      vertex -1.78581 14.7744 1.2
    endloop
  endfacet
  facet normal 0 0 1
    outer loop
      vertex -1.57735 -14.1328 1.2
      vertex -15 -25 1.2
      vertex -1.6736 -14.3374 1.2
    endloop
  endfacet
  facet normal 0 0 1
    outer loop
      vertex -15 25 1.2
      vertex -1.78581 14.7744 1.2
      vertex -1.8 15 1.2
    endloop
  endfacet
  facet normal 0 0 1
    outer loop
      vertex -1.6736 -14.3374 1.2
      vertex -15 -25 1.2
      vertex -1.74345 -14.5524 1.2
    endloop
  endfacet
  facet normal 0 0 1
    outer loop
      vertex 10.314 29.9901 1.2
      vertex 15 25 1.2
      vertex 14.9606 25.6267 1.2
    endloop
  endfacet
  facet normal 0 0 1
    outer loop
      vertex 1.78581 14.7744 1.2
      vertex 15 25 1.2
      vertex 1.8 15 1.2
    endloop
  endfacet
  facet normal 0 0 1
    outer loop
      vertex 10.314 29.9901 1.2
      vertex 14.9606 25.6267 1.2
      vertex 14.8429 26.2435 1.2
    endloop
  endfacet
  facet normal 0 0 1
    outer loop
      vertex 1.74345 14.5524 1.2
      vertex 15 25 1.2
      vertex 1.78581 14.7744 1.2
    endloop
  endfacet
  facet normal 0 0 1
    outer loop
      vertex 10.314 29.9901 1.2
      vertex 14.8429 26.2435 1.2
      vertex 14.6489 26.8406 1.2
    endloop
  endfacet
  facet normal -0 0 1
    outer loop
      vertex 1.78581 -15.2256 1.2
      vertex 15 -25 1.2
      vertex 1.8 -15 1.2
    endloop
  endfacet
  facet normal 0 0 1
    outer loop
      vertex 10.314 29.9901 1.2
      vertex 14.6489 26.8406 1.2
      vertex 14.3815 27.4088 1.2
    endloop
  endfacet
  facet normal -0 0 1
    outer loop
      vertex 1.74345 -15.4476 1.2
      vertex 15 -25 1.2
      vertex 1.78581 -15.2256 1.2
    endloop
  endfacet
  facet normal 0 0 1
    outer loop
      vertex 10.314 29.9901 1.2
      vertex 14.3815 27.4088 1.2
      vertex 14.0451 27.9389 1.2
    endloop
  endfacet
  facet normal -0 0 1
    outer loop
      vertex 1.6736 -15.6626 1.2
      vertex 15 -25 1.2
      vertex 1.74345 -15.4476 1.2
    endloop
  endfacet
  facet normal 0 0 1
    outer loop
      vertex 10.314 29.9901 1.2
      vertex 14.0451 27.9389 1.2
      vertex 13.6448 28.4227 1.2
    endloop
  endfacet
  facet normal -0 0 1
    outer loop
      vertex 1.57735 -15.8672 1.2
      vertex 15 -25 1.2
      vertex 1.6736 -15.6626 1.2
    endloop
  endfacet
  facet normal 0 0 1
    outer loop
      vertex 10.314 29.9901 1.2
      vertex 13.6448 28.4227 1.2
      vertex 13.1871 28.8526 1.2
    endloop
  endfacet
  facet normal -0 0 1
    outer loop
      vertex 1.45623 -16.058 1.2
      vertex 15 -25 1.2
      vertex 1.57735 -15.8672 1.2
    endloop
  endfacet
  facet normal 0 0 1
    outer loop
      vertex 10.314 29.9901 1.2
      vertex 13.1871 28.8526 1.2
      vertex 12.6791 29.2216 1.2
    endloop
  endfacet
  facet normal -0 0 1
    outer loop
      vertex 1.31214 -16.2322 1.2
      vertex 15 -25 1.2
      vertex 1.45623 -16.058 1.2
    endloop
  endfacet
  facet normal 0 0 1
    outer loop
      vertex 10.314 29.9901 1.2
      vertex 12.6791 29.2216 1.2
      vertex 12.1289 29.5241 1.2
    endloop
  endfacet
  facet normal 0 -0 1
    outer loop
      vertex 10.314 -29.9901 1.2
      vertex 15 -25 1.2
      vertex 1.31214 -16.2322 1.2
    endloop
  endfacet
  facet normal 0 0 1
    outer loop
      vertex 10.314 29.9901 1.2
      vertex 12.1289 29.5241 1.2
      vertex 11.5451 29.7553 1.2
    endloop
  endfacet
  facet normal 0 0 1
    outer loop
      vertex 15 -25 1.2
      vertex 10.314 -29.9901 1.2
      vertex 14.9606 -25.6267 1.2
    endloop
  endfacet
  facet normal 0 0 1
    outer loop
      vertex 10.314 29.9901 1.2
      vertex 11.5451 29.7553 1.2
      vertex 10.9369 29.9114 1.2
    endloop
  endfacet
  facet normal 0 0 1
    outer loop
      vertex 14.9606 -25.6267 1.2
      vertex 10.314 -29.9901 1.2
      vertex 14.8429 -26.2435 1.2
    endloop
  endfacet
  facet normal 0 0 1
    outer loop
      vertex 15 25 1.2
      vertex 10.314 29.9901 1.2
      vertex 1.31214 16.2322 1.2
    endloop
  endfacet
  facet normal 0 0 1
    outer loop
      vertex 14.8429 -26.2435 1.2
      vertex 10.314 -29.9901 1.2
      vertex 14.6489 -26.8406 1.2
    endloop
  endfacet
  facet normal 0 0 1
    outer loop
      vertex 14.3815 -27.4088 1.2
      vertex 10.314 -29.9901 1.2
      vertex 14.0451 -27.9389 1.2
    endloop
  endfacet
  facet normal 0 0 1
    outer loop
      vertex 15 25 1.2
      vertex 1.78581 15.2256 1.2
      vertex 1.8 15 1.2
    endloop
  endfacet
  facet normal 0 0 1
    outer loop
      vertex 15 25 1.2
      vertex 1.74345 15.4476 1.2
      vertex 1.78581 15.2256 1.2
    endloop
  endfacet
  facet normal 0 0 1
    outer loop
      vertex 15 25 1.2
      vertex 1.6736 15.6626 1.2
      vertex 1.74345 15.4476 1.2
    endloop
  endfacet
  facet normal 0 0 1
    outer loop
      vertex 15 25 1.2
      vertex 1.57735 15.8672 1.2
      vertex 1.6736 15.6626 1.2
    endloop
  endfacet
  facet normal 0 0 1
    outer loop
      vertex 15 25 1.2
      vertex 1.45623 16.058 1.2
      vertex 1.57735 15.8672 1.2
    endloop
  endfacet
  facet normal 0 0 1
    outer loop
      vertex 15 25 1.2
      vertex 1.31214 16.2322 1.2
      vertex 1.45623 16.058 1.2
    endloop
  endfacet
  facet normal 0 0 1
    outer loop
      vertex 10.314 29.9901 1.2
      vertex 1.14736 16.3869 1.2
      vertex 1.31214 16.2322 1.2
    endloop
  endfacet
  facet normal 0 0 1
    outer loop
      vertex 10.314 29.9901 1.2
      vertex 0.964488 16.5198 1.2
      vertex 1.14736 16.3869 1.2
    endloop
  endfacet
  facet normal 0 0 1
    outer loop
      vertex 10.314 29.9901 1.2
      vertex 0.766402 16.6287 1.2
      vertex 0.964488 16.5198 1.2
    endloop
  endfacet
  facet normal 0 0 1
    outer loop
      vertex 10.314 29.9901 1.2
      vertex 0.556231 16.7119 1.2
      vertex 0.766402 16.6287 1.2
    endloop
  endfacet
  facet normal 0 0 1
    outer loop
      vertex 10.314 29.9901 1.2
      vertex 0.337286 16.7681 1.2
      vertex 0.556231 16.7119 1.2
    endloop
  endfacet
  facet normal 0 0 1
    outer loop
      vertex 10.314 29.9901 1.2
      vertex 0.113023 16.7964 1.2
      vertex 0.337286 16.7681 1.2
    endloop
  endfacet
  facet normal 0 0 1
    outer loop
      vertex 10.314 29.9901 1.2
      vertex -0.113023 16.7964 1.2
      vertex 0.113023 16.7964 1.2
    endloop
  endfacet
  facet normal -0 0 1
    outer loop
      vertex -10.314 29.9901 1.2
      vertex -0.113023 16.7964 1.2
      vertex 10.314 29.9901 1.2
    endloop
  endfacet
  facet normal 0 0 1
    outer loop
      vertex -0.113023 16.7964 1.2
      vertex -10.314 29.9901 1.2
      vertex -0.337286 16.7681 1.2
    endloop
  endfacet
  facet normal 0 0 1
    outer loop
      vertex -0.337286 16.7681 1.2
      vertex -10.314 29.9901 1.2
      vertex -0.556231 16.7119 1.2
    endloop
  endfacet
  facet normal 0 0 1
    outer loop
      vertex -0.556231 16.7119 1.2
      vertex -10.314 29.9901 1.2
      vertex -0.766402 16.6287 1.2
    endloop
  endfacet
  facet normal 0 0 1
    outer loop
      vertex -0.766402 16.6287 1.2
      vertex -10.314 29.9901 1.2
      vertex -0.964488 16.5198 1.2
    endloop
  endfacet
  facet normal 0 0 1
    outer loop
      vertex -0.964488 16.5198 1.2
      vertex -10.314 29.9901 1.2
      vertex -1.14736 16.3869 1.2
    endloop
  endfacet
  facet normal 0 0 1
    outer loop
      vertex -1.78581 15.2256 1.2
      vertex -15 25 1.2
      vertex -1.8 15 1.2
    endloop
  endfacet
  facet normal 0 0 1
    outer loop
      vertex -1.74345 15.4476 1.2
      vertex -15 25 1.2
      vertex -1.78581 15.2256 1.2
    endloop
  endfacet
  facet normal 0 0 1
    outer loop
      vertex -1.6736 15.6626 1.2
      vertex -15 25 1.2
      vertex -1.74345 15.4476 1.2
    endloop
  endfacet
  facet normal 0 0 1
    outer loop
      vertex -1.57735 15.8672 1.2
      vertex -15 25 1.2
      vertex -1.6736 15.6626 1.2
    endloop
  endfacet
  facet normal 0 0 1
    outer loop
      vertex -1.45623 16.058 1.2
      vertex -15 25 1.2
      vertex -1.57735 15.8672 1.2
    endloop
  endfacet
  facet normal 0 0 1
    outer loop
      vertex -1.31214 16.2322 1.2
      vertex -15 25 1.2
      vertex -1.45623 16.058 1.2
    endloop
  endfacet
  facet normal -0 0 1
    outer loop
      vertex -15 25 1.2
      vertex -1.31214 16.2322 1.2
      vertex -10.314 29.9901 1.2
    endloop
  endfacet
  facet normal 0 0 1
    outer loop
      vertex -1.14736 16.3869 1.2
      vertex -10.314 29.9901 1.2
      vertex -1.31214 16.2322 1.2
    endloop
  endfacet
  facet normal 0 0 1
    outer loop
      vertex 14.0451 -27.9389 1.2
      vertex 10.314 -29.9901 1.2
      vertex 13.6448 -28.4227 1.2
    endloop
  endfacet
  facet normal 0 0 1
    outer loop
      vertex 13.6448 -28.4227 1.2
      vertex 10.314 -29.9901 1.2
      vertex 13.1871 -28.8526 1.2
    endloop
  endfacet
  facet normal 0 0 1
    outer loop
      vertex 13.1871 -28.8526 1.2
      vertex 10.314 -29.9901 1.2
      vertex 12.6791 -29.2216 1.2
    endloop
  endfacet
  facet normal 0 0 1
    outer loop
      vertex 12.1289 -29.5241 1.2
      vertex 10.314 -29.9901 1.2
      vertex 11.5451 -29.7553 1.2
    endloop
  endfacet
  facet normal 0 0 1
    outer loop
      vertex 11.5451 -29.7553 1.2
      vertex 10.314 -29.9901 1.2
      vertex 10.9369 -29.9114 1.2
    endloop
  endfacet
  facet normal 0 0 1
    outer loop
      vertex 12.6791 -29.2216 1.2
      vertex 10.314 -29.9901 1.2
      vertex 12.1289 -29.5241 1.2
    endloop
  endfacet
  facet normal 0 0 1
    outer loop
      vertex 14.6489 -26.8406 1.2
      vertex 10.314 -29.9901 1.2
      vertex 14.3815 -27.4088 1.2
    endloop
  endfacet
  facet normal -0 0 1
    outer loop
      vertex 1.14736 -16.3869 1.2
      vertex 10.314 -29.9901 1.2
      vertex 1.31214 -16.2322 1.2
    endloop
  endfacet
  facet normal -0 0 1
    outer loop
      vertex 0.964488 -16.5198 1.2
      vertex 10.314 -29.9901 1.2
      vertex 1.14736 -16.3869 1.2
    endloop
  endfacet
  facet normal -0 0 1
    outer loop
      vertex 0.766402 -16.6287 1.2
      vertex 10.314 -29.9901 1.2
      vertex 0.964488 -16.5198 1.2
    endloop
  endfacet
  facet normal -0 0 1
    outer loop
      vertex 0.556231 -16.7119 1.2
      vertex 10.314 -29.9901 1.2
      vertex 0.766402 -16.6287 1.2
    endloop
  endfacet
  facet normal -0 0 1
    outer loop
      vertex 0.337286 -16.7681 1.2
      vertex 10.314 -29.9901 1.2
      vertex 0.556231 -16.7119 1.2
    endloop
  endfacet
  facet normal -0 0 1
    outer loop
      vertex 0.113023 -16.7964 1.2
      vertex 10.314 -29.9901 1.2
      vertex 0.337286 -16.7681 1.2
    endloop
  endfacet
  facet normal -0 0 1
    outer loop
      vertex -0.113023 -16.7964 1.2
      vertex 10.314 -29.9901 1.2
      vertex 0.113023 -16.7964 1.2
    endloop
  endfacet
  facet normal 0 0 1
    outer loop
      vertex -10.314 -29.9901 1.2
      vertex -0.113023 -16.7964 1.2
      vertex -0.337286 -16.7681 1.2
    endloop
  endfacet
  facet normal 0 0 1
    outer loop
      vertex -10.314 -29.9901 1.2
      vertex -0.337286 -16.7681 1.2
      vertex -0.556231 -16.7119 1.2
    endloop
  endfacet
  facet normal 0 0 1
    outer loop
      vertex -10.314 -29.9901 1.2
      vertex -0.556231 -16.7119 1.2
      vertex -0.766402 -16.6287 1.2
    endloop
  endfacet
  facet normal 0 0 1
    outer loop
      vertex -10.314 -29.9901 1.2
      vertex -0.766402 -16.6287 1.2
      vertex -0.964488 -16.5198 1.2
    endloop
  endfacet
  facet normal 0 0 1
    outer loop
      vertex -10.314 -29.9901 1.2
      vertex -0.964488 -16.5198 1.2
      vertex -1.14736 -16.3869 1.2
    endloop
  endfacet
  facet normal 0 0 1
    outer loop
      vertex -10.314 -29.9901 1.2
      vertex -1.14736 -16.3869 1.2
      vertex -1.31214 -16.2322 1.2
    endloop
  endfacet
  facet normal 0 0 1
    outer loop
      vertex -1.74345 -14.5524 1.2
      vertex -15 -25 1.2
      vertex -1.78581 -14.7744 1.2
    endloop
  endfacet
  facet normal 0 0 1
    outer loop
      vertex -0.113023 -16.7964 1.2
      vertex -10.314 -29.9901 1.2
      vertex 10.314 -29.9901 1.2
    endloop
  endfacet
  facet normal 0 0 1
    outer loop
      vertex -15 -25 1.2
      vertex -1.31214 -16.2322 1.2
      vertex -1.45623 -16.058 1.2
    endloop
  endfacet
  facet normal 0 0 1
    outer loop
      vertex -15 -25 1.2
      vertex -1.45623 -16.058 1.2
      vertex -1.57735 -15.8672 1.2
    endloop
  endfacet
  facet normal 0 0 1
    outer loop
      vertex -15 -25 1.2
      vertex -1.57735 -15.8672 1.2
      vertex -1.6736 -15.6626 1.2
    endloop
  endfacet
  facet normal 0 0 1
    outer loop
      vertex -15 -25 1.2
      vertex -1.6736 -15.6626 1.2
      vertex -1.74345 -15.4476 1.2
    endloop
  endfacet
  facet normal 0 0 1
    outer loop
      vertex -15 -25 1.2
      vertex -1.74345 -15.4476 1.2
      vertex -1.78581 -15.2256 1.2
    endloop
  endfacet
  facet normal 0 0 1
    outer loop
      vertex -1.78581 -14.7744 1.2
      vertex -15 -25 1.2
      vertex -1.8 -15 1.2
    endloop
  endfacet
  facet normal 0 0 1
    outer loop
      vertex -15 25 1.2
      vertex -10.314 29.9901 1.2
      vertex -10.9369 29.9114 1.2
    endloop
  endfacet
  facet normal 0 0 1
    outer loop
      vertex -1.8 -15 1.2
      vertex -15 -25 1.2
      vertex -1.78581 -15.2256 1.2
    endloop
  endfacet
  facet normal 0 0 1
    outer loop
      vertex -15 25 1.2
      vertex -10.9369 29.9114 1.2
      vertex -11.5451 29.7553 1.2
    endloop
  endfacet
  facet normal 0 0 1
    outer loop
      vertex -1.31214 -16.2322 1.2
      vertex -15 -25 1.2
      vertex -10.314 -29.9901 1.2
    endloop
  endfacet
  facet normal 0 0 1
    outer loop
      vertex -15 25 1.2
      vertex -11.5451 29.7553 1.2
      vertex -12.1289 29.5241 1.2
    endloop
  endfacet
  facet normal 0 0 1
    outer loop
      vertex -10.314 -29.9901 1.2
      vertex -15 -25 1.2
      vertex -10.9369 -29.9114 1.2
    endloop
  endfacet
  facet normal 0 0 1
    outer loop
      vertex -15 25 1.2
      vertex -12.1289 29.5241 1.2
      vertex -12.6791 29.2216 1.2
    endloop
  endfacet
  facet normal 0 0 1
    outer loop
      vertex -10.9369 -29.9114 1.2
      vertex -15 -25 1.2
      vertex -11.5451 -29.7553 1.2
    endloop
  endfacet
  facet normal 0 0 1
    outer loop
      vertex -15 25 1.2
      vertex -12.6791 29.2216 1.2
      vertex -13.1871 28.8526 1.2
    endloop
  endfacet
  facet normal 0 0 1
    outer loop
      vertex -11.5451 -29.7553 1.2
      vertex -15 -25 1.2
      vertex -12.1289 -29.5241 1.2
    endloop
  endfacet
  facet normal 0 0 1
    outer loop
      vertex -15 25 1.2
      vertex -13.1871 28.8526 1.2
      vertex -13.6448 28.4227 1.2
    endloop
  endfacet
  facet normal 0 0 1
    outer loop
      vertex -12.1289 -29.5241 1.2
      vertex -15 -25 1.2
      vertex -12.6791 -29.2216 1.2
    endloop
  endfacet
  facet normal 0 0 1
    outer loop
      vertex -15 25 1.2
      vertex -13.6448 28.4227 1.2
      vertex -14.0451 27.9389 1.2
    endloop
  endfacet
  facet normal 0 0 1
    outer loop
      vertex -12.6791 -29.2216 1.2
      vertex -15 -25 1.2
      vertex -13.1871 -28.8526 1.2
    endloop
  endfacet
  facet normal 0 0 1
    outer loop
      vertex -15 25 1.2
      vertex -14.0451 27.9389 1.2
      vertex -14.3815 27.4088 1.2
    endloop
  endfacet
  facet normal 0 0 1
    outer loop
      vertex -13.1871 -28.8526 1.2
      vertex -15 -25 1.2
      vertex -13.6448 -28.4227 1.2
    endloop
  endfacet
  facet normal 0 0 1
    outer loop
      vertex -15 25 1.2
      vertex -14.3815 27.4088 1.2
      vertex -14.6489 26.8406 1.2
    endloop
  endfacet
  facet normal 0 0 1
    outer loop
      vertex -13.6448 -28.4227 1.2
      vertex -15 -25 1.2
      vertex -14.0451 -27.9389 1.2
    endloop
  endfacet
  facet normal 0 0 1
    outer loop
      vertex -15 25 1.2
      vertex -14.6489 26.8406 1.2
      vertex -14.8429 26.2435 1.2
    endloop
  endfacet
  facet normal 0 0 1
    outer loop
      vertex -14.0451 -27.9389 1.2
      vertex -15 -25 1.2
      vertex -14.3815 -27.4088 1.2
    endloop
  endfacet
  facet normal 0 0 1
    outer loop
      vertex -15 25 1.2
      vertex -14.8429 26.2435 1.2
      vertex -14.9606 25.6267 1.2
    endloop
  endfacet
  facet normal 0 0 1
    outer loop
      vertex -14.3815 -27.4088 1.2
      vertex -15 -25 1.2
      vertex -14.6489 -26.8406 1.2
    endloop
  endfacet
  facet normal 0 0 1
    outer loop
      vertex -14.6489 -26.8406 1.2
      vertex -15 -25 1.2
      vertex -14.8429 -26.2435 1.2
    endloop
  endfacet
  facet normal 0 0 1
    outer loop
      vertex -14.8429 -26.2435 1.2
      vertex -15 -25 1.2
      vertex -14.9606 -25.6267 1.2
    endloop
  endfacet
  facet normal -0.998028 -0.0627749 0
    outer loop
      vertex 1.8 -15 0
      vertex 1.78581 -14.7744 1.2
      vertex 1.78581 -14.7744 0
    endloop
  endfacet
  facet normal -0.998028 -0.0627749 0
    outer loop
      vertex 1.78581 -14.7744 1.2
      vertex 1.8 -15 0
      vertex 1.8 -15 1.2
    endloop
  endfacet
  facet normal 0.998028 -0.0627749 0
    outer loop
      vertex -1.8 -15 1.2
      vertex -1.78581 -14.7744 0
      vertex -1.78581 -14.7744 1.2
    endloop
  endfacet
  facet normal 0.998028 -0.0627749 0
    outer loop
      vertex -1.78581 -14.7744 0
      vertex -1.8 -15 1.2
      vertex -1.8 -15 0
    endloop
  endfacet
  facet normal 0 -1 0
    outer loop
      vertex -0.113023 -13.2036 0
      vertex 0.113023 -13.2036 1.2
      vertex -0.113023 -13.2036 1.2
    endloop
  endfacet
  facet normal 0 -1 -0
    outer loop
      vertex 0.113023 -13.2036 1.2
      vertex -0.113023 -13.2036 0
      vertex 0.113023 -13.2036 0
    endloop
  endfacet
  facet normal 0 1 -0
    outer loop
      vertex 0.113023 -16.7964 0
      vertex -0.113023 -16.7964 1.2
      vertex 0.113023 -16.7964 1.2
    endloop
  endfacet
  facet normal 0 1 0
    outer loop
      vertex -0.113023 -16.7964 1.2
      vertex 0.113023 -16.7964 0
      vertex -0.113023 -16.7964 0
    endloop
  endfacet
  facet normal -0.684456 -0.729054 0
    outer loop
      vertex 1.14736 -13.6131 0
      vertex 1.31214 -13.7678 1.2
      vertex 1.14736 -13.6131 1.2
    endloop
  endfacet
  facet normal -0.684456 -0.729054 -0
    outer loop
      vertex 1.31214 -13.7678 1.2
      vertex 1.14736 -13.6131 0
      vertex 1.31214 -13.7678 0
    endloop
  endfacet
  facet normal 0.684456 -0.729054 0
    outer loop
      vertex -1.31214 -13.7678 0
      vertex -1.14736 -13.6131 1.2
      vertex -1.31214 -13.7678 1.2
    endloop
  endfacet
  facet normal 0.684456 -0.729054 0
    outer loop
      vertex -1.14736 -13.6131 1.2
      vertex -1.31214 -13.7678 0
      vertex -1.14736 -13.6131 0
    endloop
  endfacet
  facet normal 0.368076 -0.929796 0
    outer loop
      vertex -0.766402 -13.3713 0
      vertex -0.556231 -13.2881 1.2
      vertex -0.766402 -13.3713 1.2
    endloop
  endfacet
  facet normal 0.368076 -0.929796 0
    outer loop
      vertex -0.556231 -13.2881 1.2
      vertex -0.766402 -13.3713 0
      vertex -0.556231 -13.2881 0
    endloop
  endfacet
  facet normal -0.904874 -0.42568 0
    outer loop
      vertex 1.6736 -14.3374 0
      vertex 1.57735 -14.1328 1.2
      vertex 1.57735 -14.1328 0
    endloop
  endfacet
  facet normal -0.904874 -0.42568 0
    outer loop
      vertex 1.57735 -14.1328 1.2
      vertex 1.6736 -14.3374 0
      vertex 1.6736 -14.3374 1.2
    endloop
  endfacet
  facet normal -0.982278 -0.187429 0
    outer loop
      vertex 1.78581 -14.7744 0
      vertex 1.74345 -14.5524 1.2
      vertex 1.74345 -14.5524 0
    endloop
  endfacet
  facet normal -0.982278 -0.187429 0
    outer loop
      vertex 1.74345 -14.5524 1.2
      vertex 1.78581 -14.7744 0
      vertex 1.78581 -14.7744 1.2
    endloop
  endfacet
  facet normal -0.368076 -0.929796 0
    outer loop
      vertex 0.556231 -13.2881 0
      vertex 0.766402 -13.3713 1.2
      vertex 0.556231 -13.2881 1.2
    endloop
  endfacet
  facet normal -0.368076 -0.929796 -0
    outer loop
      vertex 0.766402 -13.3713 1.2
      vertex 0.556231 -13.2881 0
      vertex 0.766402 -13.3713 0
    endloop
  endfacet
  facet normal -0.248625 -0.9686 0
    outer loop
      vertex 0.337286 -13.2319 0
      vertex 0.556231 -13.2881 1.2
      vertex 0.337286 -13.2319 1.2
    endloop
  endfacet
  facet normal -0.248625 -0.9686 -0
    outer loop
      vertex 0.556231 -13.2881 1.2
      vertex 0.337286 -13.2319 0
      vertex 0.556231 -13.2881 0
    endloop
  endfacet
  facet normal -0.587889 -0.808942 0
    outer loop
      vertex 0.964488 -13.4802 0
      vertex 1.14736 -13.6131 1.2
      vertex 0.964488 -13.4802 1.2
    endloop
  endfacet
  facet normal -0.587889 -0.808942 -0
    outer loop
      vertex 1.14736 -13.6131 1.2
      vertex 0.964488 -13.4802 0
      vertex 1.14736 -13.6131 0
    endloop
  endfacet
  facet normal 0.904874 -0.42568 0
    outer loop
      vertex -1.6736 -14.3374 1.2
      vertex -1.57735 -14.1328 0
      vertex -1.57735 -14.1328 1.2
    endloop
  endfacet
  facet normal 0.904874 -0.42568 0
    outer loop
      vertex -1.57735 -14.1328 0
      vertex -1.6736 -14.3374 1.2
      vertex -1.6736 -14.3374 0
    endloop
  endfacet
  facet normal 0.844259 -0.535936 0
    outer loop
      vertex -1.57735 -14.1328 1.2
      vertex -1.45623 -13.942 0
      vertex -1.45623 -13.942 1.2
    endloop
  endfacet
  facet normal 0.844259 -0.535936 0
    outer loop
      vertex -1.45623 -13.942 0
      vertex -1.57735 -14.1328 1.2
      vertex -1.57735 -14.1328 0
    endloop
  endfacet
  facet normal 0.951067 -0.308986 0
    outer loop
      vertex -1.74345 -14.5524 1.2
      vertex -1.6736 -14.3374 0
      vertex -1.6736 -14.3374 1.2
    endloop
  endfacet
  facet normal 0.951067 -0.308986 0
    outer loop
      vertex -1.6736 -14.3374 0
      vertex -1.74345 -14.5524 1.2
      vertex -1.74345 -14.5524 0
    endloop
  endfacet
  facet normal 0.587889 -0.808942 0
    outer loop
      vertex -1.14736 -13.6131 0
      vertex -0.964488 -13.4802 1.2
      vertex -1.14736 -13.6131 1.2
    endloop
  endfacet
  facet normal 0.587889 -0.808942 0
    outer loop
      vertex -0.964488 -13.4802 1.2
      vertex -1.14736 -13.6131 0
      vertex -0.964488 -13.4802 0
    endloop
  endfacet
  facet normal 0.248625 -0.9686 0
    outer loop
      vertex -0.556231 -13.2881 0
      vertex -0.337286 -13.2319 1.2
      vertex -0.556231 -13.2881 1.2
    endloop
  endfacet
  facet normal 0.248625 -0.9686 0
    outer loop
      vertex -0.337286 -13.2319 1.2
      vertex -0.556231 -13.2881 0
      vertex -0.337286 -13.2319 0
    endloop
  endfacet
  facet normal -0.125198 0.992132 0
    outer loop
      vertex 0.337286 -16.7681 0
      vertex 0.113023 -16.7964 1.2
      vertex 0.337286 -16.7681 1.2
    endloop
  endfacet
  facet normal -0.125198 0.992132 0
    outer loop
      vertex 0.113023 -16.7964 1.2
      vertex 0.337286 -16.7681 0
      vertex 0.113023 -16.7964 0
    endloop
  endfacet
  facet normal -0.951067 -0.308986 0
    outer loop
      vertex 1.74345 -14.5524 0
      vertex 1.6736 -14.3374 1.2
      vertex 1.6736 -14.3374 0
    endloop
  endfacet
  facet normal -0.951067 -0.308986 0
    outer loop
      vertex 1.6736 -14.3374 1.2
      vertex 1.74345 -14.5524 0
      vertex 1.74345 -14.5524 1.2
    endloop
  endfacet
  facet normal -0.770558 -0.637369 0
    outer loop
      vertex 1.45623 -13.942 0
      vertex 1.31214 -13.7678 1.2
      vertex 1.31214 -13.7678 0
    endloop
  endfacet
  facet normal -0.770558 -0.637369 0
    outer loop
      vertex 1.31214 -13.7678 1.2
      vertex 1.45623 -13.942 0
      vertex 1.45623 -13.942 1.2
    endloop
  endfacet
  facet normal -0.844259 -0.535936 0
    outer loop
      vertex 1.57735 -14.1328 0
      vertex 1.45623 -13.942 1.2
      vertex 1.45623 -13.942 0
    endloop
  endfacet
  facet normal -0.844259 -0.535936 0
    outer loop
      vertex 1.45623 -13.942 1.2
      vertex 1.57735 -14.1328 0
      vertex 1.57735 -14.1328 1.2
    endloop
  endfacet
  facet normal -0.125198 -0.992132 0
    outer loop
      vertex 0.113023 -13.2036 0
      vertex 0.337286 -13.2319 1.2
      vertex 0.113023 -13.2036 1.2
    endloop
  endfacet
  facet normal -0.125198 -0.992132 -0
    outer loop
      vertex 0.337286 -13.2319 1.2
      vertex 0.113023 -13.2036 0
      vertex 0.337286 -13.2319 0
    endloop
  endfacet
  facet normal -0.481758 -0.876304 0
    outer loop
      vertex 0.766402 -13.3713 0
      vertex 0.964488 -13.4802 1.2
      vertex 0.766402 -13.3713 1.2
    endloop
  endfacet
  facet normal -0.481758 -0.876304 -0
    outer loop
      vertex 0.964488 -13.4802 1.2
      vertex 0.766402 -13.3713 0
      vertex 0.964488 -13.4802 0
    endloop
  endfacet
  facet normal 0.770558 -0.637369 0
    outer loop
      vertex -1.45623 -13.942 1.2
      vertex -1.31214 -13.7678 0
      vertex -1.31214 -13.7678 1.2
    endloop
  endfacet
  facet normal 0.770558 -0.637369 0
    outer loop
      vertex -1.31214 -13.7678 0
      vertex -1.45623 -13.942 1.2
      vertex -1.45623 -13.942 0
    endloop
  endfacet
  facet normal 0.982278 -0.187429 0
    outer loop
      vertex -1.78581 -14.7744 1.2
      vertex -1.74345 -14.5524 0
      vertex -1.74345 -14.5524 1.2
    endloop
  endfacet
  facet normal 0.982278 -0.187429 0
    outer loop
      vertex -1.74345 -14.5524 0
      vertex -1.78581 -14.7744 1.2
      vertex -1.78581 -14.7744 0
    endloop
  endfacet
  facet normal 0.481758 -0.876304 0
    outer loop
      vertex -0.964488 -13.4802 0
      vertex -0.766402 -13.3713 1.2
      vertex -0.964488 -13.4802 1.2
    endloop
  endfacet
  facet normal 0.481758 -0.876304 0
    outer loop
      vertex -0.766402 -13.3713 1.2
      vertex -0.964488 -13.4802 0
      vertex -0.766402 -13.3713 0
    endloop
  endfacet
  facet normal 0.125198 -0.992132 0
    outer loop
      vertex -0.337286 -13.2319 0
      vertex -0.113023 -13.2036 1.2
      vertex -0.337286 -13.2319 1.2
    endloop
  endfacet
  facet normal 0.125198 -0.992132 0
    outer loop
      vertex -0.113023 -13.2036 1.2
      vertex -0.337286 -13.2319 0
      vertex -0.113023 -13.2036 0
    endloop
  endfacet
  facet normal -0.684456 0.729054 0
    outer loop
      vertex 1.31214 -16.2322 0
      vertex 1.14736 -16.3869 1.2
      vertex 1.31214 -16.2322 1.2
    endloop
  endfacet
  facet normal -0.684456 0.729054 0
    outer loop
      vertex 1.14736 -16.3869 1.2
      vertex 1.31214 -16.2322 0
      vertex 1.14736 -16.3869 0
    endloop
  endfacet
  facet normal -0.982278 0.187429 0
    outer loop
      vertex 1.74345 -15.4476 0
      vertex 1.78581 -15.2256 1.2
      vertex 1.78581 -15.2256 0
    endloop
  endfacet
  facet normal -0.982278 0.187429 0
    outer loop
      vertex 1.78581 -15.2256 1.2
      vertex 1.74345 -15.4476 0
      vertex 1.74345 -15.4476 1.2
    endloop
  endfacet
  facet normal 0 0 -1
    outer loop
      vertex 1.6736 -14.3374 0
      vertex 15 -25 0
      vertex 1.74345 -14.5524 0
    endloop
  endfacet
  facet normal 0 0 -1
    outer loop
      vertex 15 25 0
      vertex 1.78581 14.7744 0
      vertex 1.8 15 0
    endloop
  endfacet
  facet normal 0 0 -1
    outer loop
      vertex 1.57735 -14.1328 0
      vertex 15 -25 0
      vertex 1.6736 -14.3374 0
    endloop
  endfacet
  facet normal 0 0 -1
    outer loop
      vertex 15 25 0
      vertex 1.74345 14.5524 0
      vertex 1.78581 14.7744 0
    endloop
  endfacet
  facet normal 0 0 -1
    outer loop
      vertex 15 -25 0
      vertex 1.57735 -14.1328 0
      vertex 15 25 0
    endloop
  endfacet
  facet normal 0 0 -1
    outer loop
      vertex 15 25 0
      vertex 1.6736 14.3374 0
      vertex 1.74345 14.5524 0
    endloop
  endfacet
  facet normal 0 0 -1
    outer loop
      vertex 1.57735 14.1328 0
      vertex 15 25 0
      vertex 1.57735 -14.1328 0
    endloop
  endfacet
  facet normal 0 0 -1
    outer loop
      vertex 15 25 0
      vertex 1.57735 14.1328 0
      vertex 1.6736 14.3374 0
    endloop
  endfacet
  facet normal 0 0 -1
    outer loop
      vertex 1.45623 -13.942 0
      vertex 1.57735 14.1328 0
      vertex 1.57735 -14.1328 0
    endloop
  endfacet
  facet normal 0 0 -1
    outer loop
      vertex 1.45623 -13.942 0
      vertex 1.45623 13.942 0
      vertex 1.57735 14.1328 0
    endloop
  endfacet
  facet normal 0 0 -1
    outer loop
      vertex 1.31214 -13.7678 0
      vertex 1.45623 13.942 0
      vertex 1.45623 -13.942 0
    endloop
  endfacet
  facet normal 0 0 -1
    outer loop
      vertex 1.31214 -13.7678 0
      vertex 1.31214 13.7678 0
      vertex 1.45623 13.942 0
    endloop
  endfacet
  facet normal 0 0 -1
    outer loop
      vertex 1.14736 -13.6131 0
      vertex 1.31214 13.7678 0
      vertex 1.31214 -13.7678 0
    endloop
  endfacet
  facet normal 0 0 -1
    outer loop
      vertex 1.14736 -13.6131 0
      vertex 1.14736 13.6131 0
      vertex 1.31214 13.7678 0
    endloop
  endfacet
  facet normal 0 0 -1
    outer loop
      vertex 0.964488 -13.4802 0
      vertex 1.14736 13.6131 0
      vertex 1.14736 -13.6131 0
    endloop
  endfacet
  facet normal 0 0 -1
    outer loop
      vertex 0.964488 -13.4802 0
      vertex 0.964488 13.4802 0
      vertex 1.14736 13.6131 0
    endloop
  endfacet
  facet normal 0 0 -1
    outer loop
      vertex 0.766402 -13.3713 0
      vertex 0.964488 13.4802 0
      vertex 0.964488 -13.4802 0
    endloop
  endfacet
  facet normal 0 0 -1
    outer loop
      vertex 0.766402 -13.3713 0
      vertex 0.766402 13.3713 0
      vertex 0.964488 13.4802 0
    endloop
  endfacet
  facet normal 0 0 -1
    outer loop
      vertex 0.556231 -13.2881 0
      vertex 0.766402 13.3713 0
      vertex 0.766402 -13.3713 0
    endloop
  endfacet
  facet normal 0 0 -1
    outer loop
      vertex 0.556231 -13.2881 0
      vertex 0.556231 13.2881 0
      vertex 0.766402 13.3713 0
    endloop
  endfacet
  facet normal 0 0 -1
    outer loop
      vertex 0.337286 -13.2319 0
      vertex 0.556231 13.2881 0
      vertex 0.556231 -13.2881 0
    endloop
  endfacet
  facet normal 0 0 -1
    outer loop
      vertex 0.337286 -13.2319 0
      vertex 0.337286 13.2319 0
      vertex 0.556231 13.2881 0
    endloop
  endfacet
  facet normal 0 0 -1
    outer loop
      vertex 0.113023 -13.2036 0
      vertex 0.337286 13.2319 0
      vertex 0.337286 -13.2319 0
    endloop
  endfacet
  facet normal 0 0 -1
    outer loop
      vertex 0.113023 -13.2036 0
      vertex 0.113023 13.2036 0
      vertex 0.337286 13.2319 0
    endloop
  endfacet
  facet normal 0 0 -1
    outer loop
      vertex -0.113023 -13.2036 0
      vertex 0.113023 13.2036 0
      vertex 0.113023 -13.2036 0
    endloop
  endfacet
  facet normal 0 0 -1
    outer loop
      vertex -0.113023 -13.2036 0
      vertex -0.113023 13.2036 0
      vertex 0.113023 13.2036 0
    endloop
  endfacet
  facet normal 0 0 -1
    outer loop
      vertex -0.337286 -13.2319 0
      vertex -0.113023 13.2036 0
      vertex -0.113023 -13.2036 0
    endloop
  endfacet
  facet normal 0 0 -1
    outer loop
      vertex -0.337286 -13.2319 0
      vertex -0.337286 13.2319 0
      vertex -0.113023 13.2036 0
    endloop
  endfacet
  facet normal 0 0 -1
    outer loop
      vertex -0.556231 -13.2881 0
      vertex -0.337286 13.2319 0
      vertex -0.337286 -13.2319 0
    endloop
  endfacet
  facet normal 0 0 -1
    outer loop
      vertex -0.556231 -13.2881 0
      vertex -0.556231 13.2881 0
      vertex -0.337286 13.2319 0
    endloop
  endfacet
  facet normal 0 0 -1
    outer loop
      vertex -0.766402 -13.3713 0
      vertex -0.556231 13.2881 0
      vertex -0.556231 -13.2881 0
    endloop
  endfacet
  facet normal 0 0 -1
    outer loop
      vertex -0.766402 -13.3713 0
      vertex -0.766402 13.3713 0
      vertex -0.556231 13.2881 0
    endloop
  endfacet
  facet normal 0 0 -1
    outer loop
      vertex -0.964488 -13.4802 0
      vertex -0.766402 13.3713 0
      vertex -0.766402 -13.3713 0
    endloop
  endfacet
  facet normal 0 0 -1
    outer loop
      vertex -0.964488 -13.4802 0
      vertex -0.964488 13.4802 0
      vertex -0.766402 13.3713 0
    endloop
  endfacet
  facet normal 0 0 -1
    outer loop
      vertex -1.14736 -13.6131 0
      vertex -0.964488 13.4802 0
      vertex -0.964488 -13.4802 0
    endloop
  endfacet
  facet normal 0 0 -1
    outer loop
      vertex -1.14736 -13.6131 0
      vertex -1.14736 13.6131 0
      vertex -0.964488 13.4802 0
    endloop
  endfacet
  facet normal 0 0 -1
    outer loop
      vertex -1.31214 -13.7678 0
      vertex -1.14736 13.6131 0
      vertex -1.14736 -13.6131 0
    endloop
  endfacet
  facet normal 0 0 -1
    outer loop
      vertex -1.31214 -13.7678 0
      vertex -1.31214 13.7678 0
      vertex -1.14736 13.6131 0
    endloop
  endfacet
  facet normal 0 0 -1
    outer loop
      vertex -1.45623 -13.942 0
      vertex -1.31214 13.7678 0
      vertex -1.31214 -13.7678 0
    endloop
  endfacet
  facet normal 0 0 -1
    outer loop
      vertex -1.45623 -13.942 0
      vertex -1.45623 13.942 0
      vertex -1.31214 13.7678 0
    endloop
  endfacet
  facet normal 0 0 -1
    outer loop
      vertex -1.57735 -14.1328 0
      vertex -1.45623 13.942 0
      vertex -1.45623 -13.942 0
    endloop
  endfacet
  facet normal 0 0 -1
    outer loop
      vertex -1.57735 -14.1328 0
      vertex -1.57735 14.1328 0
      vertex -1.45623 13.942 0
    endloop
  endfacet
  facet normal 0 0 -1
    outer loop
      vertex -15 -25 0
      vertex -1.57735 -14.1328 0
      vertex -1.6736 -14.3374 0
    endloop
  endfacet
  facet normal -0 0 -1
    outer loop
      vertex -1.57735 -14.1328 0
      vertex -15 -25 0
      vertex -1.57735 14.1328 0
    endloop
  endfacet
  facet normal 0 0 -1
    outer loop
      vertex -15 -25 0
      vertex -1.6736 -14.3374 0
      vertex -1.74345 -14.5524 0
    endloop
  endfacet
  facet normal 0 0 -1
    outer loop
      vertex -15 25 0
      vertex -1.57735 14.1328 0
      vertex -15 -25 0
    endloop
  endfacet
  facet normal 0 0 -1
    outer loop
      vertex -15 -25 0
      vertex -1.74345 -14.5524 0
      vertex -1.78581 -14.7744 0
    endloop
  endfacet
  facet normal 0 0 -1
    outer loop
      vertex -1.57735 14.1328 0
      vertex -15 25 0
      vertex -1.6736 14.3374 0
    endloop
  endfacet
  facet normal 0 0 -1
    outer loop
      vertex -15 -25 0
      vertex -1.78581 -14.7744 0
      vertex -1.8 -15 0
    endloop
  endfacet
  facet normal 0 0 -1
    outer loop
      vertex -1.6736 14.3374 0
      vertex -15 25 0
      vertex -1.74345 14.5524 0
    endloop
  endfacet
  facet normal 0 0 -1
    outer loop
      vertex 10.314 -29.9901 0
      vertex 15 -25 0
      vertex 14.9606 -25.6267 0
    endloop
  endfacet
  facet normal 0 0 -1
    outer loop
      vertex 1.78581 -14.7744 0
      vertex 15 -25 0
      vertex 1.8 -15 0
    endloop
  endfacet
  facet normal 0 0 -1
    outer loop
      vertex 10.314 -29.9901 0
      vertex 14.9606 -25.6267 0
      vertex 14.8429 -26.2435 0
    endloop
  endfacet
  facet normal 0 0 -1
    outer loop
      vertex 1.74345 -14.5524 0
      vertex 15 -25 0
      vertex 1.78581 -14.7744 0
    endloop
  endfacet
  facet normal 0 0 -1
    outer loop
      vertex 10.314 -29.9901 0
      vertex 14.8429 -26.2435 0
      vertex 14.6489 -26.8406 0
    endloop
  endfacet
  facet normal 0 0 -1
    outer loop
      vertex 1.78581 15.2256 0
      vertex 15 25 0
      vertex 1.8 15 0
    endloop
  endfacet
  facet normal 0 0 -1
    outer loop
      vertex 10.314 -29.9901 0
      vertex 14.6489 -26.8406 0
      vertex 14.3815 -27.4088 0
    endloop
  endfacet
  facet normal 0 0 -1
    outer loop
      vertex 1.74345 15.4476 0
      vertex 15 25 0
      vertex 1.78581 15.2256 0
    endloop
  endfacet
  facet normal 0 0 -1
    outer loop
      vertex 10.314 -29.9901 0
      vertex 14.3815 -27.4088 0
      vertex 14.0451 -27.9389 0
    endloop
  endfacet
  facet normal 0 0 -1
    outer loop
      vertex 1.6736 15.6626 0
      vertex 15 25 0
      vertex 1.74345 15.4476 0
    endloop
  endfacet
  facet normal 0 0 -1
    outer loop
      vertex 10.314 -29.9901 0
      vertex 14.0451 -27.9389 0
      vertex 13.6448 -28.4227 0
    endloop
  endfacet
  facet normal 0 0 -1
    outer loop
      vertex 1.57735 15.8672 0
      vertex 15 25 0
      vertex 1.6736 15.6626 0
    endloop
  endfacet
  facet normal 0 0 -1
    outer loop
      vertex 10.314 -29.9901 0
      vertex 13.6448 -28.4227 0
      vertex 13.1871 -28.8526 0
    endloop
  endfacet
  facet normal 0 0 -1
    outer loop
      vertex 1.45623 16.058 0
      vertex 15 25 0
      vertex 1.57735 15.8672 0
    endloop
  endfacet
  facet normal 0 0 -1
    outer loop
      vertex 10.314 -29.9901 0
      vertex 13.1871 -28.8526 0
      vertex 12.6791 -29.2216 0
    endloop
  endfacet
  facet normal 0 0 -1
    outer loop
      vertex 1.31214 16.2322 0
      vertex 15 25 0
      vertex 1.45623 16.058 0
    endloop
  endfacet
  facet normal 0 0 -1
    outer loop
      vertex 10.314 -29.9901 0
      vertex 12.6791 -29.2216 0
      vertex 12.1289 -29.5241 0
    endloop
  endfacet
  facet normal 0 -0 -1
    outer loop
      vertex 10.314 29.9901 0
      vertex 15 25 0
      vertex 1.31214 16.2322 0
    endloop
  endfacet
  facet normal 0 0 -1
    outer loop
      vertex 10.314 -29.9901 0
      vertex 12.1289 -29.5241 0
      vertex 11.5451 -29.7553 0
    endloop
  endfacet
  facet normal 0 0 -1
    outer loop
      vertex 15 25 0
      vertex 10.314 29.9901 0
      vertex 14.9606 25.6267 0
    endloop
  endfacet
  facet normal 0 0 -1
    outer loop
      vertex 10.314 -29.9901 0
      vertex 11.5451 -29.7553 0
      vertex 10.9369 -29.9114 0
    endloop
  endfacet
  facet normal 0 0 -1
    outer loop
      vertex 14.9606 25.6267 0
      vertex 10.314 29.9901 0
      vertex 14.8429 26.2435 0
    endloop
  endfacet
  facet normal -0 0 -1
    outer loop
      vertex 15 -25 0
      vertex 10.314 -29.9901 0
      vertex 1.31214 -16.2322 0
    endloop
  endfacet
  facet normal 0 0 -1
    outer loop
      vertex 14.8429 26.2435 0
      vertex 10.314 29.9901 0
      vertex 14.6489 26.8406 0
    endloop
  endfacet
  facet normal 0 0 -1
    outer loop
      vertex 14.3815 27.4088 0
      vertex 10.314 29.9901 0
      vertex 14.0451 27.9389 0
    endloop
  endfacet
  facet normal 0 0 -1
    outer loop
      vertex 15 -25 0
      vertex 1.78581 -15.2256 0
      vertex 1.8 -15 0
    endloop
  endfacet
  facet normal 0 0 -1
    outer loop
      vertex 15 -25 0
      vertex 1.74345 -15.4476 0
      vertex 1.78581 -15.2256 0
    endloop
  endfacet
  facet normal 0 0 -1
    outer loop
      vertex 15 -25 0
      vertex 1.6736 -15.6626 0
      vertex 1.74345 -15.4476 0
    endloop
  endfacet
  facet normal 0 0 -1
    outer loop
      vertex 15 -25 0
      vertex 1.57735 -15.8672 0
      vertex 1.6736 -15.6626 0
    endloop
  endfacet
  facet normal 0 0 -1
    outer loop
      vertex 15 -25 0
      vertex 1.45623 -16.058 0
      vertex 1.57735 -15.8672 0
    endloop
  endfacet
  facet normal 0 0 -1
    outer loop
      vertex 15 -25 0
      vertex 1.31214 -16.2322 0
      vertex 1.45623 -16.058 0
    endloop
  endfacet
  facet normal 0 0 -1
    outer loop
      vertex 10.314 -29.9901 0
      vertex 1.14736 -16.3869 0
      vertex 1.31214 -16.2322 0
    endloop
  endfacet
  facet normal 0 0 -1
    outer loop
      vertex 10.314 -29.9901 0
      vertex 0.964488 -16.5198 0
      vertex 1.14736 -16.3869 0
    endloop
  endfacet
  facet normal 0 0 -1
    outer loop
      vertex 10.314 -29.9901 0
      vertex 0.766402 -16.6287 0
      vertex 0.964488 -16.5198 0
    endloop
  endfacet
  facet normal 0 0 -1
    outer loop
      vertex 10.314 -29.9901 0
      vertex 0.556231 -16.7119 0
      vertex 0.766402 -16.6287 0
    endloop
  endfacet
  facet normal 0 0 -1
    outer loop
      vertex 10.314 -29.9901 0
      vertex 0.337286 -16.7681 0
      vertex 0.556231 -16.7119 0
    endloop
  endfacet
  facet normal 0 0 -1
    outer loop
      vertex 10.314 -29.9901 0
      vertex 0.113023 -16.7964 0
      vertex 0.337286 -16.7681 0
    endloop
  endfacet
  facet normal 0 0 -1
    outer loop
      vertex 10.314 -29.9901 0
      vertex -0.113023 -16.7964 0
      vertex 0.113023 -16.7964 0
    endloop
  endfacet
  facet normal 0 0 -1
    outer loop
      vertex -10.314 -29.9901 0
      vertex -0.113023 -16.7964 0
      vertex 10.314 -29.9901 0
    endloop
  endfacet
  facet normal -0 0 -1
    outer loop
      vertex -0.113023 -16.7964 0
      vertex -10.314 -29.9901 0
      vertex -0.337286 -16.7681 0
    endloop
  endfacet
  facet normal -0 0 -1
    outer loop
      vertex -0.337286 -16.7681 0
      vertex -10.314 -29.9901 0
      vertex -0.556231 -16.7119 0
    endloop
  endfacet
  facet normal -0 0 -1
    outer loop
      vertex -0.556231 -16.7119 0
      vertex -10.314 -29.9901 0
      vertex -0.766402 -16.6287 0
    endloop
  endfacet
  facet normal -0 0 -1
    outer loop
      vertex -0.766402 -16.6287 0
      vertex -10.314 -29.9901 0
      vertex -0.964488 -16.5198 0
    endloop
  endfacet
  facet normal -0 0 -1
    outer loop
      vertex -0.964488 -16.5198 0
      vertex -10.314 -29.9901 0
      vertex -1.14736 -16.3869 0
    endloop
  endfacet
  facet normal -0 0 -1
    outer loop
      vertex -1.78581 -15.2256 0
      vertex -15 -25 0
      vertex -1.8 -15 0
    endloop
  endfacet
  facet normal -0 0 -1
    outer loop
      vertex -1.74345 -15.4476 0
      vertex -15 -25 0
      vertex -1.78581 -15.2256 0
    endloop
  endfacet
  facet normal -0 0 -1
    outer loop
      vertex -1.6736 -15.6626 0
      vertex -15 -25 0
      vertex -1.74345 -15.4476 0
    endloop
  endfacet
  facet normal -0 0 -1
    outer loop
      vertex -1.57735 -15.8672 0
      vertex -15 -25 0
      vertex -1.6736 -15.6626 0
    endloop
  endfacet
  facet normal -0 0 -1
    outer loop
      vertex -1.45623 -16.058 0
      vertex -15 -25 0
      vertex -1.57735 -15.8672 0
    endloop
  endfacet
  facet normal -0 0 -1
    outer loop
      vertex -1.31214 -16.2322 0
      vertex -15 -25 0
      vertex -1.45623 -16.058 0
    endloop
  endfacet
  facet normal 0 0 -1
    outer loop
      vertex -15 -25 0
      vertex -1.31214 -16.2322 0
      vertex -10.314 -29.9901 0
    endloop
  endfacet
  facet normal -0 0 -1
    outer loop
      vertex -1.14736 -16.3869 0
      vertex -10.314 -29.9901 0
      vertex -1.31214 -16.2322 0
    endloop
  endfacet
  facet normal 0 0 -1
    outer loop
      vertex 14.0451 27.9389 0
      vertex 10.314 29.9901 0
      vertex 13.6448 28.4227 0
    endloop
  endfacet
  facet normal 0 0 -1
    outer loop
      vertex 13.6448 28.4227 0
      vertex 10.314 29.9901 0
      vertex 13.1871 28.8526 0
    endloop
  endfacet
  facet normal 0 0 -1
    outer loop
      vertex 13.1871 28.8526 0
      vertex 10.314 29.9901 0
      vertex 12.6791 29.2216 0
    endloop
  endfacet
  facet normal 0 0 -1
    outer loop
      vertex 12.1289 29.5241 0
      vertex 10.314 29.9901 0
      vertex 11.5451 29.7553 0
    endloop
  endfacet
  facet normal 0 0 -1
    outer loop
      vertex 11.5451 29.7553 0
      vertex 10.314 29.9901 0
      vertex 10.9369 29.9114 0
    endloop
  endfacet
  facet normal 0 0 -1
    outer loop
      vertex 12.6791 29.2216 0
      vertex 10.314 29.9901 0
      vertex 12.1289 29.5241 0
    endloop
  endfacet
  facet normal 0 0 -1
    outer loop
      vertex 14.6489 26.8406 0
      vertex 10.314 29.9901 0
      vertex 14.3815 27.4088 0
    endloop
  endfacet
  facet normal 0 0 -1
    outer loop
      vertex 1.14736 16.3869 0
      vertex 10.314 29.9901 0
      vertex 1.31214 16.2322 0
    endloop
  endfacet
  facet normal 0 0 -1
    outer loop
      vertex 0.964488 16.5198 0
      vertex 10.314 29.9901 0
      vertex 1.14736 16.3869 0
    endloop
  endfacet
  facet normal 0 0 -1
    outer loop
      vertex 0.766402 16.6287 0
      vertex 10.314 29.9901 0
      vertex 0.964488 16.5198 0
    endloop
  endfacet
  facet normal 0 0 -1
    outer loop
      vertex 0.556231 16.7119 0
      vertex 10.314 29.9901 0
      vertex 0.766402 16.6287 0
    endloop
  endfacet
  facet normal 0 0 -1
    outer loop
      vertex 0.337286 16.7681 0
      vertex 10.314 29.9901 0
      vertex 0.556231 16.7119 0
    endloop
  endfacet
  facet normal 0 0 -1
    outer loop
      vertex 0.113023 16.7964 0
      vertex 10.314 29.9901 0
      vertex 0.337286 16.7681 0
    endloop
  endfacet
  facet normal 0 0 -1
    outer loop
      vertex -0.113023 16.7964 0
      vertex 10.314 29.9901 0
      vertex 0.113023 16.7964 0
    endloop
  endfacet
  facet normal 0 0 -1
    outer loop
      vertex -10.314 29.9901 0
      vertex -0.113023 16.7964 0
      vertex -0.337286 16.7681 0
    endloop
  endfacet
  facet normal 0 0 -1
    outer loop
      vertex -10.314 29.9901 0
      vertex -0.337286 16.7681 0
      vertex -0.556231 16.7119 0
    endloop
  endfacet
  facet normal 0 0 -1
    outer loop
      vertex -10.314 29.9901 0
      vertex -0.556231 16.7119 0
      vertex -0.766402 16.6287 0
    endloop
  endfacet
  facet normal 0 0 -1
    outer loop
      vertex -10.314 29.9901 0
      vertex -0.766402 16.6287 0
      vertex -0.964488 16.5198 0
    endloop
  endfacet
  facet normal 0 0 -1
    outer loop
      vertex -10.314 29.9901 0
      vertex -0.964488 16.5198 0
      vertex -1.14736 16.3869 0
    endloop
  endfacet
  facet normal 0 0 -1
    outer loop
      vertex -10.314 29.9901 0
      vertex -1.14736 16.3869 0
      vertex -1.31214 16.2322 0
    endloop
  endfacet
  facet normal 0 0 -1
    outer loop
      vertex -1.74345 14.5524 0
      vertex -15 25 0
      vertex -1.78581 14.7744 0
    endloop
  endfacet
  facet normal 0 0 -1
    outer loop
      vertex -0.113023 16.7964 0
      vertex -10.314 29.9901 0
      vertex 10.314 29.9901 0
    endloop
  endfacet
  facet normal 0 0 -1
    outer loop
      vertex -15 25 0
      vertex -1.31214 16.2322 0
      vertex -1.45623 16.058 0
    endloop
  endfacet
  facet normal 0 0 -1
    outer loop
      vertex -15 25 0
      vertex -1.45623 16.058 0
      vertex -1.57735 15.8672 0
    endloop
  endfacet
  facet normal 0 0 -1
    outer loop
      vertex -15 25 0
      vertex -1.57735 15.8672 0
      vertex -1.6736 15.6626 0
    endloop
  endfacet
  facet normal 0 0 -1
    outer loop
      vertex -15 25 0
      vertex -1.6736 15.6626 0
      vertex -1.74345 15.4476 0
    endloop
  endfacet
  facet normal 0 0 -1
    outer loop
      vertex -15 25 0
      vertex -1.74345 15.4476 0
      vertex -1.78581 15.2256 0
    endloop
  endfacet
  facet normal 0 0 -1
    outer loop
      vertex -1.78581 14.7744 0
      vertex -15 25 0
      vertex -1.8 15 0
    endloop
  endfacet
  facet normal 0 0 -1
    outer loop
      vertex -15 -25 0
      vertex -10.314 -29.9901 0
      vertex -10.9369 -29.9114 0
    endloop
  endfacet
  facet normal 0 0 -1
    outer loop
      vertex -1.8 15 0
      vertex -15 25 0
      vertex -1.78581 15.2256 0
    endloop
  endfacet
  facet normal 0 0 -1
    outer loop
      vertex -15 -25 0
      vertex -10.9369 -29.9114 0
      vertex -11.5451 -29.7553 0
    endloop
  endfacet
  facet normal 0 0 -1
    outer loop
      vertex -1.31214 16.2322 0
      vertex -15 25 0
      vertex -10.314 29.9901 0
    endloop
  endfacet
  facet normal 0 0 -1
    outer loop
      vertex -15 -25 0
      vertex -11.5451 -29.7553 0
      vertex -12.1289 -29.5241 0
    endloop
  endfacet
  facet normal 0 0 -1
    outer loop
      vertex -10.314 29.9901 0
      vertex -15 25 0
      vertex -10.9369 29.9114 0
    endloop
  endfacet
  facet normal 0 0 -1
    outer loop
      vertex -15 -25 0
      vertex -12.1289 -29.5241 0
      vertex -12.6791 -29.2216 0
    endloop
  endfacet
  facet normal 0 0 -1
    outer loop
      vertex -10.9369 29.9114 0
      vertex -15 25 0
      vertex -11.5451 29.7553 0
    endloop
  endfacet
  facet normal 0 0 -1
    outer loop
      vertex -15 -25 0
      vertex -12.6791 -29.2216 0
      vertex -13.1871 -28.8526 0
    endloop
  endfacet
  facet normal 0 0 -1
    outer loop
      vertex -11.5451 29.7553 0
      vertex -15 25 0
      vertex -12.1289 29.5241 0
    endloop
  endfacet
  facet normal 0 0 -1
    outer loop
      vertex -15 -25 0
      vertex -13.1871 -28.8526 0
      vertex -13.6448 -28.4227 0
    endloop
  endfacet
  facet normal 0 0 -1
    outer loop
      vertex -12.1289 29.5241 0
      vertex -15 25 0
      vertex -12.6791 29.2216 0
    endloop
  endfacet
  facet normal 0 0 -1
    outer loop
      vertex -15 -25 0
      vertex -13.6448 -28.4227 0
      vertex -14.0451 -27.9389 0
    endloop
  endfacet
  facet normal 0 0 -1
    outer loop
      vertex -12.6791 29.2216 0
      vertex -15 25 0
      vertex -13.1871 28.8526 0
    endloop
  endfacet
  facet normal 0 0 -1
    outer loop
      vertex -15 -25 0
      vertex -14.0451 -27.9389 0
      vertex -14.3815 -27.4088 0
    endloop
  endfacet
  facet normal 0 0 -1
    outer loop
      vertex -13.1871 28.8526 0
      vertex -15 25 0
      vertex -13.6448 28.4227 0
    endloop
  endfacet
  facet normal 0 0 -1
    outer loop
      vertex -15 -25 0
      vertex -14.3815 -27.4088 0
      vertex -14.6489 -26.8406 0
    endloop
  endfacet
  facet normal 0 0 -1
    outer loop
      vertex -13.6448 28.4227 0
      vertex -15 25 0
      vertex -14.0451 27.9389 0
    endloop
  endfacet
  facet normal 0 0 -1
    outer loop
      vertex -15 -25 0
      vertex -14.6489 -26.8406 0
      vertex -14.8429 -26.2435 0
    endloop
  endfacet
  facet normal 0 0 -1
    outer loop
      vertex -14.0451 27.9389 0
      vertex -15 25 0
      vertex -14.3815 27.4088 0
    endloop
  endfacet
  facet normal 0 0 -1
    outer loop
      vertex -15 -25 0
      vertex -14.8429 -26.2435 0
      vertex -14.9606 -25.6267 0
    endloop
  endfacet
  facet normal 0 0 -1
    outer loop
      vertex -14.3815 27.4088 0
      vertex -15 25 0
      vertex -14.6489 26.8406 0
    endloop
  endfacet
  facet normal 0 0 -1
    outer loop
      vertex -14.6489 26.8406 0
      vertex -15 25 0
      vertex -14.8429 26.2435 0
    endloop
  endfacet
  facet normal 0 0 -1
    outer loop
      vertex -14.8429 26.2435 0
      vertex -15 25 0
      vertex -14.9606 25.6267 0
    endloop
  endfacet
  facet normal -0.368076 0.929796 0
    outer loop
      vertex 0.766402 -16.6287 0
      vertex 0.556231 -16.7119 1.2
      vertex 0.766402 -16.6287 1.2
    endloop
  endfacet
  facet normal -0.368076 0.929796 0
    outer loop
      vertex 0.556231 -16.7119 1.2
      vertex 0.766402 -16.6287 0
      vertex 0.556231 -16.7119 0
    endloop
  endfacet
  facet normal -0.481758 0.876304 0
    outer loop
      vertex 0.964488 -16.5198 0
      vertex 0.766402 -16.6287 1.2
      vertex 0.964488 -16.5198 1.2
    endloop
  endfacet
  facet normal -0.481758 0.876304 0
    outer loop
      vertex 0.766402 -16.6287 1.2
      vertex 0.964488 -16.5198 0
      vertex 0.766402 -16.6287 0
    endloop
  endfacet
  facet normal -0.904874 0.42568 0
    outer loop
      vertex 1.57735 -15.8672 0
      vertex 1.6736 -15.6626 1.2
      vertex 1.6736 -15.6626 0
    endloop
  endfacet
  facet normal -0.904874 0.42568 0
    outer loop
      vertex 1.6736 -15.6626 1.2
      vertex 1.57735 -15.8672 0
      vertex 1.57735 -15.8672 1.2
    endloop
  endfacet
  facet normal -0.770558 0.637369 0
    outer loop
      vertex 1.31214 -16.2322 0
      vertex 1.45623 -16.058 1.2
      vertex 1.45623 -16.058 0
    endloop
  endfacet
  facet normal -0.770558 0.637369 0
    outer loop
      vertex 1.45623 -16.058 1.2
      vertex 1.31214 -16.2322 0
      vertex 1.31214 -16.2322 1.2
    endloop
  endfacet
  facet normal -0.998028 0.0627749 0
    outer loop
      vertex 1.78581 -15.2256 0
      vertex 1.8 -15 1.2
      vertex 1.8 -15 0
    endloop
  endfacet
  facet normal -0.998028 0.0627749 0
    outer loop
      vertex 1.8 -15 1.2
      vertex 1.78581 -15.2256 0
      vertex 1.78581 -15.2256 1.2
    endloop
  endfacet
  facet normal 0.587889 0.808942 -0
    outer loop
      vertex -0.964488 -16.5198 0
      vertex -1.14736 -16.3869 1.2
      vertex -0.964488 -16.5198 1.2
    endloop
  endfacet
  facet normal 0.587889 0.808942 0
    outer loop
      vertex -1.14736 -16.3869 1.2
      vertex -0.964488 -16.5198 0
      vertex -1.14736 -16.3869 0
    endloop
  endfacet
  facet normal 0.248625 0.9686 -0
    outer loop
      vertex -0.337286 -16.7681 0
      vertex -0.556231 -16.7119 1.2
      vertex -0.337286 -16.7681 1.2
    endloop
  endfacet
  facet normal 0.248625 0.9686 0
    outer loop
      vertex -0.556231 -16.7119 1.2
      vertex -0.337286 -16.7681 0
      vertex -0.556231 -16.7119 0
    endloop
  endfacet
  facet normal 0.951067 0.308986 0
    outer loop
      vertex -1.6736 -15.6626 1.2
      vertex -1.74345 -15.4476 0
      vertex -1.74345 -15.4476 1.2
    endloop
  endfacet
  facet normal 0.951067 0.308986 0
    outer loop
      vertex -1.74345 -15.4476 0
      vertex -1.6736 -15.6626 1.2
      vertex -1.6736 -15.6626 0
    endloop
  endfacet
  facet normal 0.998028 0.0627749 0
    outer loop
      vertex -1.78581 -15.2256 1.2
      vertex -1.8 -15 0
      vertex -1.8 -15 1.2
    endloop
  endfacet
  facet normal 0.998028 0.0627749 0
    outer loop
      vertex -1.8 -15 0
      vertex -1.78581 -15.2256 1.2
      vertex -1.78581 -15.2256 0
    endloop
  endfacet
  facet normal -0.248625 0.9686 0
    outer loop
      vertex 0.556231 -16.7119 0
      vertex 0.337286 -16.7681 1.2
      vertex 0.556231 -16.7119 1.2
    endloop
  endfacet
  facet normal -0.248625 0.9686 0
    outer loop
      vertex 0.337286 -16.7681 1.2
      vertex 0.556231 -16.7119 0
      vertex 0.337286 -16.7681 0
    endloop
  endfacet
  facet normal -0.587889 0.808942 0
    outer loop
      vertex 1.14736 -16.3869 0
      vertex 0.964488 -16.5198 1.2
      vertex 1.14736 -16.3869 1.2
    endloop
  endfacet
  facet normal -0.587889 0.808942 0
    outer loop
      vertex 0.964488 -16.5198 1.2
      vertex 1.14736 -16.3869 0
      vertex 0.964488 -16.5198 0
    endloop
  endfacet
  facet normal -0.951067 0.308986 0
    outer loop
      vertex 1.6736 -15.6626 0
      vertex 1.74345 -15.4476 1.2
      vertex 1.74345 -15.4476 0
    endloop
  endfacet
  facet normal -0.951067 0.308986 0
    outer loop
      vertex 1.74345 -15.4476 1.2
      vertex 1.6736 -15.6626 0
      vertex 1.6736 -15.6626 1.2
    endloop
  endfacet
  facet normal -0.844259 0.535936 0
    outer loop
      vertex 1.45623 -16.058 0
      vertex 1.57735 -15.8672 1.2
      vertex 1.57735 -15.8672 0
    endloop
  endfacet
  facet normal -0.844259 0.535936 0
    outer loop
      vertex 1.57735 -15.8672 1.2
      vertex 1.45623 -16.058 0
      vertex 1.45623 -16.058 1.2
    endloop
  endfacet
  facet normal 0.125198 0.992132 -0
    outer loop
      vertex -0.113023 -16.7964 0
      vertex -0.337286 -16.7681 1.2
      vertex -0.113023 -16.7964 1.2
    endloop
  endfacet
  facet normal 0.125198 0.992132 0
    outer loop
      vertex -0.337286 -16.7681 1.2
      vertex -0.113023 -16.7964 0
      vertex -0.337286 -16.7681 0
    endloop
  endfacet
  facet normal 0.684456 0.729054 -0
    outer loop
      vertex -1.14736 -16.3869 0
      vertex -1.31214 -16.2322 1.2
      vertex -1.14736 -16.3869 1.2
    endloop
  endfacet
  facet normal 0.684456 0.729054 0
    outer loop
      vertex -1.31214 -16.2322 1.2
      vertex -1.14736 -16.3869 0
      vertex -1.31214 -16.2322 0
    endloop
  endfacet
  facet normal 0.904874 0.42568 0
    outer loop
      vertex -1.57735 -15.8672 1.2
      vertex -1.6736 -15.6626 0
      vertex -1.6736 -15.6626 1.2
    endloop
  endfacet
  facet normal 0.904874 0.42568 0
    outer loop
      vertex -1.6736 -15.6626 0
      vertex -1.57735 -15.8672 1.2
      vertex -1.57735 -15.8672 0
    endloop
  endfacet
  facet normal 0.982278 0.187429 0
    outer loop
      vertex -1.74345 -15.4476 1.2
      vertex -1.78581 -15.2256 0
      vertex -1.78581 -15.2256 1.2
    endloop
  endfacet
  facet normal 0.982278 0.187429 0
    outer loop
      vertex -1.78581 -15.2256 0
      vertex -1.74345 -15.4476 1.2
      vertex -1.74345 -15.4476 0
    endloop
  endfacet
  facet normal 0.368076 0.929796 -0
    outer loop
      vertex -0.556231 -16.7119 0
      vertex -0.766402 -16.6287 1.2
      vertex -0.556231 -16.7119 1.2
    endloop
  endfacet
  facet normal 0.368076 0.929796 0
    outer loop
      vertex -0.766402 -16.6287 1.2
      vertex -0.556231 -16.7119 0
      vertex -0.766402 -16.6287 0
    endloop
  endfacet
  facet normal 0.481758 0.876304 -0
    outer loop
      vertex -0.766402 -16.6287 0
      vertex -0.964488 -16.5198 1.2
      vertex -0.766402 -16.6287 1.2
    endloop
  endfacet
  facet normal 0.481758 0.876304 0
    outer loop
      vertex -0.964488 -16.5198 1.2
      vertex -0.766402 -16.6287 0
      vertex -0.964488 -16.5198 0
    endloop
  endfacet
  facet normal 0.844259 0.535936 0
    outer loop
      vertex -1.45623 -16.058 1.2
      vertex -1.57735 -15.8672 0
      vertex -1.57735 -15.8672 1.2
    endloop
  endfacet
  facet normal 0.844259 0.535936 0
    outer loop
      vertex -1.57735 -15.8672 0
      vertex -1.45623 -16.058 1.2
      vertex -1.45623 -16.058 0
    endloop
  endfacet
  facet normal 0.770558 0.637369 0
    outer loop
      vertex -1.31214 -16.2322 1.2
      vertex -1.45623 -16.058 0
      vertex -1.45623 -16.058 1.2
    endloop
  endfacet
  facet normal 0.770558 0.637369 0
    outer loop
      vertex -1.45623 -16.058 0
      vertex -1.31214 -16.2322 1.2
      vertex -1.31214 -16.2322 0
    endloop
  endfacet
  facet normal -0.998028 -0.0627749 0
    outer loop
      vertex 1.8 15 0
      vertex 1.78581 15.2256 1.2
      vertex 1.78581 15.2256 0
    endloop
  endfacet
  facet normal -0.998028 -0.0627749 0
    outer loop
      vertex 1.78581 15.2256 1.2
      vertex 1.8 15 0
      vertex 1.8 15 1.2
    endloop
  endfacet
  facet normal 0.125198 -0.992132 0
    outer loop
      vertex -0.337286 16.7681 0
      vertex -0.113023 16.7964 1.2
      vertex -0.337286 16.7681 1.2
    endloop
  endfacet
  facet normal 0.125198 -0.992132 0
    outer loop
      vertex -0.113023 16.7964 1.2
      vertex -0.337286 16.7681 0
      vertex -0.113023 16.7964 0
    endloop
  endfacet
  facet normal -0.125198 0.992132 0
    outer loop
      vertex 0.337286 13.2319 0
      vertex 0.113023 13.2036 1.2
      vertex 0.337286 13.2319 1.2
    endloop
  endfacet
  facet normal -0.125198 0.992132 0
    outer loop
      vertex 0.113023 13.2036 1.2
      vertex 0.337286 13.2319 0
      vertex 0.113023 13.2036 0
    endloop
  endfacet
  facet normal -0.684456 -0.729054 0
    outer loop
      vertex 1.14736 16.3869 0
      vertex 1.31214 16.2322 1.2
      vertex 1.14736 16.3869 1.2
    endloop
  endfacet
  facet normal -0.684456 -0.729054 -0
    outer loop
      vertex 1.31214 16.2322 1.2
      vertex 1.14736 16.3869 0
      vertex 1.31214 16.2322 0
    endloop
  endfacet
  facet normal 0.770558 -0.637369 0
    outer loop
      vertex -1.45623 16.058 1.2
      vertex -1.31214 16.2322 0
      vertex -1.31214 16.2322 1.2
    endloop
  endfacet
  facet normal 0.770558 -0.637369 0
    outer loop
      vertex -1.31214 16.2322 0
      vertex -1.45623 16.058 1.2
      vertex -1.45623 16.058 0
    endloop
  endfacet
  facet normal 0.481758 -0.876304 0
    outer loop
      vertex -0.964488 16.5198 0
      vertex -0.766402 16.6287 1.2
      vertex -0.964488 16.5198 1.2
    endloop
  endfacet
  facet normal 0.481758 -0.876304 0
    outer loop
      vertex -0.766402 16.6287 1.2
      vertex -0.964488 16.5198 0
      vertex -0.766402 16.6287 0
    endloop
  endfacet
  facet normal -0.904874 -0.42568 0
    outer loop
      vertex 1.6736 15.6626 0
      vertex 1.57735 15.8672 1.2
      vertex 1.57735 15.8672 0
    endloop
  endfacet
  facet normal -0.904874 -0.42568 0
    outer loop
      vertex 1.57735 15.8672 1.2
      vertex 1.6736 15.6626 0
      vertex 1.6736 15.6626 1.2
    endloop
  endfacet
  facet normal -0.982278 -0.187429 0
    outer loop
      vertex 1.78581 15.2256 0
      vertex 1.74345 15.4476 1.2
      vertex 1.74345 15.4476 0
    endloop
  endfacet
  facet normal -0.982278 -0.187429 0
    outer loop
      vertex 1.74345 15.4476 1.2
      vertex 1.78581 15.2256 0
      vertex 1.78581 15.2256 1.2
    endloop
  endfacet
  facet normal -0.368076 -0.929796 0
    outer loop
      vertex 0.556231 16.7119 0
      vertex 0.766402 16.6287 1.2
      vertex 0.556231 16.7119 1.2
    endloop
  endfacet
  facet normal -0.368076 -0.929796 -0
    outer loop
      vertex 0.766402 16.6287 1.2
      vertex 0.556231 16.7119 0
      vertex 0.766402 16.6287 0
    endloop
  endfacet
  facet normal -0.587889 -0.808942 0
    outer loop
      vertex 0.964488 16.5198 0
      vertex 1.14736 16.3869 1.2
      vertex 0.964488 16.5198 1.2
    endloop
  endfacet
  facet normal -0.587889 -0.808942 -0
    outer loop
      vertex 1.14736 16.3869 1.2
      vertex 0.964488 16.5198 0
      vertex 1.14736 16.3869 0
    endloop
  endfacet
  facet normal 0.951067 -0.308986 0
    outer loop
      vertex -1.74345 15.4476 1.2
      vertex -1.6736 15.6626 0
      vertex -1.6736 15.6626 1.2
    endloop
  endfacet
  facet normal 0.951067 -0.308986 0
    outer loop
      vertex -1.6736 15.6626 0
      vertex -1.74345 15.4476 1.2
      vertex -1.74345 15.4476 0
    endloop
  endfacet
  facet normal 0.904874 -0.42568 0
    outer loop
      vertex -1.6736 15.6626 1.2
      vertex -1.57735 15.8672 0
      vertex -1.57735 15.8672 1.2
    endloop
  endfacet
  facet normal 0.904874 -0.42568 0
    outer loop
      vertex -1.57735 15.8672 0
      vertex -1.6736 15.6626 1.2
      vertex -1.6736 15.6626 0
    endloop
  endfacet
  facet normal 0.587889 -0.808942 0
    outer loop
      vertex -1.14736 16.3869 0
      vertex -0.964488 16.5198 1.2
      vertex -1.14736 16.3869 1.2
    endloop
  endfacet
  facet normal 0.587889 -0.808942 0
    outer loop
      vertex -0.964488 16.5198 1.2
      vertex -1.14736 16.3869 0
      vertex -0.964488 16.5198 0
    endloop
  endfacet
  facet normal 0.248625 -0.9686 0
    outer loop
      vertex -0.556231 16.7119 0
      vertex -0.337286 16.7681 1.2
      vertex -0.556231 16.7119 1.2
    endloop
  endfacet
  facet normal 0.248625 -0.9686 0
    outer loop
      vertex -0.337286 16.7681 1.2
      vertex -0.556231 16.7119 0
      vertex -0.337286 16.7681 0
    endloop
  endfacet
  facet normal -0.248625 0.9686 0
    outer loop
      vertex 0.556231 13.2881 0
      vertex 0.337286 13.2319 1.2
      vertex 0.556231 13.2881 1.2
    endloop
  endfacet
  facet normal -0.248625 0.9686 0
    outer loop
      vertex 0.337286 13.2319 1.2
      vertex 0.556231 13.2881 0
      vertex 0.337286 13.2319 0
    endloop
  endfacet
  facet normal -0.951067 -0.308986 0
    outer loop
      vertex 1.74345 15.4476 0
      vertex 1.6736 15.6626 1.2
      vertex 1.6736 15.6626 0
    endloop
  endfacet
  facet normal -0.951067 -0.308986 0
    outer loop
      vertex 1.6736 15.6626 1.2
      vertex 1.74345 15.4476 0
      vertex 1.74345 15.4476 1.2
    endloop
  endfacet
  facet normal -0.770558 -0.637369 0
    outer loop
      vertex 1.45623 16.058 0
      vertex 1.31214 16.2322 1.2
      vertex 1.31214 16.2322 0
    endloop
  endfacet
  facet normal -0.770558 -0.637369 0
    outer loop
      vertex 1.31214 16.2322 1.2
      vertex 1.45623 16.058 0
      vertex 1.45623 16.058 1.2
    endloop
  endfacet
  facet normal -0.844259 -0.535936 0
    outer loop
      vertex 1.57735 15.8672 0
      vertex 1.45623 16.058 1.2
      vertex 1.45623 16.058 0
    endloop
  endfacet
  facet normal -0.844259 -0.535936 0
    outer loop
      vertex 1.45623 16.058 1.2
      vertex 1.57735 15.8672 0
      vertex 1.57735 15.8672 1.2
    endloop
  endfacet
  facet normal -0.125198 -0.992132 0
    outer loop
      vertex 0.113023 16.7964 0
      vertex 0.337286 16.7681 1.2
      vertex 0.113023 16.7964 1.2
    endloop
  endfacet
  facet normal -0.125198 -0.992132 -0
    outer loop
      vertex 0.337286 16.7681 1.2
      vertex 0.113023 16.7964 0
      vertex 0.337286 16.7681 0
    endloop
  endfacet
  facet normal -0.248625 -0.9686 0
    outer loop
      vertex 0.337286 16.7681 0
      vertex 0.556231 16.7119 1.2
      vertex 0.337286 16.7681 1.2
    endloop
  endfacet
  facet normal -0.248625 -0.9686 -0
    outer loop
      vertex 0.556231 16.7119 1.2
      vertex 0.337286 16.7681 0
      vertex 0.556231 16.7119 0
    endloop
  endfacet
  facet normal 0 -1 0
    outer loop
      vertex -0.113023 16.7964 0
      vertex 0.113023 16.7964 1.2
      vertex -0.113023 16.7964 1.2
    endloop
  endfacet
  facet normal 0 -1 -0
    outer loop
      vertex 0.113023 16.7964 1.2
      vertex -0.113023 16.7964 0
      vertex 0.113023 16.7964 0
    endloop
  endfacet
  facet normal 0.844259 -0.535936 0
    outer loop
      vertex -1.57735 15.8672 1.2
      vertex -1.45623 16.058 0
      vertex -1.45623 16.058 1.2
    endloop
  endfacet
  facet normal 0.844259 -0.535936 0
    outer loop
      vertex -1.45623 16.058 0
      vertex -1.57735 15.8672 1.2
      vertex -1.57735 15.8672 0
    endloop
  endfacet
  facet normal 0.998028 -0.0627749 0
    outer loop
      vertex -1.8 15 1.2
      vertex -1.78581 15.2256 0
      vertex -1.78581 15.2256 1.2
    endloop
  endfacet
  facet normal 0.998028 -0.0627749 0
    outer loop
      vertex -1.78581 15.2256 0
      vertex -1.8 15 1.2
      vertex -1.8 15 0
    endloop
  endfacet
  facet normal 0.998028 0.0627749 0
    outer loop
      vertex -1.78581 14.7744 1.2
      vertex -1.8 15 0
      vertex -1.8 15 1.2
    endloop
  endfacet
  facet normal 0.998028 0.0627749 0
    outer loop
      vertex -1.8 15 0
      vertex -1.78581 14.7744 1.2
      vertex -1.78581 14.7744 0
    endloop
  endfacet
  facet normal 0.684456 -0.729054 0
    outer loop
      vertex -1.31214 16.2322 0
      vertex -1.14736 16.3869 1.2
      vertex -1.31214 16.2322 1.2
    endloop
  endfacet
  facet normal 0.684456 -0.729054 0
    outer loop
      vertex -1.14736 16.3869 1.2
      vertex -1.31214 16.2322 0
      vertex -1.14736 16.3869 0
    endloop
  endfacet
  facet normal -0.770558 0.637369 0
    outer loop
      vertex 1.31214 13.7678 0
      vertex 1.45623 13.942 1.2
      vertex 1.45623 13.942 0
    endloop
  endfacet
  facet normal -0.770558 0.637369 0
    outer loop
      vertex 1.45623 13.942 1.2
      vertex 1.31214 13.7678 0
      vertex 1.31214 13.7678 1.2
    endloop
  endfacet
  facet normal -0.951067 0.308986 0
    outer loop
      vertex 1.6736 14.3374 0
      vertex 1.74345 14.5524 1.2
      vertex 1.74345 14.5524 0
    endloop
  endfacet
  facet normal -0.951067 0.308986 0
    outer loop
      vertex 1.74345 14.5524 1.2
      vertex 1.6736 14.3374 0
      vertex 1.6736 14.3374 1.2
    endloop
  endfacet
  facet normal -0.982278 0.187429 0
    outer loop
      vertex 1.74345 14.5524 0
      vertex 1.78581 14.7744 1.2
      vertex 1.78581 14.7744 0
    endloop
  endfacet
  facet normal -0.982278 0.187429 0
    outer loop
      vertex 1.78581 14.7744 1.2
      vertex 1.74345 14.5524 0
      vertex 1.74345 14.5524 1.2
    endloop
  endfacet
  facet normal -0.481758 0.876304 0
    outer loop
      vertex 0.964488 13.4802 0
      vertex 0.766402 13.3713 1.2
      vertex 0.964488 13.4802 1.2
    endloop
  endfacet
  facet normal -0.481758 0.876304 0
    outer loop
      vertex 0.766402 13.3713 1.2
      vertex 0.964488 13.4802 0
      vertex 0.766402 13.3713 0
    endloop
  endfacet
  facet normal -0.481758 -0.876304 0
    outer loop
      vertex 0.766402 16.6287 0
      vertex 0.964488 16.5198 1.2
      vertex 0.766402 16.6287 1.2
    endloop
  endfacet
  facet normal -0.481758 -0.876304 -0
    outer loop
      vertex 0.964488 16.5198 1.2
      vertex 0.766402 16.6287 0
      vertex 0.964488 16.5198 0
    endloop
  endfacet
  facet normal 0.982278 -0.187429 0
    outer loop
      vertex -1.78581 15.2256 1.2
      vertex -1.74345 15.4476 0
      vertex -1.74345 15.4476 1.2
    endloop
  endfacet
  facet normal 0.982278 -0.187429 0
    outer loop
      vertex -1.74345 15.4476 0
      vertex -1.78581 15.2256 1.2
      vertex -1.78581 15.2256 0
    endloop
  endfacet
  facet normal 0.368076 -0.929796 0
    outer loop
      vertex -0.766402 16.6287 0
      vertex -0.556231 16.7119 1.2
      vertex -0.766402 16.6287 1.2
    endloop
  endfacet
  facet normal 0.368076 -0.929796 0
    outer loop
      vertex -0.556231 16.7119 1.2
      vertex -0.766402 16.6287 0
      vertex -0.556231 16.7119 0
    endloop
  endfacet
  facet normal -0.844259 0.535936 0
    outer loop
      vertex 1.45623 13.942 0
      vertex 1.57735 14.1328 1.2
      vertex 1.57735 14.1328 0
    endloop
  endfacet
  facet normal -0.844259 0.535936 0
    outer loop
      vertex 1.57735 14.1328 1.2
      vertex 1.45623 13.942 0
      vertex 1.45623 13.942 1.2
    endloop
  endfacet
  facet normal -0.587889 0.808942 0
    outer loop
      vertex 1.14736 13.6131 0
      vertex 0.964488 13.4802 1.2
      vertex 1.14736 13.6131 1.2
    endloop
  endfacet
  facet normal -0.587889 0.808942 0
    outer loop
      vertex 0.964488 13.4802 1.2
      vertex 1.14736 13.6131 0
      vertex 0.964488 13.4802 0
    endloop
  endfacet
  facet normal -0.684456 0.729054 0
    outer loop
      vertex 1.31214 13.7678 0
      vertex 1.14736 13.6131 1.2
      vertex 1.31214 13.7678 1.2
    endloop
  endfacet
  facet normal -0.684456 0.729054 0
    outer loop
      vertex 1.14736 13.6131 1.2
      vertex 1.31214 13.7678 0
      vertex 1.14736 13.6131 0
    endloop
  endfacet
  facet normal -0.998028 0.0627749 0
    outer loop
      vertex 1.78581 14.7744 0
      vertex 1.8 15 1.2
      vertex 1.8 15 0
    endloop
  endfacet
  facet normal -0.998028 0.0627749 0
    outer loop
      vertex 1.8 15 1.2
      vertex 1.78581 14.7744 0
      vertex 1.78581 14.7744 1.2
    endloop
  endfacet
  facet normal 0.368076 0.929796 -0
    outer loop
      vertex -0.556231 13.2881 0
      vertex -0.766402 13.3713 1.2
      vertex -0.556231 13.2881 1.2
    endloop
  endfacet
  facet normal 0.368076 0.929796 0
    outer loop
      vertex -0.766402 13.3713 1.2
      vertex -0.556231 13.2881 0
      vertex -0.766402 13.3713 0
    endloop
  endfacet
  facet normal 0.125198 0.992132 -0
    outer loop
      vertex -0.113023 13.2036 0
      vertex -0.337286 13.2319 1.2
      vertex -0.113023 13.2036 1.2
    endloop
  endfacet
  facet normal 0.125198 0.992132 0
    outer loop
      vertex -0.337286 13.2319 1.2
      vertex -0.113023 13.2036 0
      vertex -0.337286 13.2319 0
    endloop
  endfacet
  facet normal 0.248625 0.9686 -0
    outer loop
      vertex -0.337286 13.2319 0
      vertex -0.556231 13.2881 1.2
      vertex -0.337286 13.2319 1.2
    endloop
  endfacet
  facet normal 0.248625 0.9686 0
    outer loop
      vertex -0.556231 13.2881 1.2
      vertex -0.337286 13.2319 0
      vertex -0.556231 13.2881 0
    endloop
  endfacet
  facet normal 0.587889 0.808942 -0
    outer loop
      vertex -0.964488 13.4802 0
      vertex -1.14736 13.6131 1.2
      vertex -0.964488 13.4802 1.2
    endloop
  endfacet
  facet normal 0.587889 0.808942 0
    outer loop
      vertex -1.14736 13.6131 1.2
      vertex -0.964488 13.4802 0
      vertex -1.14736 13.6131 0
    endloop
  endfacet
  facet normal 0.684456 0.729054 -0
    outer loop
      vertex -1.14736 13.6131 0
      vertex -1.31214 13.7678 1.2
      vertex -1.14736 13.6131 1.2
    endloop
  endfacet
  facet normal 0.684456 0.729054 0
    outer loop
      vertex -1.31214 13.7678 1.2
      vertex -1.14736 13.6131 0
      vertex -1.31214 13.7678 0
    endloop
  endfacet
  facet normal 0.844259 0.535936 0
    outer loop
      vertex -1.45623 13.942 1.2
      vertex -1.57735 14.1328 0
      vertex -1.57735 14.1328 1.2
    endloop
  endfacet
  facet normal 0.844259 0.535936 0
    outer loop
      vertex -1.57735 14.1328 0
      vertex -1.45623 13.942 1.2
      vertex -1.45623 13.942 0
    endloop
  endfacet
  facet normal 0.982278 0.187429 0
    outer loop
      vertex -1.74345 14.5524 1.2
      vertex -1.78581 14.7744 0
      vertex -1.78581 14.7744 1.2
    endloop
  endfacet
  facet normal 0.982278 0.187429 0
    outer loop
      vertex -1.78581 14.7744 0
      vertex -1.74345 14.5524 1.2
      vertex -1.74345 14.5524 0
    endloop
  endfacet
  facet normal 0.951067 0.308986 0
    outer loop
      vertex -1.6736 14.3374 1.2
      vertex -1.74345 14.5524 0
      vertex -1.74345 14.5524 1.2
    endloop
  endfacet
  facet normal 0.951067 0.308986 0
    outer loop
      vertex -1.74345 14.5524 0
      vertex -1.6736 14.3374 1.2
      vertex -1.6736 14.3374 0
    endloop
  endfacet
  facet normal 0.904874 0.42568 0
    outer loop
      vertex -1.57735 14.1328 1.2
      vertex -1.6736 14.3374 0
      vertex -1.6736 14.3374 1.2
    endloop
  endfacet
  facet normal 0.904874 0.42568 0
    outer loop
      vertex -1.6736 14.3374 0
      vertex -1.57735 14.1328 1.2
      vertex -1.57735 14.1328 0
    endloop
  endfacet
  facet normal -0.368076 0.929796 0
    outer loop
      vertex 0.766402 13.3713 0
      vertex 0.556231 13.2881 1.2
      vertex 0.766402 13.3713 1.2
    endloop
  endfacet
  facet normal -0.368076 0.929796 0
    outer loop
      vertex 0.556231 13.2881 1.2
      vertex 0.766402 13.3713 0
      vertex 0.556231 13.2881 0
    endloop
  endfacet
  facet normal -0.904874 0.42568 0
    outer loop
      vertex 1.57735 14.1328 0
      vertex 1.6736 14.3374 1.2
      vertex 1.6736 14.3374 0
    endloop
  endfacet
  facet normal -0.904874 0.42568 0
    outer loop
      vertex 1.6736 14.3374 1.2
      vertex 1.57735 14.1328 0
      vertex 1.57735 14.1328 1.2
    endloop
  endfacet
  facet normal 0.481758 0.876304 -0
    outer loop
      vertex -0.766402 13.3713 0
      vertex -0.964488 13.4802 1.2
      vertex -0.766402 13.3713 1.2
    endloop
  endfacet
  facet normal 0.481758 0.876304 0
    outer loop
      vertex -0.964488 13.4802 1.2
      vertex -0.766402 13.3713 0
      vertex -0.964488 13.4802 0
    endloop
  endfacet
  facet normal 0.770558 0.637369 0
    outer loop
      vertex -1.31214 13.7678 1.2
      vertex -1.45623 13.942 0
      vertex -1.45623 13.942 1.2
    endloop
  endfacet
  facet normal 0.770558 0.637369 0
    outer loop
      vertex -1.45623 13.942 0
      vertex -1.31214 13.7678 1.2
      vertex -1.31214 13.7678 0
    endloop
  endfacet
  facet normal 0 1 -0
    outer loop
      vertex 0.113023 13.2036 0
      vertex -0.113023 13.2036 1.2
      vertex 0.113023 13.2036 1.2
    endloop
  endfacet
  facet normal 0 1 0
    outer loop
      vertex -0.113023 13.2036 1.2
      vertex 0.113023 13.2036 0
      vertex -0.113023 13.2036 0
    endloop
  endfacet
  facet normal -1 0 0
    outer loop
      vertex -15 -25 0
      vertex -15 25 1.2
      vertex -15 25 0
    endloop
  endfacet
  facet normal -1 -0 0
    outer loop
      vertex -15 25 1.2
      vertex -15 -25 0
      vertex -15 -25 1.2
    endloop
  endfacet
  facet normal -0.99803 -0.0627451 0
    outer loop
      vertex -14.9606 -25.6267 0
      vertex -15 -25 1.2
      vertex -15 -25 0
    endloop
  endfacet
  facet normal -0.99803 -0.0627451 0
    outer loop
      vertex -15 -25 1.2
      vertex -14.9606 -25.6267 0
      vertex -14.9606 -25.6267 1.2
    endloop
  endfacet
  facet normal -0.99803 0.0627451 0
    outer loop
      vertex -15 25 0
      vertex -14.9606 25.6267 1.2
      vertex -14.9606 25.6267 0
    endloop
  endfacet
  facet normal -0.99803 0.0627451 0
    outer loop
      vertex -14.9606 25.6267 1.2
      vertex -15 25 0
      vertex -15 25 1.2
    endloop
  endfacet
  facet normal 1 -0 0
    outer loop
      vertex 15 -25 1.2
      vertex 15 25 0
      vertex 15 25 1.2
    endloop
  endfacet
  facet normal 1 0 0
    outer loop
      vertex 15 25 0
      vertex 15 -25 1.2
      vertex 15 -25 0
    endloop
  endfacet
  facet normal 0.770462 0.637486 0
    outer loop
      vertex 14.0451 27.9389 1.2
      vertex 13.6448 28.4227 0
      vertex 13.6448 28.4227 1.2
    endloop
  endfacet
  facet normal 0.770462 0.637486 0
    outer loop
      vertex 13.6448 28.4227 0
      vertex 14.0451 27.9389 1.2
      vertex 14.0451 27.9389 0
    endloop
  endfacet
  facet normal 0 -1 0
    outer loop
      vertex -10.314 -29.9901 0
      vertex 10.314 -29.9901 1.2
      vertex -10.314 -29.9901 1.2
    endloop
  endfacet
  facet normal 0 -1 -0
    outer loop
      vertex 10.314 -29.9901 1.2
      vertex -10.314 -29.9901 0
      vertex 10.314 -29.9901 0
    endloop
  endfacet
  facet normal 0.844336 -0.535814 0
    outer loop
      vertex 14.0451 -27.9389 1.2
      vertex 14.3815 -27.4088 0
      vertex 14.3815 -27.4088 1.2
    endloop
  endfacet
  facet normal 0.844336 -0.535814 0
    outer loop
      vertex 14.3815 -27.4088 0
      vertex 14.0451 -27.9389 1.2
      vertex 14.0451 -27.9389 0
    endloop
  endfacet
  facet normal -0.770462 0.637486 0
    outer loop
      vertex -14.0451 27.9389 0
      vertex -13.6448 28.4227 1.2
      vertex -13.6448 28.4227 0
    endloop
  endfacet
  facet normal -0.770462 0.637486 0
    outer loop
      vertex -13.6448 28.4227 1.2
      vertex -14.0451 27.9389 0
      vertex -14.0451 27.9389 1.2
    endloop
  endfacet
  facet normal 0 1 -0
    outer loop
      vertex 10.314 29.9901 0
      vertex -10.314 29.9901 1.2
      vertex 10.314 29.9901 1.2
    endloop
  endfacet
  facet normal 0 1 0
    outer loop
      vertex -10.314 29.9901 1.2
      vertex 10.314 29.9901 0
      vertex -10.314 29.9901 0
    endloop
  endfacet
  facet normal -0.368203 -0.929745 0
    outer loop
      vertex -12.1289 -29.5241 0
      vertex -11.5451 -29.7553 1.2
      vertex -12.1289 -29.5241 1.2
    endloop
  endfacet
  facet normal -0.368203 -0.929745 -0
    outer loop
      vertex -11.5451 -29.7553 1.2
      vertex -12.1289 -29.5241 0
      vertex -11.5451 -29.7553 0
    endloop
  endfacet
  facet normal -0.125348 -0.992113 0
    outer loop
      vertex -10.9369 -29.9114 0
      vertex -10.314 -29.9901 1.2
      vertex -10.9369 -29.9114 1.2
    endloop
  endfacet
  facet normal -0.125348 -0.992113 -0
    outer loop
      vertex -10.314 -29.9901 1.2
      vertex -10.9369 -29.9114 0
      vertex -10.314 -29.9901 0
    endloop
  endfacet
  facet normal -0.481784 -0.87629 0
    outer loop
      vertex -12.6791 -29.2216 0
      vertex -12.1289 -29.5241 1.2
      vertex -12.6791 -29.2216 1.2
    endloop
  endfacet
  facet normal -0.481784 -0.87629 -0
    outer loop
      vertex -12.1289 -29.5241 1.2
      vertex -12.6791 -29.2216 0
      vertex -12.1289 -29.5241 0
    endloop
  endfacet
  facet normal -0.684624 -0.728896 0
    outer loop
      vertex -13.6448 -28.4227 0
      vertex -13.1871 -28.8526 1.2
      vertex -13.6448 -28.4227 1.2
    endloop
  endfacet
  facet normal -0.684624 -0.728896 -0
    outer loop
      vertex -13.1871 -28.8526 1.2
      vertex -13.6448 -28.4227 0
      vertex -13.1871 -28.8526 0
    endloop
  endfacet
  facet normal 0.99803 -0.0627451 0
    outer loop
      vertex 14.9606 -25.6267 1.2
      vertex 15 -25 0
      vertex 15 -25 1.2
    endloop
  endfacet
  facet normal 0.99803 -0.0627451 0
    outer loop
      vertex 15 -25 0
      vertex 14.9606 -25.6267 1.2
      vertex 14.9606 -25.6267 0
    endloop
  endfacet
  facet normal 0.951061 0.309003 0
    outer loop
      vertex 14.8429 26.2435 1.2
      vertex 14.6489 26.8406 0
      vertex 14.6489 26.8406 1.2
    endloop
  endfacet
  facet normal 0.951061 0.309003 0
    outer loop
      vertex 14.6489 26.8406 0
      vertex 14.8429 26.2435 1.2
      vertex 14.8429 26.2435 0
    endloop
  endfacet
  facet normal 0.844336 0.535814 0
    outer loop
      vertex 14.3815 27.4088 1.2
      vertex 14.0451 27.9389 0
      vertex 14.0451 27.9389 1.2
    endloop
  endfacet
  facet normal 0.844336 0.535814 0
    outer loop
      vertex 14.0451 27.9389 0
      vertex 14.3815 27.4088 1.2
      vertex 14.3815 27.4088 0
    endloop
  endfacet
  facet normal 0.125348 0.992113 -0
    outer loop
      vertex 10.9369 29.9114 0
      vertex 10.314 29.9901 1.2
      vertex 10.9369 29.9114 1.2
    endloop
  endfacet
  facet normal 0.125348 0.992113 0
    outer loop
      vertex 10.314 29.9901 1.2
      vertex 10.9369 29.9114 0
      vertex 10.314 29.9901 0
    endloop
  endfacet
  facet normal -0.951061 0.309003 0
    outer loop
      vertex -14.8429 26.2435 0
      vertex -14.6489 26.8406 1.2
      vertex -14.6489 26.8406 0
    endloop
  endfacet
  facet normal -0.951061 0.309003 0
    outer loop
      vertex -14.6489 26.8406 1.2
      vertex -14.8429 26.2435 0
      vertex -14.8429 26.2435 1.2
    endloop
  endfacet
  facet normal -0.951061 -0.309003 0
    outer loop
      vertex -14.6489 -26.8406 0
      vertex -14.8429 -26.2435 1.2
      vertex -14.8429 -26.2435 0
    endloop
  endfacet
  facet normal -0.951061 -0.309003 0
    outer loop
      vertex -14.8429 -26.2435 1.2
      vertex -14.6489 -26.8406 0
      vertex -14.6489 -26.8406 1.2
    endloop
  endfacet
  facet normal -0.904811 -0.425812 0
    outer loop
      vertex -14.3815 -27.4088 0
      vertex -14.6489 -26.8406 1.2
      vertex -14.6489 -26.8406 0
    endloop
  endfacet
  facet normal -0.904811 -0.425812 0
    outer loop
      vertex -14.6489 -26.8406 1.2
      vertex -14.3815 -27.4088 0
      vertex -14.3815 -27.4088 1.2
    endloop
  endfacet
  facet normal -0.770462 -0.637486 0
    outer loop
      vertex -13.6448 -28.4227 0
      vertex -14.0451 -27.9389 1.2
      vertex -14.0451 -27.9389 0
    endloop
  endfacet
  facet normal -0.770462 -0.637486 0
    outer loop
      vertex -14.0451 -27.9389 1.2
      vertex -13.6448 -28.4227 0
      vertex -13.6448 -28.4227 1.2
    endloop
  endfacet
  facet normal -0.248601 -0.968606 0
    outer loop
      vertex -11.5451 -29.7553 0
      vertex -10.9369 -29.9114 1.2
      vertex -11.5451 -29.7553 1.2
    endloop
  endfacet
  facet normal -0.248601 -0.968606 -0
    outer loop
      vertex -10.9369 -29.9114 1.2
      vertex -11.5451 -29.7553 0
      vertex -10.9369 -29.9114 0
    endloop
  endfacet
  facet normal -0.587698 -0.80908 0
    outer loop
      vertex -13.1871 -28.8526 0
      vertex -12.6791 -29.2216 1.2
      vertex -13.1871 -28.8526 1.2
    endloop
  endfacet
  facet normal -0.587698 -0.80908 -0
    outer loop
      vertex -12.6791 -29.2216 1.2
      vertex -13.1871 -28.8526 0
      vertex -12.6791 -29.2216 0
    endloop
  endfacet
  facet normal 0.904811 -0.425812 0
    outer loop
      vertex 14.3815 -27.4088 1.2
      vertex 14.6489 -26.8406 0
      vertex 14.6489 -26.8406 1.2
    endloop
  endfacet
  facet normal 0.904811 -0.425812 0
    outer loop
      vertex 14.6489 -26.8406 0
      vertex 14.3815 -27.4088 1.2
      vertex 14.3815 -27.4088 0
    endloop
  endfacet
  facet normal 0.982276 0.187441 0
    outer loop
      vertex 14.9606 25.6267 1.2
      vertex 14.8429 26.2435 0
      vertex 14.8429 26.2435 1.2
    endloop
  endfacet
  facet normal 0.982276 0.187441 0
    outer loop
      vertex 14.8429 26.2435 0
      vertex 14.9606 25.6267 1.2
      vertex 14.9606 25.6267 0
    endloop
  endfacet
  facet normal 0.99803 0.0627451 0
    outer loop
      vertex 15 25 1.2
      vertex 14.9606 25.6267 0
      vertex 14.9606 25.6267 1.2
    endloop
  endfacet
  facet normal 0.99803 0.0627451 0
    outer loop
      vertex 14.9606 25.6267 0
      vertex 15 25 1.2
      vertex 15 25 0
    endloop
  endfacet
  facet normal 0.904811 0.425812 0
    outer loop
      vertex 14.6489 26.8406 1.2
      vertex 14.3815 27.4088 0
      vertex 14.3815 27.4088 1.2
    endloop
  endfacet
  facet normal 0.904811 0.425812 0
    outer loop
      vertex 14.3815 27.4088 0
      vertex 14.6489 26.8406 1.2
      vertex 14.6489 26.8406 0
    endloop
  endfacet
  facet normal 0.587698 0.80908 -0
    outer loop
      vertex 13.1871 28.8526 0
      vertex 12.6791 29.2216 1.2
      vertex 13.1871 28.8526 1.2
    endloop
  endfacet
  facet normal 0.587698 0.80908 0
    outer loop
      vertex 12.6791 29.2216 1.2
      vertex 13.1871 28.8526 0
      vertex 12.6791 29.2216 0
    endloop
  endfacet
  facet normal 0.684624 0.728896 -0
    outer loop
      vertex 13.6448 28.4227 0
      vertex 13.1871 28.8526 1.2
      vertex 13.6448 28.4227 1.2
    endloop
  endfacet
  facet normal 0.684624 0.728896 0
    outer loop
      vertex 13.1871 28.8526 1.2
      vertex 13.6448 28.4227 0
      vertex 13.1871 28.8526 0
    endloop
  endfacet
  facet normal 0.368203 0.929745 -0
    outer loop
      vertex 12.1289 29.5241 0
      vertex 11.5451 29.7553 1.2
      vertex 12.1289 29.5241 1.2
    endloop
  endfacet
  facet normal 0.368203 0.929745 0
    outer loop
      vertex 11.5451 29.7553 1.2
      vertex 12.1289 29.5241 0
      vertex 11.5451 29.7553 0
    endloop
  endfacet
  facet normal -0.982276 0.187441 0
    outer loop
      vertex -14.9606 25.6267 0
      vertex -14.8429 26.2435 1.2
      vertex -14.8429 26.2435 0
    endloop
  endfacet
  facet normal -0.982276 0.187441 0
    outer loop
      vertex -14.8429 26.2435 1.2
      vertex -14.9606 25.6267 0
      vertex -14.9606 25.6267 1.2
    endloop
  endfacet
  facet normal -0.844336 0.535814 0
    outer loop
      vertex -14.3815 27.4088 0
      vertex -14.0451 27.9389 1.2
      vertex -14.0451 27.9389 0
    endloop
  endfacet
  facet normal -0.844336 0.535814 0
    outer loop
      vertex -14.0451 27.9389 1.2
      vertex -14.3815 27.4088 0
      vertex -14.3815 27.4088 1.2
    endloop
  endfacet
  facet normal -0.684624 0.728896 0
    outer loop
      vertex -13.1871 28.8526 0
      vertex -13.6448 28.4227 1.2
      vertex -13.1871 28.8526 1.2
    endloop
  endfacet
  facet normal -0.684624 0.728896 0
    outer loop
      vertex -13.6448 28.4227 1.2
      vertex -13.1871 28.8526 0
      vertex -13.6448 28.4227 0
    endloop
  endfacet
  facet normal -0.904811 0.425812 0
    outer loop
      vertex -14.6489 26.8406 0
      vertex -14.3815 27.4088 1.2
      vertex -14.3815 27.4088 0
    endloop
  endfacet
  facet normal -0.904811 0.425812 0
    outer loop
      vertex -14.3815 27.4088 1.2
      vertex -14.6489 26.8406 0
      vertex -14.6489 26.8406 1.2
    endloop
  endfacet
  facet normal -0.125348 0.992113 0
    outer loop
      vertex -10.314 29.9901 0
      vertex -10.9369 29.9114 1.2
      vertex -10.314 29.9901 1.2
    endloop
  endfacet
  facet normal -0.125348 0.992113 0
    outer loop
      vertex -10.9369 29.9114 1.2
      vertex -10.314 29.9901 0
      vertex -10.9369 29.9114 0
    endloop
  endfacet
  facet normal -0.982276 -0.187441 0
    outer loop
      vertex -14.8429 -26.2435 0
      vertex -14.9606 -25.6267 1.2
      vertex -14.9606 -25.6267 0
    endloop
  endfacet
  facet normal -0.982276 -0.187441 0
    outer loop
      vertex -14.9606 -25.6267 1.2
      vertex -14.8429 -26.2435 0
      vertex -14.8429 -26.2435 1.2
    endloop
  endfacet
  facet normal -0.844336 -0.535814 0
    outer loop
      vertex -14.0451 -27.9389 0
      vertex -14.3815 -27.4088 1.2
      vertex -14.3815 -27.4088 0
    endloop
  endfacet
  facet normal -0.844336 -0.535814 0
    outer loop
      vertex -14.3815 -27.4088 1.2
      vertex -14.0451 -27.9389 0
      vertex -14.0451 -27.9389 1.2
    endloop
  endfacet
  facet normal 0.951061 -0.309003 0
    outer loop
      vertex 14.6489 -26.8406 1.2
      vertex 14.8429 -26.2435 0
      vertex 14.8429 -26.2435 1.2
    endloop
  endfacet
  facet normal 0.951061 -0.309003 0
    outer loop
      vertex 14.8429 -26.2435 0
      vertex 14.6489 -26.8406 1.2
      vertex 14.6489 -26.8406 0
    endloop
  endfacet
  facet normal 0.982276 -0.187441 0
    outer loop
      vertex 14.8429 -26.2435 1.2
      vertex 14.9606 -25.6267 0
      vertex 14.9606 -25.6267 1.2
    endloop
  endfacet
  facet normal 0.982276 -0.187441 0
    outer loop
      vertex 14.9606 -25.6267 0
      vertex 14.8429 -26.2435 1.2
      vertex 14.8429 -26.2435 0
    endloop
  endfacet
  facet normal 0.770462 -0.637486 0
    outer loop
      vertex 13.6448 -28.4227 1.2
      vertex 14.0451 -27.9389 0
      vertex 14.0451 -27.9389 1.2
    endloop
  endfacet
  facet normal 0.770462 -0.637486 0
    outer loop
      vertex 14.0451 -27.9389 0
      vertex 13.6448 -28.4227 1.2
      vertex 13.6448 -28.4227 0
    endloop
  endfacet
  facet normal 0.481784 -0.87629 0
    outer loop
      vertex 12.1289 -29.5241 0
      vertex 12.6791 -29.2216 1.2
      vertex 12.1289 -29.5241 1.2
    endloop
  endfacet
  facet normal 0.481784 -0.87629 0
    outer loop
      vertex 12.6791 -29.2216 1.2
      vertex 12.1289 -29.5241 0
      vertex 12.6791 -29.2216 0
    endloop
  endfacet
  facet normal 0.481784 0.87629 -0
    outer loop
      vertex 12.6791 29.2216 0
      vertex 12.1289 29.5241 1.2
      vertex 12.6791 29.2216 1.2
    endloop
  endfacet
  facet normal 0.481784 0.87629 0
    outer loop
      vertex 12.1289 29.5241 1.2
      vertex 12.6791 29.2216 0
      vertex 12.1289 29.5241 0
    endloop
  endfacet
  facet normal 0.248601 0.968606 -0
    outer loop
      vertex 11.5451 29.7553 0
      vertex 10.9369 29.9114 1.2
      vertex 11.5451 29.7553 1.2
    endloop
  endfacet
  facet normal 0.248601 0.968606 0
    outer loop
      vertex 10.9369 29.9114 1.2
      vertex 11.5451 29.7553 0
      vertex 10.9369 29.9114 0
    endloop
  endfacet
  facet normal -0.248601 0.968606 0
    outer loop
      vertex -10.9369 29.9114 0
      vertex -11.5451 29.7553 1.2
      vertex -10.9369 29.9114 1.2
    endloop
  endfacet
  facet normal -0.248601 0.968606 0
    outer loop
      vertex -11.5451 29.7553 1.2
      vertex -10.9369 29.9114 0
      vertex -11.5451 29.7553 0
    endloop
  endfacet
  facet normal -0.368203 0.929745 0
    outer loop
      vertex -11.5451 29.7553 0
      vertex -12.1289 29.5241 1.2
      vertex -11.5451 29.7553 1.2
    endloop
  endfacet
  facet normal -0.368203 0.929745 0
    outer loop
      vertex -12.1289 29.5241 1.2
      vertex -11.5451 29.7553 0
      vertex -12.1289 29.5241 0
    endloop
  endfacet
  facet normal 0.684624 -0.728896 0
    outer loop
      vertex 13.1871 -28.8526 0
      vertex 13.6448 -28.4227 1.2
      vertex 13.1871 -28.8526 1.2
    endloop
  endfacet
  facet normal 0.684624 -0.728896 0
    outer loop
      vertex 13.6448 -28.4227 1.2
      vertex 13.1871 -28.8526 0
      vertex 13.6448 -28.4227 0
    endloop
  endfacet
  facet normal -0.587698 0.80908 0
    outer loop
      vertex -12.6791 29.2216 0
      vertex -13.1871 28.8526 1.2
      vertex -12.6791 29.2216 1.2
    endloop
  endfacet
  facet normal -0.587698 0.80908 0
    outer loop
      vertex -13.1871 28.8526 1.2
      vertex -12.6791 29.2216 0
      vertex -13.1871 28.8526 0
    endloop
  endfacet
  facet normal -0.481784 0.87629 0
    outer loop
      vertex -12.1289 29.5241 0
      vertex -12.6791 29.2216 1.2
      vertex -12.1289 29.5241 1.2
    endloop
  endfacet
  facet normal -0.481784 0.87629 0
    outer loop
      vertex -12.6791 29.2216 1.2
      vertex -12.1289 29.5241 0
      vertex -12.6791 29.2216 0
    endloop
  endfacet
  facet normal 0.587698 -0.80908 0
    outer loop
      vertex 12.6791 -29.2216 0
      vertex 13.1871 -28.8526 1.2
      vertex 12.6791 -29.2216 1.2
    endloop
  endfacet
  facet normal 0.587698 -0.80908 0
    outer loop
      vertex 13.1871 -28.8526 1.2
      vertex 12.6791 -29.2216 0
      vertex 13.1871 -28.8526 0
    endloop
  endfacet
  facet normal 0.368203 -0.929745 0
    outer loop
      vertex 11.5451 -29.7553 0
      vertex 12.1289 -29.5241 1.2
      vertex 11.5451 -29.7553 1.2
    endloop
  endfacet
  facet normal 0.368203 -0.929745 0
    outer loop
      vertex 12.1289 -29.5241 1.2
      vertex 11.5451 -29.7553 0
      vertex 12.1289 -29.5241 0
    endloop
  endfacet
  facet normal 0.125348 -0.992113 0
    outer loop
      vertex 10.314 -29.9901 0
      vertex 10.9369 -29.9114 1.2
      vertex 10.314 -29.9901 1.2
    endloop
  endfacet
  facet normal 0.125348 -0.992113 0
    outer loop
      vertex 10.9369 -29.9114 1.2
      vertex 10.314 -29.9901 0
      vertex 10.9369 -29.9114 0
    endloop
  endfacet
  facet normal 0.248601 -0.968606 0
    outer loop
      vertex 10.9369 -29.9114 0
      vertex 11.5451 -29.7553 1.2
      vertex 10.9369 -29.9114 1.2
    endloop
  endfacet
  facet normal 0.248601 -0.968606 0
    outer loop
      vertex 11.5451 -29.7553 1.2
      vertex 10.9369 -29.9114 0
      vertex 11.5451 -29.7553 0
    endloop
  endfacet
endsolid OpenSCAD_Model
